# Blender 4.3.2
# www.blender.org
mtllib OreRock.mtl
o Rock_1
v -0.910576 -1.365656 1.369465
v -0.770876 -0.219667 0.976531
v -0.450136 -1.360985 -1.451246
v -0.363838 -0.577163 -1.123086
v 0.777326 -1.366321 1.501805
v 0.601459 0.117164 1.041657
v 1.139392 -1.350987 -0.810593
v 0.674552 -0.213972 -0.708492
v -1.119500 -1.378117 -0.555542
v -0.812622 -0.009862 -0.600514
v 1.293962 -1.343441 -0.076281
v 0.720699 0.277869 -0.259370
v -1.290984 -1.373183 0.254839
v 0.576887 0.541899 0.327190
v -1.022919 0.251747 -0.020759
v 1.043649 -1.352821 0.750730
v 0.500621 -1.368979 -1.119559
v 0.335435 -0.417903 -0.908195
v 0.899555 -0.711495 -0.785784
v 0.491337 -0.685413 -1.062221
vn -0.7234 0.2184 -0.6550
vn 0.2083 0.2876 -0.9348
vn 0.9441 0.2390 0.2272
vn -0.0947 0.3060 0.9473
vn 0.0054 -1.0000 -0.0035
vn -0.2445 0.8423 0.4804
vn 0.0444 0.6797 -0.7321
vn 0.0092 -0.9999 0.0040
vn 0.9032 0.3310 -0.2734
vn -0.9455 0.1507 -0.2886
vn -0.9220 0.2136 0.3230
vn -0.0721 0.9009 -0.4279
vn 0.0115 -0.9999 0.0003
vn 0.9288 0.3098 0.2032
vn 0.4837 0.1447 -0.8632
vn 0.4043 0.4432 -0.8001
vt 0.375000 0.170723
vt 0.625000 0.170723
vt 0.625000 0.250000
vt 0.375000 0.250000
vt 0.625000 0.406756
vt 0.500892 0.408158
vt 0.375000 0.409581
vt 0.375000 0.670022
vt 0.625000 0.670022
vt 0.625000 0.750000
vt 0.375000 0.750000
vt 0.625000 1.000000
vt 0.375000 1.000000
vt 0.125000 0.670022
vt 0.125000 0.750000
vt 0.875000 0.670022
vt 0.875000 0.750000
vt 0.625000 0.500000
vt 0.718244 0.500000
vt 0.875000 0.500000
vt 0.875000 0.579277
vt 0.625000 0.579277
vt 0.125000 0.500000
vt 0.284581 0.500000
vt 0.375000 0.500000
vt 0.375000 0.579277
vt 0.125000 0.579277
vt 0.515608 0.500000
vt 0.375000 0.079978
vt 0.625000 0.079978
vt 0.375000 0.000000
vt 0.625000 0.000000
s 0
f 9/1/1 10/2/1 4/3/1 3/4/1
f 3/4/2 4/3/2 18/5/2 20/6/2 17/7/2
f 16/8/3 14/9/3 6/10/3 5/11/3
f 5/11/4 6/10/4 2/12/4 1/13/4
f 13/14/5 16/8/5 5/11/5 1/15/5
f 14/9/6 15/16/6 2/17/6 6/10/6
f 8/18/7 18/19/7 4/20/7 10/21/7 12/22/7
f 3/23/8 17/24/8 7/25/8 11/26/8 9/27/8
f 7/25/9 19/28/9 8/18/9 12/22/9 11/26/9
f 13/29/10 15/30/10 10/2/10 9/1/10
f 1/31/11 2/32/11 15/30/11 13/29/11
f 12/22/12 10/21/12 15/16/12 14/9/12
f 9/27/13 11/26/13 16/8/13 13/14/13
f 11/26/14 12/22/14 14/9/14 16/8/14
f 17/7/15 20/6/15 19/28/15 7/25/15
f 19/28/16 20/6/16 18/5/16 8/18/16
o Rock_2
v -0.813177 -1.353326 -1.731463
v -0.550997 -0.667646 -1.644775
v 0.341331 -1.352301 -2.142836
v 0.340995 -0.789201 -1.829852
v -1.129977 -1.379252 -0.548098
v -0.816577 -0.013537 -0.603959
v 0.567524 -1.355011 -0.732967
v 0.630693 -0.697951 -0.969167
v -0.167916 -1.359265 -2.411695
v 0.028181 -0.541424 -2.086909
v 0.285318 -1.350690 -0.518624
v 0.502488 -0.319209 -0.795266
v -0.509765 -1.355596 -2.322880
v 0.030279 -0.300798 -0.860138
v -0.221853 -0.383780 -2.070595
v -0.057727 -1.355711 -0.409838
vn 0.5740 0.2749 -0.7713
vn 0.9748 -0.0363 -0.2201
vn 0.0862 0.1902 0.9780
vn -0.9133 0.2609 -0.3128
vn 0.0125 -0.9999 -0.0090
vn -0.1755 0.9353 -0.3073
vn 0.7865 0.5068 -0.3530
vn 0.0033 -1.0000 0.0011
vn 0.7261 0.0866 0.6821
vn -0.0788 0.3252 -0.9424
vn -0.8332 0.3620 -0.4179
vn 0.2445 0.9514 -0.1870
vn 0.0024 -1.0000 0.0016
vn 0.0562 0.3212 0.9454
vt 0.375000 0.170723
vt 0.625000 0.170723
vt 0.625000 0.250000
vt 0.375000 0.250000
vt 0.625000 0.500000
vt 0.375000 0.500000
vt 0.375000 0.670022
vt 0.625000 0.670022
vt 0.625000 0.750000
vt 0.375000 0.750000
vt 0.625000 1.000000
vt 0.375000 1.000000
vt 0.125000 0.670022
vt 0.125000 0.750000
vt 0.875000 0.670022
vt 0.875000 0.750000
vt 0.875000 0.500000
vt 0.875000 0.579277
vt 0.625000 0.579277
vt 0.125000 0.500000
vt 0.375000 0.579277
vt 0.125000 0.579277
vt 0.375000 0.079978
vt 0.625000 0.079978
vt 0.375000 0.000000
vt 0.625000 0.000000
s 0
f 29/33/17 30/34/17 24/35/17 23/36/17
f 23/36/18 24/35/18 28/37/18 27/38/18
f 36/39/19 34/40/19 26/41/19 25/42/19
f 25/42/20 26/41/20 22/43/20 21/44/20
f 33/45/21 36/39/21 25/42/21 21/46/21
f 34/40/22 35/47/22 22/48/22 26/41/22
f 28/37/23 24/49/23 30/50/23 32/51/23
f 23/52/24 27/38/24 31/53/24 29/54/24
f 27/38/25 28/37/25 32/51/25 31/53/25
f 33/55/26 35/56/26 30/34/26 29/33/26
f 21/57/27 22/58/27 35/56/27 33/55/27
f 32/51/28 30/50/28 35/47/28 34/40/28
f 29/54/29 31/53/29 36/39/29 33/45/29
f 31/53/30 32/51/30 34/40/30 36/39/30
