# Blender 4.3.2
# www.blender.org
mtllib Spear.mtl
o Cylinder
v 0.000000 -0.808807 -0.100000
v 0.000000 1.365021 -0.100000
v 0.019509 -0.808807 -0.098079
v 0.019509 1.365021 -0.098079
v 0.038268 -0.808807 -0.092388
v 0.038268 1.365021 -0.092388
v 0.055557 -0.808807 -0.083147
v 0.055557 1.365021 -0.083147
v 0.070711 -0.808807 -0.070711
v 0.070711 1.365021 -0.070711
v 0.083147 -0.808807 -0.055557
v 0.083147 1.365021 -0.055557
v 0.092388 -0.808807 -0.038268
v 0.092388 1.365021 -0.038268
v 0.098079 -0.808807 -0.019509
v 0.098079 1.365021 -0.019509
v 0.100000 -0.808807 0.000000
v 0.100000 1.365021 0.000000
v 0.098079 -0.808807 0.019509
v 0.098079 1.365021 0.019509
v 0.092388 -0.808807 0.038268
v 0.092388 1.365021 0.038268
v 0.083147 -0.808807 0.055557
v 0.083147 1.365021 0.055557
v 0.070711 -0.808807 0.070711
v 0.070711 1.365021 0.070711
v 0.055557 -0.808807 0.083147
v 0.055557 1.365021 0.083147
v 0.038268 -0.808807 0.092388
v 0.038268 1.365021 0.092388
v 0.019509 -0.808807 0.098079
v 0.019509 1.365021 0.098079
v 0.000000 -0.808807 0.100000
v 0.000000 1.365021 0.100000
v -0.019509 -0.808807 0.098079
v -0.019509 1.365021 0.098079
v -0.038268 -0.808807 0.092388
v -0.038268 1.365021 0.092388
v -0.055557 -0.808807 0.083147
v -0.055557 1.365021 0.083147
v -0.070711 -0.808807 0.070711
v -0.070711 1.365021 0.070711
v -0.083147 -0.808807 0.055557
v -0.083147 1.365021 0.055557
v -0.092388 -0.808807 0.038268
v -0.092388 1.365021 0.038268
v -0.098079 -0.808807 0.019509
v -0.098079 1.365021 0.019509
v -0.100000 -0.808807 0.000000
v -0.100000 1.365021 0.000000
v -0.098079 -0.808807 -0.019509
v -0.098079 1.365021 -0.019509
v -0.092388 -0.808807 -0.038268
v -0.092388 1.365021 -0.038268
v -0.083147 -0.808807 -0.055557
v -0.083147 1.365021 -0.055557
v -0.070711 -0.808807 -0.070711
v -0.070711 1.365021 -0.070711
v -0.055557 -0.808807 -0.083147
v -0.055557 1.365021 -0.083147
v -0.038268 -0.808807 -0.092388
v -0.038268 1.365021 -0.092388
v -0.019509 -0.808807 -0.098079
v -0.019509 1.365021 -0.098079
vn 0.0980 -0.0000 -0.9952
vn 0.2903 -0.0000 -0.9569
vn 0.4714 -0.0000 -0.8819
vn 0.6344 -0.0000 -0.7730
vn 0.7730 -0.0000 -0.6344
vn 0.8819 -0.0000 -0.4714
vn 0.9569 -0.0000 -0.2903
vn 0.9952 -0.0000 -0.0980
vn 0.9952 -0.0000 0.0980
vn 0.9569 -0.0000 0.2903
vn 0.8819 -0.0000 0.4714
vn 0.7730 -0.0000 0.6344
vn 0.6344 -0.0000 0.7730
vn 0.4714 -0.0000 0.8819
vn 0.2903 -0.0000 0.9569
vn 0.0980 -0.0000 0.9952
vn -0.0980 -0.0000 0.9952
vn -0.2903 -0.0000 0.9569
vn -0.4714 -0.0000 0.8819
vn -0.6344 -0.0000 0.7730
vn -0.7730 -0.0000 0.6344
vn -0.8819 -0.0000 0.4714
vn -0.9569 -0.0000 0.2903
vn -0.9952 -0.0000 0.0980
vn -0.9952 -0.0000 -0.0980
vn -0.9569 -0.0000 -0.2903
vn -0.8819 -0.0000 -0.4714
vn -0.7730 -0.0000 -0.6344
vn -0.6344 -0.0000 -0.7730
vn -0.4714 -0.0000 -0.8819
vn -0.0000 1.0000 -0.0000
vn -0.2903 -0.0000 -0.9569
vn -0.0980 -0.0000 -0.9952
vn -0.0000 -1.0000 -0.0000
vt 1.000000 0.500000
vt 1.000000 1.000000
vt 0.968750 1.000000
vt 0.968750 0.500000
vt 0.937500 1.000000
vt 0.937500 0.500000
vt 0.906250 1.000000
vt 0.906250 0.500000
vt 0.875000 1.000000
vt 0.875000 0.500000
vt 0.843750 1.000000
vt 0.843750 0.500000
vt 0.812500 1.000000
vt 0.812500 0.500000
vt 0.781250 1.000000
vt 0.781250 0.500000
vt 0.750000 1.000000
vt 0.750000 0.500000
vt 0.718750 1.000000
vt 0.718750 0.500000
vt 0.687500 1.000000
vt 0.687500 0.500000
vt 0.656250 1.000000
vt 0.656250 0.500000
vt 0.625000 1.000000
vt 0.625000 0.500000
vt 0.593750 1.000000
vt 0.593750 0.500000
vt 0.562500 1.000000
vt 0.562500 0.500000
vt 0.531250 1.000000
vt 0.531250 0.500000
vt 0.500000 1.000000
vt 0.500000 0.500000
vt 0.468750 1.000000
vt 0.468750 0.500000
vt 0.437500 1.000000
vt 0.437500 0.500000
vt 0.406250 1.000000
vt 0.406250 0.500000
vt 0.375000 1.000000
vt 0.375000 0.500000
vt 0.343750 1.000000
vt 0.343750 0.500000
vt 0.312500 1.000000
vt 0.312500 0.500000
vt 0.281250 1.000000
vt 0.281250 0.500000
vt 0.250000 1.000000
vt 0.250000 0.500000
vt 0.218750 1.000000
vt 0.218750 0.500000
vt 0.187500 1.000000
vt 0.187500 0.500000
vt 0.156250 1.000000
vt 0.156250 0.500000
vt 0.125000 1.000000
vt 0.125000 0.500000
vt 0.093750 1.000000
vt 0.093750 0.500000
vt 0.062500 1.000000
vt 0.062500 0.500000
vt 0.296822 0.485388
vt 0.250000 0.490000
vt 0.203178 0.485388
vt 0.158156 0.471731
vt 0.116663 0.449553
vt 0.080294 0.419706
vt 0.050447 0.383337
vt 0.028269 0.341844
vt 0.014612 0.296822
vt 0.010000 0.250000
vt 0.014612 0.203178
vt 0.028269 0.158156
vt 0.050447 0.116663
vt 0.080294 0.080294
vt 0.116663 0.050447
vt 0.158156 0.028269
vt 0.203178 0.014612
vt 0.250000 0.010000
vt 0.296822 0.014612
vt 0.341844 0.028269
vt 0.383337 0.050447
vt 0.419706 0.080294
vt 0.449553 0.116663
vt 0.471731 0.158156
vt 0.485388 0.203178
vt 0.490000 0.250000
vt 0.485388 0.296822
vt 0.471731 0.341844
vt 0.449553 0.383337
vt 0.419706 0.419706
vt 0.383337 0.449553
vt 0.341844 0.471731
vt 0.031250 1.000000
vt 0.031250 0.500000
vt 0.000000 1.000000
vt 0.000000 0.500000
vt 0.750000 0.490000
vt 0.796822 0.485388
vt 0.841844 0.471731
vt 0.883337 0.449553
vt 0.919706 0.419706
vt 0.949553 0.383337
vt 0.971731 0.341844
vt 0.985388 0.296822
vt 0.990000 0.250000
vt 0.985388 0.203178
vt 0.971731 0.158156
vt 0.949553 0.116663
vt 0.919706 0.080294
vt 0.883337 0.050447
vt 0.841844 0.028269
vt 0.796822 0.014612
vt 0.750000 0.010000
vt 0.703178 0.014612
vt 0.658156 0.028269
vt 0.616663 0.050447
vt 0.580294 0.080294
vt 0.550447 0.116663
vt 0.528269 0.158156
vt 0.514612 0.203178
vt 0.510000 0.250000
vt 0.514612 0.296822
vt 0.528269 0.341844
vt 0.550447 0.383337
vt 0.580294 0.419706
vt 0.616663 0.449553
vt 0.658156 0.471731
vt 0.703178 0.485388
s 0
f 1/1/1 2/2/1 4/3/1 3/4/1
f 3/4/2 4/3/2 6/5/2 5/6/2
f 5/6/3 6/5/3 8/7/3 7/8/3
f 7/8/4 8/7/4 10/9/4 9/10/4
f 9/10/5 10/9/5 12/11/5 11/12/5
f 11/12/6 12/11/6 14/13/6 13/14/6
f 13/14/7 14/13/7 16/15/7 15/16/7
f 15/16/8 16/15/8 18/17/8 17/18/8
f 17/18/9 18/17/9 20/19/9 19/20/9
f 19/20/10 20/19/10 22/21/10 21/22/10
f 21/22/11 22/21/11 24/23/11 23/24/11
f 23/24/12 24/23/12 26/25/12 25/26/12
f 25/26/13 26/25/13 28/27/13 27/28/13
f 27/28/14 28/27/14 30/29/14 29/30/14
f 29/30/15 30/29/15 32/31/15 31/32/15
f 31/32/16 32/31/16 34/33/16 33/34/16
f 33/34/17 34/33/17 36/35/17 35/36/17
f 35/36/18 36/35/18 38/37/18 37/38/18
f 37/38/19 38/37/19 40/39/19 39/40/19
f 39/40/20 40/39/20 42/41/20 41/42/20
f 41/42/21 42/41/21 44/43/21 43/44/21
f 43/44/22 44/43/22 46/45/22 45/46/22
f 45/46/23 46/45/23 48/47/23 47/48/23
f 47/48/24 48/47/24 50/49/24 49/50/24
f 49/50/25 50/49/25 52/51/25 51/52/25
f 51/52/26 52/51/26 54/53/26 53/54/26
f 53/54/27 54/53/27 56/55/27 55/56/27
f 55/56/28 56/55/28 58/57/28 57/58/28
f 57/58/29 58/57/29 60/59/29 59/60/29
f 59/60/30 60/59/30 62/61/30 61/62/30
f 4/63/31 2/64/31 64/65/31 62/66/31 60/67/31 58/68/31 56/69/31 54/70/31 52/71/31 50/72/31 48/73/31 46/74/31 44/75/31 42/76/31 40/77/31 38/78/31 36/79/31 34/80/31 32/81/31 30/82/31 28/83/31 26/84/31 24/85/31 22/86/31 20/87/31 18/88/31 16/89/31 14/90/31 12/91/31 10/92/31 8/93/31 6/94/31
f 61/62/32 62/61/32 64/95/32 63/96/32
f 63/96/33 64/95/33 2/97/33 1/98/33
f 1/99/34 3/100/34 5/101/34 7/102/34 9/103/34 11/104/34 13/105/34 15/106/34 17/107/34 19/108/34 21/109/34 23/110/34 25/111/34 27/112/34 29/113/34 31/114/34 33/115/34 35/116/34 37/117/34 39/118/34 41/119/34 43/120/34 45/121/34 47/122/34 49/123/34 51/124/34 53/125/34 55/126/34 57/127/34 59/128/34 61/129/34 63/130/34
o Cone
v 0.000000 1.352238 -0.131898
v 0.035381 1.352238 -0.129363
v 0.069402 1.352238 -0.121858
v 0.100756 1.352238 -0.109669
v 0.128238 1.352238 -0.093266
v 0.150792 1.352238 -0.073279
v 0.167552 1.352238 -0.050475
v 0.177872 1.352238 -0.025732
v 0.181357 1.352238 0.000000
v 0.177872 1.352238 0.025732
v 0.167552 1.352238 0.050475
v 0.150792 1.352238 0.073279
v 0.128238 1.352238 0.093266
v 0.100756 1.352238 0.109669
v 0.069402 1.352238 0.121858
v 0.035381 1.352238 0.129363
v 0.000000 1.352238 0.131898
v -0.035381 1.352238 0.129363
v -0.069402 1.352238 0.121858
v -0.100756 1.352238 0.109669
v -0.128238 1.352238 0.093266
v -0.150792 1.352238 0.073279
v -0.167552 1.352238 0.050475
v -0.177872 1.352238 0.025732
v -0.181357 1.352238 0.000000
v -0.177872 1.352238 -0.025732
v -0.167552 1.352238 -0.050475
v -0.150792 1.352238 -0.073279
v -0.128238 1.352238 -0.093266
v -0.100756 1.352238 -0.109669
v -0.069402 1.352238 -0.121858
v -0.035381 1.352238 -0.129363
v 0.000000 1.952238 0.000000
vn 0.0698 0.2142 -0.9743
vn 0.2103 0.2179 -0.9531
vn 0.3530 0.2253 -0.9081
vn 0.4980 0.2361 -0.8344
vn 0.6422 0.2499 -0.7247
vn 0.7770 0.2650 -0.5710
vn 0.8864 0.2786 -0.3697
vn 0.9493 0.2869 -0.1286
vn 0.9493 0.2869 0.1286
vn 0.8864 0.2786 0.3697
vn 0.7770 0.2650 0.5710
vn 0.6422 0.2499 0.7247
vn 0.4980 0.2361 0.8344
vn 0.3530 0.2253 0.9081
vn 0.2103 0.2179 0.9531
vn 0.0698 0.2142 0.9743
vn -0.0698 0.2142 0.9743
vn -0.2103 0.2179 0.9531
vn -0.3530 0.2253 0.9081
vn -0.4980 0.2361 0.8344
vn -0.6422 0.2499 0.7247
vn -0.7770 0.2650 0.5710
vn -0.8864 0.2786 0.3697
vn -0.9493 0.2869 0.1286
vn -0.9493 0.2869 -0.1286
vn -0.8864 0.2786 -0.3697
vn -0.7770 0.2650 -0.5710
vn -0.6422 0.2499 -0.7247
vn -0.4980 0.2361 -0.8344
vn -0.3530 0.2253 -0.9081
vn -0.0000 -1.0000 -0.0000
vn -0.2103 0.2179 -0.9531
vn -0.0698 0.2142 -0.9743
vt 0.250000 0.490000
vt 0.250000 0.250000
vt 0.296822 0.485388
vt 0.341844 0.471731
vt 0.383337 0.449553
vt 0.419706 0.419706
vt 0.449553 0.383337
vt 0.471731 0.341844
vt 0.485388 0.296822
vt 0.490000 0.250000
vt 0.485388 0.203178
vt 0.471731 0.158156
vt 0.449553 0.116663
vt 0.419706 0.080294
vt 0.383337 0.050447
vt 0.341844 0.028269
vt 0.296822 0.014612
vt 0.250000 0.010000
vt 0.203178 0.014612
vt 0.158156 0.028269
vt 0.116663 0.050447
vt 0.080294 0.080294
vt 0.050447 0.116663
vt 0.028269 0.158156
vt 0.014612 0.203178
vt 0.010000 0.250000
vt 0.014612 0.296822
vt 0.028269 0.341844
vt 0.050447 0.383337
vt 0.080294 0.419706
vt 0.116663 0.449553
vt 0.158156 0.471731
vt 0.750000 0.490000
vt 0.796822 0.485388
vt 0.841844 0.471731
vt 0.883337 0.449553
vt 0.919706 0.419706
vt 0.949553 0.383337
vt 0.971731 0.341844
vt 0.985388 0.296822
vt 0.990000 0.250000
vt 0.985388 0.203178
vt 0.971731 0.158156
vt 0.949553 0.116663
vt 0.919706 0.080294
vt 0.883337 0.050447
vt 0.841844 0.028269
vt 0.796822 0.014612
vt 0.750000 0.010000
vt 0.703178 0.014612
vt 0.658156 0.028269
vt 0.616663 0.050447
vt 0.580294 0.080294
vt 0.550447 0.116663
vt 0.528269 0.158156
vt 0.514612 0.203178
vt 0.510000 0.250000
vt 0.514612 0.296822
vt 0.528269 0.341844
vt 0.550447 0.383337
vt 0.580294 0.419706
vt 0.616663 0.449553
vt 0.658156 0.471731
vt 0.703178 0.485388
vt 0.203178 0.485388
s 0
f 65/131/35 97/132/35 66/133/35
f 66/133/36 97/132/36 67/134/36
f 67/134/37 97/132/37 68/135/37
f 68/135/38 97/132/38 69/136/38
f 69/136/39 97/132/39 70/137/39
f 70/137/40 97/132/40 71/138/40
f 71/138/41 97/132/41 72/139/41
f 72/139/42 97/132/42 73/140/42
f 73/140/43 97/132/43 74/141/43
f 74/141/44 97/132/44 75/142/44
f 75/142/45 97/132/45 76/143/45
f 76/143/46 97/132/46 77/144/46
f 77/144/47 97/132/47 78/145/47
f 78/145/48 97/132/48 79/146/48
f 79/146/49 97/132/49 80/147/49
f 80/147/50 97/132/50 81/148/50
f 81/148/51 97/132/51 82/149/51
f 82/149/52 97/132/52 83/150/52
f 83/150/53 97/132/53 84/151/53
f 84/151/54 97/132/54 85/152/54
f 85/152/55 97/132/55 86/153/55
f 86/153/56 97/132/56 87/154/56
f 87/154/57 97/132/57 88/155/57
f 88/155/58 97/132/58 89/156/58
f 89/156/59 97/132/59 90/157/59
f 90/157/60 97/132/60 91/158/60
f 91/158/61 97/132/61 92/159/61
f 92/159/62 97/132/62 93/160/62
f 93/160/63 97/132/63 94/161/63
f 94/161/64 97/132/64 95/162/64
f 65/163/65 66/164/65 67/165/65 68/166/65 69/167/65 70/168/65 71/169/65 72/170/65 73/171/65 74/172/65 75/173/65 76/174/65 77/175/65 78/176/65 79/177/65 80/178/65 81/179/65 82/180/65 83/181/65 84/182/65 85/183/65 86/184/65 87/185/65 88/186/65 89/187/65 90/188/65 91/189/65 92/190/65 93/191/65 94/192/65 95/193/65 96/194/65
f 95/162/66 97/132/66 96/195/66
f 96/195/67 97/132/67 65/131/67
o Cube
v -0.248605 1.096025 0.108686
v -0.248605 1.264817 0.108686
v -0.248605 1.096025 -0.108686
v -0.248605 1.264817 -0.108686
v 0.248605 1.096025 0.108686
v 0.248605 1.264817 0.108686
v 0.248605 1.096025 -0.108686
v 0.248605 1.264817 -0.108686
vn -1.0000 -0.0000 -0.0000
vn -0.0000 -0.0000 -1.0000
vn 1.0000 -0.0000 -0.0000
vn -0.0000 -0.0000 1.0000
vn -0.0000 -1.0000 -0.0000
vn -0.0000 1.0000 -0.0000
vt 0.375000 0.000000
vt 0.625000 0.000000
vt 0.625000 0.250000
vt 0.375000 0.250000
vt 0.625000 0.500000
vt 0.375000 0.500000
vt 0.625000 0.750000
vt 0.375000 0.750000
vt 0.625000 1.000000
vt 0.375000 1.000000
vt 0.125000 0.500000
vt 0.125000 0.750000
vt 0.875000 0.500000
vt 0.875000 0.750000
s 0
f 98/196/68 99/197/68 101/198/68 100/199/68
f 100/199/69 101/198/69 105/200/69 104/201/69
f 104/201/70 105/200/70 103/202/70 102/203/70
f 102/203/71 103/202/71 99/204/71 98/205/71
f 100/206/72 104/201/72 102/203/72 98/207/72
f 105/200/73 101/208/73 99/209/73 103/202/73
o Cylinder.001
v 0.000000 1.279345 -0.130481
v 0.000000 1.279345 0.130481
v 0.019509 1.277424 -0.130481
v 0.019509 1.277424 0.130481
v 0.038268 1.271733 -0.130481
v 0.038268 1.271733 0.130481
v 0.055557 1.262492 -0.130481
v 0.055557 1.262492 0.130481
v 0.070711 1.250056 -0.130481
v 0.070711 1.250056 0.130481
v 0.083147 1.234902 -0.130481
v 0.083147 1.234902 0.130481
v 0.092388 1.217613 -0.130481
v 0.092388 1.217613 0.130481
v 0.098079 1.198854 -0.130481
v 0.098079 1.198854 0.130481
v 0.100000 1.179345 -0.130481
v 0.100000 1.179345 0.130481
v 0.098079 1.159836 -0.130481
v 0.098079 1.159836 0.130481
v 0.092388 1.141077 -0.130481
v 0.092388 1.141077 0.130481
v 0.083147 1.123788 -0.130481
v 0.083147 1.123788 0.130481
v 0.070711 1.108634 -0.130481
v 0.070711 1.108634 0.130481
v 0.055557 1.096198 -0.130481
v 0.055557 1.096198 0.130481
v 0.038268 1.086957 -0.130481
v 0.038268 1.086957 0.130481
v 0.019509 1.081267 -0.130481
v 0.019509 1.081267 0.130481
v 0.000000 1.079345 -0.130481
v 0.000000 1.079345 0.130481
v -0.019509 1.081267 -0.130481
v -0.019509 1.081267 0.130481
v -0.038268 1.086957 -0.130481
v -0.038268 1.086957 0.130481
v -0.055557 1.096198 -0.130481
v -0.055557 1.096198 0.130481
v -0.070711 1.108634 -0.130481
v -0.070711 1.108634 0.130481
v -0.083147 1.123788 -0.130481
v -0.083147 1.123788 0.130481
v -0.092388 1.141077 -0.130481
v -0.092388 1.141077 0.130481
v -0.098079 1.159836 -0.130481
v -0.098079 1.159836 0.130481
v -0.100000 1.179345 -0.130481
v -0.100000 1.179345 0.130481
v -0.098079 1.198854 -0.130481
v -0.098079 1.198854 0.130481
v -0.092388 1.217613 -0.130481
v -0.092388 1.217613 0.130481
v -0.083147 1.234902 -0.130481
v -0.083147 1.234902 0.130481
v -0.070711 1.250056 -0.130481
v -0.070711 1.250056 0.130481
v -0.055557 1.262492 -0.130481
v -0.055557 1.262492 0.130481
v -0.038268 1.271733 -0.130481
v -0.038268 1.271733 0.130481
v -0.019509 1.277424 -0.130481
v -0.019509 1.277424 0.130481
vn 0.0980 0.9952 -0.0000
vn 0.2903 0.9569 -0.0000
vn 0.4714 0.8819 -0.0000
vn 0.6344 0.7730 -0.0000
vn 0.7730 0.6344 -0.0000
vn 0.8819 0.4714 -0.0000
vn 0.9569 0.2903 -0.0000
vn 0.9952 0.0980 -0.0000
vn 0.9952 -0.0980 -0.0000
vn 0.9569 -0.2903 -0.0000
vn 0.8819 -0.4714 -0.0000
vn 0.7730 -0.6344 -0.0000
vn 0.6344 -0.7730 -0.0000
vn 0.4714 -0.8819 -0.0000
vn 0.2903 -0.9569 -0.0000
vn 0.0980 -0.9952 -0.0000
vn -0.0980 -0.9952 -0.0000
vn -0.2903 -0.9569 -0.0000
vn -0.4714 -0.8819 -0.0000
vn -0.6344 -0.7730 -0.0000
vn -0.7730 -0.6344 -0.0000
vn -0.8819 -0.4714 -0.0000
vn -0.9569 -0.2903 -0.0000
vn -0.9952 -0.0980 -0.0000
vn -0.9952 0.0980 -0.0000
vn -0.9569 0.2903 -0.0000
vn -0.8819 0.4714 -0.0000
vn -0.7730 0.6344 -0.0000
vn -0.6344 0.7730 -0.0000
vn -0.4714 0.8819 -0.0000
vn -0.0000 -0.0000 1.0000
vn -0.2903 0.9569 -0.0000
vn -0.0980 0.9952 -0.0000
vn -0.0000 -0.0000 -1.0000
vt 1.000000 0.500000
vt 1.000000 1.000000
vt 0.968750 1.000000
vt 0.968750 0.500000
vt 0.937500 1.000000
vt 0.937500 0.500000
vt 0.906250 1.000000
vt 0.906250 0.500000
vt 0.875000 1.000000
vt 0.875000 0.500000
vt 0.843750 1.000000
vt 0.843750 0.500000
vt 0.812500 1.000000
vt 0.812500 0.500000
vt 0.781250 1.000000
vt 0.781250 0.500000
vt 0.750000 1.000000
vt 0.750000 0.500000
vt 0.718750 1.000000
vt 0.718750 0.500000
vt 0.687500 1.000000
vt 0.687500 0.500000
vt 0.656250 1.000000
vt 0.656250 0.500000
vt 0.625000 1.000000
vt 0.625000 0.500000
vt 0.593750 1.000000
vt 0.593750 0.500000
vt 0.562500 1.000000
vt 0.562500 0.500000
vt 0.531250 1.000000
vt 0.531250 0.500000
vt 0.500000 1.000000
vt 0.500000 0.500000
vt 0.468750 1.000000
vt 0.468750 0.500000
vt 0.437500 1.000000
vt 0.437500 0.500000
vt 0.406250 1.000000
vt 0.406250 0.500000
vt 0.375000 1.000000
vt 0.375000 0.500000
vt 0.343750 1.000000
vt 0.343750 0.500000
vt 0.312500 1.000000
vt 0.312500 0.500000
vt 0.281250 1.000000
vt 0.281250 0.500000
vt 0.250000 1.000000
vt 0.250000 0.500000
vt 0.218750 1.000000
vt 0.218750 0.500000
vt 0.187500 1.000000
vt 0.187500 0.500000
vt 0.156250 1.000000
vt 0.156250 0.500000
vt 0.125000 1.000000
vt 0.125000 0.500000
vt 0.093750 1.000000
vt 0.093750 0.500000
vt 0.062500 1.000000
vt 0.062500 0.500000
vt 0.296822 0.485388
vt 0.250000 0.490000
vt 0.203178 0.485388
vt 0.158156 0.471731
vt 0.116663 0.449553
vt 0.080294 0.419706
vt 0.050447 0.383337
vt 0.028269 0.341844
vt 0.014612 0.296822
vt 0.010000 0.250000
vt 0.014612 0.203178
vt 0.028269 0.158156
vt 0.050447 0.116663
vt 0.080294 0.080294
vt 0.116663 0.050447
vt 0.158156 0.028269
vt 0.203178 0.014612
vt 0.250000 0.010000
vt 0.296822 0.014612
vt 0.341844 0.028269
vt 0.383337 0.050447
vt 0.419706 0.080294
vt 0.449553 0.116663
vt 0.471731 0.158156
vt 0.485388 0.203178
vt 0.490000 0.250000
vt 0.485388 0.296822
vt 0.471731 0.341844
vt 0.449553 0.383337
vt 0.419706 0.419706
vt 0.383337 0.449553
vt 0.341844 0.471731
vt 0.031250 1.000000
vt 0.031250 0.500000
vt 0.000000 1.000000
vt 0.000000 0.500000
vt 0.750000 0.490000
vt 0.796822 0.485388
vt 0.841844 0.471731
vt 0.883337 0.449553
vt 0.919706 0.419706
vt 0.949553 0.383337
vt 0.971731 0.341844
vt 0.985388 0.296822
vt 0.990000 0.250000
vt 0.985388 0.203178
vt 0.971731 0.158156
vt 0.949553 0.116663
vt 0.919706 0.080294
vt 0.883337 0.050447
vt 0.841844 0.028269
vt 0.796822 0.014612
vt 0.750000 0.010000
vt 0.703178 0.014612
vt 0.658156 0.028269
vt 0.616663 0.050447
vt 0.580294 0.080294
vt 0.550447 0.116663
vt 0.528269 0.158156
vt 0.514612 0.203178
vt 0.510000 0.250000
vt 0.514612 0.296822
vt 0.528269 0.341844
vt 0.550447 0.383337
vt 0.580294 0.419706
vt 0.616663 0.449553
vt 0.658156 0.471731
vt 0.703178 0.485388
s 0
f 106/210/74 107/211/74 109/212/74 108/213/74
f 108/213/75 109/212/75 111/214/75 110/215/75
f 110/215/76 111/214/76 113/216/76 112/217/76
f 112/217/77 113/216/77 115/218/77 114/219/77
f 114/219/78 115/218/78 117/220/78 116/221/78
f 116/221/79 117/220/79 119/222/79 118/223/79
f 118/223/80 119/222/80 121/224/80 120/225/80
f 120/225/81 121/224/81 123/226/81 122/227/81
f 122/227/82 123/226/82 125/228/82 124/229/82
f 124/229/83 125/228/83 127/230/83 126/231/83
f 126/231/84 127/230/84 129/232/84 128/233/84
f 128/233/85 129/232/85 131/234/85 130/235/85
f 130/235/86 131/234/86 133/236/86 132/237/86
f 132/237/87 133/236/87 135/238/87 134/239/87
f 134/239/88 135/238/88 137/240/88 136/241/88
f 136/241/89 137/240/89 139/242/89 138/243/89
f 138/243/90 139/242/90 141/244/90 140/245/90
f 140/245/91 141/244/91 143/246/91 142/247/91
f 142/247/92 143/246/92 145/248/92 144/249/92
f 144/249/93 145/248/93 147/250/93 146/251/93
f 146/251/94 147/250/94 149/252/94 148/253/94
f 148/253/95 149/252/95 151/254/95 150/255/95
f 150/255/96 151/254/96 153/256/96 152/257/96
f 152/257/97 153/256/97 155/258/97 154/259/97
f 154/259/98 155/258/98 157/260/98 156/261/98
f 156/261/99 157/260/99 159/262/99 158/263/99
f 158/263/100 159/262/100 161/264/100 160/265/100
f 160/265/101 161/264/101 163/266/101 162/267/101
f 162/267/102 163/266/102 165/268/102 164/269/102
f 164/269/103 165/268/103 167/270/103 166/271/103
f 109/272/104 107/273/104 169/274/104 167/275/104 165/276/104 163/277/104 161/278/104 159/279/104 157/280/104 155/281/104 153/282/104 151/283/104 149/284/104 147/285/104 145/286/104 143/287/104 141/288/104 139/289/104 137/290/104 135/291/104 133/292/104 131/293/104 129/294/104 127/295/104 125/296/104 123/297/104 121/298/104 119/299/104 117/300/104 115/301/104 113/302/104 111/303/104
f 166/271/105 167/270/105 169/304/105 168/305/105
f 168/305/106 169/304/106 107/306/106 106/307/106
f 106/308/107 108/309/107 110/310/107 112/311/107 114/312/107 116/313/107 118/314/107 120/315/107 122/316/107 124/317/107 126/318/107 128/319/107 130/320/107 132/321/107 134/322/107 136/323/107 138/324/107 140/325/107 142/326/107 144/327/107 146/328/107 148/329/107 150/330/107 152/331/107 154/332/107 156/333/107 158/334/107 160/335/107 162/336/107 164/337/107 166/338/107 168/339/107
o Cube.001
v -0.183781 -0.879402 0.070731
v 0.000000 -0.695621 0.070731
v -0.183781 -0.879402 -0.070731
v 0.000000 -0.695621 -0.070731
v 0.000000 -1.063183 0.070731
v 0.183781 -0.879402 0.070731
v 0.000000 -1.063183 -0.070731
v 0.183781 -0.879402 -0.070731
vn -0.7071 0.7071 -0.0000
vn -0.0000 -0.0000 -1.0000
vn 0.7071 -0.7071 -0.0000
vn -0.0000 -0.0000 1.0000
vn -0.7071 -0.7071 -0.0000
vn 0.7071 0.7071 -0.0000
vt 0.375000 0.000000
vt 0.625000 0.000000
vt 0.625000 0.250000
vt 0.375000 0.250000
vt 0.625000 0.500000
vt 0.375000 0.500000
vt 0.625000 0.750000
vt 0.375000 0.750000
vt 0.625000 1.000000
vt 0.375000 1.000000
vt 0.125000 0.500000
vt 0.125000 0.750000
vt 0.875000 0.500000
vt 0.875000 0.750000
s 0
f 170/340/108 171/341/108 173/342/108 172/343/108
f 172/343/109 173/342/109 177/344/109 176/345/109
f 176/345/110 177/344/110 175/346/110 174/347/110
f 174/347/111 175/346/111 171/348/111 170/349/111
f 172/350/112 176/345/112 174/347/112 170/351/112
f 177/344/113 173/352/113 171/353/113 175/346/113
