# Blender 4.1.1
# www.blender.org
o Cube.140
v -0.226297 4.470709 0.822219
v -0.310286 4.558018 0.943367
v -0.397595 4.474029 0.822219
v -0.961074 5.234532 0.943367
v -1.045063 5.321842 0.822219
v -1.048383 5.150544 0.822219
v -0.226297 4.470709 -0.116502
v -0.397595 4.474029 -0.116502
v -0.310286 4.558018 -0.237651
v -1.045063 5.321842 -0.116502
v -0.961074 5.234532 -0.237651
v -1.048383 5.150544 -0.116502
v 0.450218 5.121497 0.822219
v 0.453538 5.292795 0.822219
v 0.366229 5.208806 0.943367
v -0.368548 5.972630 0.822219
v -0.284559 5.885320 0.943367
v -0.197250 5.969309 0.822219
v 0.450218 5.121497 -0.116502
v 0.366229 5.208806 -0.237651
v 0.453538 5.292795 -0.116502
v -0.368548 5.972630 -0.116502
v -0.197250 5.969309 -0.116502
v -0.284559 5.885320 -0.237651
vn -0.0000 -0.0000 1.0000
vn 0.7207 0.6933 -0.0000
vn -0.6933 0.7207 -0.0000
vn -0.7207 -0.6933 -0.0000
vn -0.0000 -0.0000 -1.0000
vn -0.0158 -0.8163 0.5774
vn -0.8163 0.0158 0.5773
vn -0.0158 -0.8163 -0.5774
vn -0.8163 0.0158 -0.5774
vn 0.8163 -0.0158 0.5774
vn 0.0158 0.8163 0.5774
vn 0.8163 -0.0158 -0.5774
vn 0.0158 0.8163 -0.5774
vn -0.0194 -0.9998 -0.0000
vn -0.5096 -0.4902 0.7071
vn -0.9998 0.0194 -0.0000
vn -0.5096 -0.4902 -0.7071
vn 0.4902 -0.5096 -0.7071
vn -0.4902 0.5096 -0.7071
vn 0.5096 0.4902 -0.7071
vn 0.9998 -0.0194 -0.0000
vn 0.0194 0.9998 -0.0000
vn 0.5096 0.4902 0.7071
vn 0.4902 -0.5096 0.7071
vn -0.4902 0.5096 0.7071
vn 0.6933 -0.7207 -0.0000
vt 0.400645 0.775645
vt 0.599355 0.775645
vt 0.599355 0.974355
vt 0.400645 0.974355
vt 0.400645 0.525645
vt 0.599355 0.525645
vt 0.599355 0.724355
vt 0.400645 0.724355
vt 0.650645 0.525645
vt 0.849355 0.525645
vt 0.849355 0.724355
vt 0.650645 0.724355
vt 0.400645 0.025645
vt 0.599355 0.025645
vt 0.599355 0.224355
vt 0.400645 0.224355
vt 0.400645 0.275645
vt 0.599355 0.275645
vt 0.599355 0.474355
vt 0.400645 0.474355
vt 0.150645 0.724355
vt 0.150645 0.750000
vt 0.125000 0.724355
vt 0.599355 0.000000
vt 0.625000 0.025645
vt 0.150645 0.525645
vt 0.125000 0.525645
vt 0.150645 0.500000
vt 0.625000 0.224355
vt 0.599355 0.250000
vt 0.349355 0.724355
vt 0.375000 0.724355
vt 0.349355 0.750000
vt 0.625000 0.775645
vt 0.599355 0.750000
vt 0.349355 0.525645
vt 0.349355 0.500000
vt 0.375000 0.525645
vt 0.625000 0.474355
vt 0.599355 0.500000
vt 0.400645 0.000000
vt 0.625000 0.275645
vt 0.625000 0.974355
s 0
f 15/1/1 17/2/1 4/3/1 2/4/1
f 21/5/2 23/6/2 18/7/2 14/8/2
f 22/9/3 10/10/3 5/11/3 16/12/3
f 3/13/4 6/14/4 12/15/4 8/16/4
f 9/17/5 11/18/5 24/19/5 20/20/5
f 1/21/6 2/22/6 3/23/6
f 4/24/7 5/25/7 6/14/7
f 7/26/8 8/27/8 9/28/8
f 10/29/9 11/30/9 12/15/9
f 13/31/10 14/32/10 15/33/10
f 16/34/11 17/2/11 18/35/11
f 19/36/12 20/37/12 21/38/12
f 22/39/13 23/40/13 24/19/13
f 7/26/14 1/21/14 3/23/14 8/27/14
f 2/41/15 4/24/15 6/14/15 3/13/15
f 5/25/16 10/29/16 12/15/16 6/14/16
f 11/18/17 9/17/17 8/16/17 12/15/17
f 19/36/18 7/26/18 9/28/18 20/37/18
f 10/42/19 22/39/19 24/19/19 11/18/19
f 23/6/20 21/5/20 20/20/20 24/19/20
f 13/31/21 19/36/21 21/5/21 14/8/21
f 22/9/22 16/12/22 18/7/22 23/6/22
f 17/2/23 15/1/23 14/8/23 18/7/23
f 1/21/24 13/31/24 15/33/24 2/22/24
f 16/34/25 5/43/25 4/3/25 17/2/25
f 7/26/26 19/36/26 13/31/26 1/21/26
o Cube.141
v -1.577079 0.461175 0.385990
v -1.892050 4.803462 0.361352
v -1.642029 0.461175 0.166190
v -2.131783 4.803462 -0.454905
v -1.305821 0.461175 0.306322
v -1.054196 4.803462 0.115276
v -1.370043 0.461175 0.086308
v -1.293930 4.803462 -0.700981
v -1.768216 1.298804 0.065866
v -1.965769 2.136432 -0.240807
v -2.087598 2.971428 -0.343451
v -2.043826 3.459262 -0.092206
v -2.300644 4.022949 -0.971813
v -2.273754 3.147608 -0.965433
v -2.100414 2.136432 -0.699254
v -1.867965 1.298804 -0.273272
v -1.431406 4.022949 -1.227107
v -1.450575 3.147608 -1.207199
v -1.452449 2.136432 -0.889560
v -1.417630 1.298804 -0.405535
v -1.171787 3.459262 -0.348322
v -1.270828 2.971428 -0.583335
v -1.317804 2.136432 -0.431113
v -1.318147 1.298804 -0.066318
v -1.881477 3.589376 0.234592
v -1.791849 4.531036 0.702520
v -0.953996 4.531036 0.456445
v -1.131636 3.589376 0.014365
v 0.982235 0.461175 0.385990
v 1.297205 4.803463 0.361352
v 1.047185 0.461175 0.166190
v 1.536938 4.803463 -0.454905
v 0.710976 0.461175 0.306322
v 0.459352 4.803463 0.115276
v 0.775199 0.461175 0.086308
v 0.699085 4.803463 -0.700981
v 1.173372 1.298804 0.065866
v 1.370924 2.136432 -0.240807
v 1.492753 2.971429 -0.343451
v 1.448981 3.459262 -0.092206
v 1.705799 4.022949 -0.971813
v 1.678909 3.147608 -0.965433
v 1.505569 2.136432 -0.699254
v 1.273120 1.298804 -0.273272
v 0.836561 4.022949 -1.227107
v 0.855730 3.147608 -1.207199
v 0.857604 2.136432 -0.889560
v 0.822785 1.298804 -0.405535
v 0.576942 3.459262 -0.348322
v 0.675984 2.971428 -0.583335
v 0.722959 2.136432 -0.431113
v 0.723302 1.298804 -0.066318
v 1.286632 3.589376 0.234592
v 1.197004 4.531037 0.702520
v 0.359151 4.531037 0.456444
v 0.536791 3.589376 0.014365
vn -0.9556 -0.0206 0.2940
vn -0.9466 -0.0159 0.3220
vn -0.9583 0.0143 0.2853
vn -0.9606 -0.0057 0.2779
vn -0.2694 0.2929 -0.9174
vn -0.2312 0.5715 -0.7874
vn 0.9583 -0.0057 -0.2857
vn 0.9604 0.0143 -0.2782
vn 0.9704 -0.0159 -0.2410
vn 0.9628 -0.0206 -0.2694
vn 0.9779 -0.0454 -0.2042
vn -0.0000 -1.0000 -0.0000
vn -0.0000 1.0000 -0.0000
vn 0.0905 0.9470 0.3081
vn 0.2588 0.3958 0.8811
vn 0.2594 0.3903 0.8834
vn 0.2716 0.2661 0.9249
vn 0.2716 0.2662 0.9249
vn 0.2775 -0.1745 0.9448
vn 0.2501 -0.4610 0.8515
vn 0.9539 -0.1100 -0.2792
vn 0.9529 -0.1180 -0.2794
vn 0.9533 -0.1145 -0.2794
vn 0.9516 -0.1077 -0.2878
vn 0.9519 -0.1127 -0.2850
vn 0.9536 -0.0585 -0.2954
vn 0.9531 -0.0696 -0.2946
vn -0.2438 -0.5013 -0.8302
vn -0.2446 -0.4968 -0.8327
vn -0.2598 -0.3872 -0.8846
vn -0.2787 -0.1489 -0.9488
vn -0.9534 -0.1100 0.2809
vn -0.9530 -0.1145 0.2805
vn -0.9527 -0.1180 0.2802
vn -0.9548 -0.1127 0.2750
vn -0.9561 -0.1077 0.2725
vn -0.9610 -0.0696 0.2675
vn -0.9619 -0.0585 0.2672
vn 0.2517 -0.4498 0.8569
vn 0.1714 0.7938 0.5835
vn 0.0959 -0.9402 0.3267
vn -0.9330 -0.0454 0.3570
vn 0.9556 -0.0209 0.2940
vn 0.9606 -0.0053 0.2781
vn 0.9583 0.0143 0.2853
vn 0.9468 -0.0156 0.3216
vn 0.2688 0.3006 -0.9151
vn 0.2698 0.2888 -0.9186
vn 0.2312 0.5715 -0.7874
vn -0.9584 -0.0053 -0.2855
vn -0.9627 -0.0209 -0.2696
vn -0.9702 -0.0154 -0.2417
vn -0.9604 0.0143 -0.2782
vn -0.9779 -0.0454 -0.2042
vn -0.0842 0.9543 0.2866
vn -0.0955 0.9408 0.3252
vn -0.2588 0.3958 0.8811
vn -0.2594 0.3904 0.8833
vn -0.2595 0.3902 0.8834
vn -0.2715 0.2683 0.9243
vn -0.2718 0.2639 0.9255
vn -0.2772 -0.1793 0.9439
vn -0.2775 -0.1731 0.9450
vn -0.2501 -0.4610 0.8515
vn -0.9539 -0.1100 -0.2792
vn -0.9533 -0.1145 -0.2794
vn -0.9529 -0.1180 -0.2794
vn -0.9519 -0.1127 -0.2850
vn -0.9516 -0.1078 -0.2878
vn -0.9531 -0.0699 -0.2946
vn -0.9536 -0.0583 -0.2954
vn 0.2438 -0.5013 -0.8302
vn 0.2446 -0.4966 -0.8328
vn 0.2445 -0.4969 -0.8326
vn 0.2601 -0.3844 -0.8857
vn 0.2595 -0.3900 -0.8835
vn 0.2787 -0.1474 -0.9490
vn 0.2786 -0.1504 -0.9486
vn 0.9534 -0.1100 0.2809
vn 0.9527 -0.1179 0.2802
vn 0.9530 -0.1146 0.2805
vn 0.9561 -0.1079 0.2726
vn 0.9548 -0.1125 0.2750
vn 0.9619 -0.0586 0.2672
vn 0.9610 -0.0697 0.2675
vn -0.2517 -0.4498 0.8569
vn -0.1714 0.7938 0.5835
vn -0.0959 -0.9402 0.3267
vn 0.9330 -0.0454 0.3570
vt 0.575000 0.000000
vt 0.625000 0.000000
vt 0.625000 0.250000
vt 0.575000 0.250000
vt 0.625000 0.500000
vt 0.575000 0.500000
vt 0.625000 0.750000
vt 0.575000 0.750000
vt 0.125000 0.500000
vt 0.375000 0.500000
vt 0.375000 0.750000
vt 0.125000 0.750000
vt 0.875000 0.500000
vt 0.875000 0.750000
vt 0.425000 0.750000
vt 0.425000 1.000000
vt 0.375000 1.000000
vt 0.475000 0.750000
vt 0.475000 1.000000
vt 0.525000 0.750000
vt 0.525000 1.000000
vt 0.575000 1.000000
vt 0.425000 0.500000
vt 0.475000 0.500000
vt 0.525000 0.500000
vt 0.375000 0.250000
vt 0.425000 0.250000
vt 0.475000 0.250000
vt 0.525000 0.250000
vt 0.375000 0.000000
vt 0.425000 0.000000
vt 0.475000 0.000000
vt 0.525000 0.000000
vt 0.625000 1.000000
s 1
f 36/44/27 26/45/28 28/46/29 37/47/30
f 37/47/31 28/46/32 32/48/32 41/49/31
f 41/49/33 32/48/34 30/50/35 45/51/36
f 45/51/36 30/50/35 51/50/37 52/51/37
f 27/52/38 31/53/38 29/54/38 25/55/38
f 32/48/39 28/56/39 26/57/40 30/50/40
f 29/54/41 48/58/42 33/59/42 25/60/41
f 48/58/42 47/61/43 34/62/44 33/59/42
f 47/61/43 46/63/45 35/64/45 34/62/44
f 46/63/45 45/51/46 36/65/46 35/64/45
f 31/53/47 44/66/48 48/58/49 29/54/47
f 44/66/48 43/67/50 47/61/51 48/58/49
f 43/67/50 42/68/52 46/63/53 47/61/51
f 42/68/52 41/49/33 45/51/36 46/63/53
f 27/69/54 40/70/55 44/66/55 31/53/54
f 40/70/55 39/71/56 43/67/56 44/66/55
f 39/71/56 38/72/57 42/68/57 43/67/56
f 38/72/57 37/47/31 41/49/31 42/68/57
f 25/73/58 33/74/59 40/70/60 27/69/58
f 33/74/59 34/75/61 39/71/62 40/70/60
f 34/75/61 35/76/63 38/72/64 39/71/62
f 35/76/63 36/44/27 37/47/30 38/72/64
f 52/51/65 51/50/65 50/77/65 49/65/65
f 30/50/40 26/57/40 50/57/66 51/50/66
f 36/65/67 45/51/67 52/51/67 49/65/67
f 26/45/28 36/44/27 49/44/68 50/45/68
f 64/44/69 65/47/70 56/46/71 54/45/72
f 65/47/73 69/49/74 60/48/75 56/46/75
f 69/49/76 73/51/77 58/50/78 60/48/79
f 73/51/77 80/51/80 79/50/80 58/50/78
f 55/52/38 53/55/38 57/54/38 59/53/38
f 60/48/39 58/50/81 54/57/82 56/56/39
f 57/54/83 53/60/83 61/59/84 76/58/85
f 76/58/85 61/59/84 62/62/86 75/61/87
f 75/61/87 62/62/86 63/64/88 74/63/89
f 74/63/89 63/64/88 64/65/90 73/51/90
f 59/53/91 57/54/91 76/58/92 72/66/93
f 72/66/93 76/58/92 75/61/94 71/67/95
f 71/67/95 75/61/94 74/63/96 70/68/97
f 70/68/97 74/63/96 73/51/77 69/49/76
f 55/69/98 59/53/98 72/66/99 68/70/100
f 68/70/100 72/66/99 71/67/101 67/71/102
f 67/71/102 71/67/101 70/68/103 66/72/104
f 66/72/104 70/68/103 69/49/74 65/47/73
f 53/73/105 55/69/105 68/70/106 61/74/107
f 61/74/107 68/70/106 67/71/108 62/75/109
f 62/75/109 67/71/108 66/72/110 63/76/111
f 63/76/111 66/72/110 65/47/70 64/44/69
f 80/51/112 77/65/112 78/77/112 79/50/112
f 58/50/81 79/50/113 78/57/113 54/57/82
f 64/65/114 77/65/114 80/51/114 73/51/114
f 54/45/72 78/45/115 77/44/115 64/44/69
o Cube.142
v -0.105909 5.029037 1.384890
v -0.105909 5.203424 1.384890
v -0.105909 5.029037 0.838104
v -0.105909 5.203424 0.838104
v 0.068478 5.029037 1.384890
v 0.068478 5.203424 1.384890
v 0.068478 5.029037 0.838104
v 0.068478 5.203424 0.838104
v -0.488935 5.029037 1.384890
v -0.488935 5.203424 1.384890
v -0.488935 5.029037 0.838104
v -0.488935 5.203424 0.838104
v -0.663323 5.029037 1.384890
v -0.663323 5.203424 1.384890
v -0.663323 5.029037 0.838104
v -0.663323 5.203424 0.838104
vn -1.0000 -0.0000 -0.0000
vn -0.0000 -0.0000 -1.0000
vn 1.0000 -0.0000 -0.0000
vn -0.0000 -0.0000 1.0000
vn -0.0000 -1.0000 -0.0000
vn -0.0000 1.0000 -0.0000
vt 0.375000 0.000000
vt 0.625000 0.000000
vt 0.625000 0.250000
vt 0.375000 0.250000
vt 0.625000 0.500000
vt 0.375000 0.500000
vt 0.625000 0.750000
vt 0.375000 0.750000
vt 0.625000 1.000000
vt 0.375000 1.000000
vt 0.125000 0.500000
vt 0.125000 0.750000
vt 0.875000 0.500000
vt 0.875000 0.750000
s 0
f 81/78/116 82/79/116 84/80/116 83/81/116
f 83/81/117 84/80/117 88/82/117 87/83/117
f 87/83/118 88/82/118 86/84/118 85/85/118
f 85/85/119 86/84/119 82/86/119 81/87/119
f 83/88/120 87/83/120 85/85/120 81/89/120
f 88/82/121 84/90/121 82/91/121 86/84/121
f 89/78/118 91/81/118 92/80/118 90/79/118
f 91/81/117 95/83/117 96/82/117 92/80/117
f 95/83/116 93/85/116 94/84/116 96/82/116
f 93/85/119 89/87/119 90/86/119 94/84/119
f 91/88/120 89/89/120 93/85/120 95/83/120
f 96/82/121 94/84/121 90/91/121 92/90/121
o Cube.143
v -0.387585 5.424724 1.384890
v -0.387585 5.599111 1.384890
v -0.387585 5.424724 0.838104
v -0.387585 5.599111 0.838104
v -0.213197 5.424724 1.384890
v -0.213197 5.599111 1.384890
v -0.213197 5.424724 0.838104
v -0.213197 5.599111 0.838104
vn -1.0000 -0.0000 -0.0000
vn -0.0000 -0.0000 -1.0000
vn 1.0000 -0.0000 -0.0000
vn -0.0000 -0.0000 1.0000
vn -0.0000 -1.0000 -0.0000
vn -0.0000 1.0000 -0.0000
vt 0.375000 0.000000
vt 0.625000 0.000000
vt 0.625000 0.250000
vt 0.375000 0.250000
vt 0.625000 0.500000
vt 0.375000 0.500000
vt 0.625000 0.750000
vt 0.375000 0.750000
vt 0.625000 1.000000
vt 0.375000 1.000000
vt 0.125000 0.500000
vt 0.125000 0.750000
vt 0.875000 0.500000
vt 0.875000 0.750000
s 0
f 97/92/122 98/93/122 100/94/122 99/95/122
f 99/95/123 100/94/123 104/96/123 103/97/123
f 103/97/124 104/96/124 102/98/124 101/99/124
f 101/99/125 102/98/125 98/100/125 97/101/125
f 99/102/126 103/97/126 101/99/126 97/103/126
f 104/96/127 100/104/127 98/105/127 102/98/127
