# Blender 4.1.1
# www.blender.org
o Cube.110
v -1.061144 5.867407 1.049617
v -1.061144 6.018039 1.049617
v -1.061144 5.867407 0.007463
v -1.061144 6.018039 0.007463
v 0.938856 5.867407 1.049617
v 0.938856 6.018039 1.049617
v 0.938856 5.867407 0.007463
v 0.938856 6.018039 0.007463
v -0.061144 6.192329 0.007463
v -0.061144 6.342961 0.007463
v -0.061159 6.180483 1.036946
v -0.061144 6.342961 1.049617
v -0.824796 5.944202 0.007463
v -0.824796 6.094834 1.049617
v -0.824796 6.094834 0.007463
v -0.788866 5.943956 1.049061
v 0.695089 6.097244 0.007463
v 0.659159 5.946366 1.049149
v 0.695089 5.946612 0.007463
v 0.695089 6.097244 1.049617
v 0.162568 5.077993 0.225093
v -0.062454 5.077993 0.225093
v -0.276565 5.112301 0.520172
v -0.061819 5.287021 0.698463
v -0.290965 5.077993 0.225093
v 0.148260 5.112719 0.519843
v 0.162568 4.866416 0.225093
v -0.062454 4.866416 0.225093
v -0.290965 4.866416 0.494091
v -0.062454 4.866416 0.494091
v -0.290965 4.866416 0.225093
v 0.162568 4.866416 0.494091
v -0.061799 5.635161 0.116278
v -0.557880 5.511098 0.116278
v -0.117344 5.572429 0.995520
v 0.393107 5.512422 0.773351
v -0.522154 5.511217 0.773418
v 0.428829 5.512303 0.116278
v -0.824796 5.944202 1.049617
v -0.061144 6.192329 1.049617
v 0.695089 5.946612 1.049617
v -0.290965 5.077993 0.494091
v -0.062454 5.233623 0.620081
v 0.162568 5.077993 0.494091
v 0.428829 5.512303 0.771854
v -0.557880 5.511097 0.771854
vn -1.0000 -0.0000 -0.0000
vn -0.0000 -0.0000 -1.0000
vn 1.0000 -0.0000 -0.0000
vn -0.0000 -0.0000 1.0000
vn -0.3090 -0.9511 -0.0000
vn -0.3090 0.9511 -0.0000
vn 0.3090 0.9511 -0.0000
vn 0.1992 -0.6467 0.7363
vn 0.3090 -0.9511 -0.0000
vn 0.0352 -0.2055 -0.9780
vn -0.2083 -0.6670 0.7154
vn -0.8513 -0.5247 -0.0000
vn 0.8525 -0.5227 -0.0000
vn -0.0352 -0.2052 -0.9781
vn -0.0000 -1.0000 -0.0000
vn 0.1961 -0.2086 0.9581
vn -0.1932 -0.2087 0.9587
vn -0.0588 -0.1989 -0.9783
vn -0.0947 -0.3076 0.9468
vn 0.0588 -0.1992 -0.9782
vn 0.0861 -0.3144 0.9454
vn 0.1604 -0.4719 0.8669
vn -0.1597 -0.4692 0.8685
vn 0.1440 -0.7680 0.6241
vn -0.1397 -0.7648 0.6289
vn 0.0130 -0.5432 0.8395
vn -0.0654 -0.5652 0.8224
vn 0.0584 -0.5616 0.8254
vn -0.0128 -0.5441 0.8389
vt 0.375000 0.000000
vt 0.625000 0.000000
vt 0.625000 0.250000
vt 0.375000 0.250000
vt 0.375000 0.469529
vt 0.625000 0.469529
vt 0.625000 0.500000
vt 0.375000 0.500000
vt 0.625000 0.750000
vt 0.375000 0.750000
vt 0.375000 0.970456
vt 0.625000 0.970456
vt 0.625000 1.000000
vt 0.375000 1.000000
vt 0.344529 0.500000
vt 0.344529 0.750000
vt 0.845456 0.500000
vt 0.875000 0.500000
vt 0.875000 0.750000
vt 0.845456 0.750000
vt 0.655471 0.500000
vt 0.750000 0.500000
vt 0.750000 0.750000
vt 0.655471 0.750000
vt 0.375000 0.786671
vt 0.375000 0.875000
vt 0.375000 0.870113
vt 0.375000 0.790978
vt 0.375000 0.780471
vt 0.625000 0.780471
vt 0.625000 0.875000
vt 0.375000 0.279543
vt 0.625000 0.279544
vt 0.625000 0.375000
vt 0.375000 0.375000
vt 0.125000 0.500000
vt 0.154544 0.500000
vt 0.154544 0.750000
vt 0.125000 0.750000
vt 0.375000 0.963722
vt 0.375000 0.959970
vt 0.250000 0.500000
vt 0.250000 0.750000
vt 0.375000 0.874869
vt 0.375000 0.965941
vt 0.375000 0.784728
s 0
f 1/1/1 2/2/1 4/3/1 3/4/1
f 19/5/2 17/6/2 8/7/2 7/8/2
f 7/8/3 8/7/3 6/9/3 5/10/3
f 39/11/4 14/12/4 2/13/4 1/14/4
f 19/15/5 7/8/5 5/10/5 41/16/5
f 15/17/6 4/18/6 2/19/6 14/20/6
f 17/21/7 10/22/7 12/23/7 20/24/7
f 36/25/8 35/26/8 24/27/8 26/28/8
f 41/29/4 20/30/4 12/31/4 40/26/4
f 13/32/2 15/33/2 10/34/2 9/35/2
f 3/4/2 4/3/2 15/33/2 13/32/2
f 3/36/9 13/37/9 39/38/9 1/39/9
f 10/22/6 15/17/6 14/20/6 12/23/6
f 40/26/4 12/31/4 14/12/4 39/11/4
f 5/10/4 6/9/4 20/30/4 41/29/4
f 8/7/7 17/21/7 20/24/7 6/9/7
f 34/32/10 33/35/10 22/35/10 25/32/10
f 9/35/2 10/34/2 17/6/2 19/5/2
f 42/38/1 25/37/1 31/37/1 29/38/1
f 21/15/3 44/16/3 32/16/3 27/15/3
f 35/26/11 37/40/11 23/41/11 24/27/11
f 46/38/12 34/37/12 25/37/12 42/38/12
f 38/15/13 45/16/13 44/16/13 21/15/13
f 33/35/14 38/5/14 21/5/14 22/35/14
f 31/37/15 28/42/15 30/43/15 29/38/15
f 28/42/15 27/15/15 32/16/15 30/43/15
f 22/35/2 21/5/2 27/5/2 28/35/2
f 44/29/16 43/26/16 30/26/16 32/29/16
f 25/32/2 22/35/2 28/35/2 31/32/2
f 43/26/17 42/11/17 29/11/17 30/26/17
f 9/35/18 19/5/18 38/5/18 33/35/18
f 19/15/13 41/16/13 45/16/13 38/15/13
f 39/38/12 13/37/12 34/37/12 46/38/12
f 11/44/19 16/45/19 37/40/19 35/26/19
f 13/32/20 9/35/20 33/35/20 34/32/20
f 18/46/21 11/44/21 35/26/21 36/25/21
f 16/45/22 11/44/22 40/26/22 39/11/22
f 11/44/23 18/46/23 41/29/23 40/26/23
f 24/27/24 23/41/24 42/11/24 43/26/24
f 26/28/25 24/27/25 43/26/25 44/29/25
f 18/46/26 36/25/26 45/29/26 41/29/26
f 23/41/27 37/40/27 46/11/27 42/11/27
f 36/25/28 26/28/28 44/29/28 45/29/28
f 37/40/29 16/45/29 39/11/29 46/11/29
o Cube.115
v -0.492367 3.168933 0.685777
v -0.492367 4.679286 0.239369
v -0.492367 3.003355 0.125571
v -0.492367 4.513709 -0.320838
v 0.370078 3.168933 0.685777
v 0.370078 4.679286 0.239369
v 0.370078 3.003355 0.125571
v 0.370078 4.513709 -0.320838
vn -1.0000 -0.0000 -0.0000
vn -0.0000 -0.2834 -0.9590
vn 1.0000 -0.0000 -0.0000
vn -0.0000 0.2834 0.9590
vn -0.0000 -0.9590 0.2834
vn -0.0000 0.9590 -0.2834
vt 0.375000 0.000000
vt 0.625000 0.000000
vt 0.625000 0.250000
vt 0.375000 0.250000
vt 0.625000 0.500000
vt 0.375000 0.500000
vt 0.625000 0.750000
vt 0.375000 0.750000
vt 0.625000 1.000000
vt 0.375000 1.000000
vt 0.125000 0.500000
vt 0.125000 0.750000
vt 0.875000 0.500000
vt 0.875000 0.750000
s 0
f 47/47/30 48/48/30 50/49/30 49/50/30
f 49/50/31 50/49/31 54/51/31 53/52/31
f 53/52/32 54/51/32 52/53/32 51/54/32
f 51/54/33 52/53/33 48/55/33 47/56/33
f 49/57/34 53/52/34 51/54/34 47/58/34
f 54/51/35 50/59/35 48/60/35 52/53/35
o Cube.116
v 0.382276 3.631959 3.491876
v 0.417359 3.763835 3.506426
v 0.514776 3.815936 1.504769
v 0.549859 3.947812 1.519318
v 0.514640 3.596138 3.497386
v 0.549723 3.728014 3.511935
v 0.647140 3.780115 1.510278
v 0.682223 3.911992 1.524828
vn -0.9645 0.2610 -0.0401
vn 0.0663 0.0920 -0.9936
vn 0.9645 -0.2610 0.0401
vn -0.0663 -0.0920 0.9936
vn -0.2556 -0.9609 -0.1060
vn 0.2556 0.9609 0.1060
vt 0.375000 0.000000
vt 0.625000 0.000000
vt 0.625000 0.250000
vt 0.375000 0.250000
vt 0.625000 0.500000
vt 0.375000 0.500000
vt 0.625000 0.750000
vt 0.375000 0.750000
vt 0.625000 1.000000
vt 0.375000 1.000000
vt 0.125000 0.500000
vt 0.125000 0.750000
vt 0.875000 0.500000
vt 0.875000 0.750000
s 0
f 55/61/36 56/62/36 58/63/36 57/64/36
f 57/64/37 58/63/37 62/65/37 61/66/37
f 61/66/38 62/65/38 60/67/38 59/68/38
f 59/68/39 60/67/39 56/69/39 55/70/39
f 57/71/40 61/66/40 59/68/40 55/72/40
f 62/65/41 58/73/41 56/74/41 60/67/41
o Cube.117
v 0.727441 4.125323 3.432435
v 0.722179 4.262278 3.425392
v 0.704036 4.021727 1.435256
v 0.698775 4.158681 1.428214
v 0.864567 4.130495 3.430559
v 0.859305 4.267449 3.423517
v 0.841162 4.026898 1.433381
v 0.835901 4.163853 1.426339
vn -0.9992 -0.0377 0.0137
vn -0.0117 -0.0518 -0.9986
vn 0.9992 0.0377 -0.0137
vn 0.0117 0.0518 0.9986
vn 0.0383 -0.9979 0.0513
vn -0.0383 0.9979 -0.0513
vt 0.375000 0.000000
vt 0.625000 0.000000
vt 0.625000 0.250000
vt 0.375000 0.250000
vt 0.625000 0.500000
vt 0.375000 0.500000
vt 0.625000 0.750000
vt 0.375000 0.750000
vt 0.625000 1.000000
vt 0.375000 1.000000
vt 0.125000 0.500000
vt 0.125000 0.750000
vt 0.875000 0.500000
vt 0.875000 0.750000
s 0
f 63/75/42 64/76/42 66/77/42 65/78/42
f 65/78/43 66/77/43 70/79/43 69/80/43
f 69/80/44 70/79/44 68/81/44 67/82/44
f 67/82/45 68/81/45 64/83/45 63/84/45
f 65/85/46 69/80/46 67/82/46 63/86/46
f 70/79/47 66/87/47 64/88/47 68/81/47
o Cube.118
v 1.062514 3.631477 3.435526
v 1.091887 3.765426 3.440885
v 0.743607 3.780175 1.466722
v 0.772980 3.914124 1.472081
v 1.194772 3.603417 3.411983
v 1.224145 3.737366 3.417342
v 0.875865 3.752115 1.443180
v 0.905238 3.886064 1.448539
vn -0.9637 0.2045 0.1715
vn -0.1595 0.0743 -0.9844
vn 0.9637 -0.2045 -0.1715
vn 0.1595 -0.0743 0.9844
vn -0.2140 -0.9760 -0.0390
vn 0.2140 0.9760 0.0390
vt 0.375000 0.000000
vt 0.625000 0.000000
vt 0.625000 0.250000
vt 0.375000 0.250000
vt 0.625000 0.500000
vt 0.375000 0.500000
vt 0.625000 0.750000
vt 0.375000 0.750000
vt 0.625000 1.000000
vt 0.375000 1.000000
vt 0.125000 0.500000
vt 0.125000 0.750000
vt 0.875000 0.500000
vt 0.875000 0.750000
s 0
f 71/89/48 72/90/48 74/91/48 73/92/48
f 73/92/49 74/91/49 78/93/49 77/94/49
f 77/94/50 78/93/50 76/95/50 75/96/50
f 75/96/51 76/95/51 72/97/51 71/98/51
f 73/99/52 77/94/52 75/96/52 71/100/52
f 78/93/53 74/101/53 72/102/53 76/95/53
o Cube.119
v -0.895063 1.910271 0.366444
v -0.705667 2.887784 0.363111
v -0.649651 2.300898 -0.327966
v -0.624790 2.429213 -0.328403
v -0.484320 1.830698 0.369383
v -0.294924 2.808212 0.366051
v -0.556506 2.282853 -0.327299
v -0.531644 2.411168 -0.327736
vn -0.9547 0.1842 -0.2338
vn 0.0063 -0.0046 -1.0000
vn 0.9575 -0.1863 -0.2201
vn -0.0063 0.0046 1.0000
vn -0.1581 -0.8357 -0.5260
vn 0.1648 0.8308 -0.5317
vt 0.375000 0.000000
vt 0.625000 0.000000
vt 0.625000 0.250000
vt 0.375000 0.250000
vt 0.625000 0.500000
vt 0.375000 0.500000
vt 0.625000 0.750000
vt 0.375000 0.750000
vt 0.625000 1.000000
vt 0.375000 1.000000
vt 0.125000 0.500000
vt 0.125000 0.750000
vt 0.875000 0.500000
vt 0.875000 0.750000
s 0
f 79/103/54 80/104/54 82/105/54 81/106/54
f 81/106/55 82/105/55 86/107/55 85/108/55
f 85/108/56 86/107/56 84/109/56 83/110/56
f 83/110/57 84/109/57 80/111/57 79/112/57
f 81/113/58 85/108/58 83/110/58 79/114/58
f 86/107/59 82/115/59 80/116/59 84/109/59
o Cube.120
v -0.522588 1.038342 -0.311031
v -0.360285 1.829225 0.051401
v -0.698640 1.278791 0.181752
v -0.677335 1.382608 0.229327
v -0.879226 1.141912 -0.377328
v -0.716924 1.932795 -0.014896
v -0.779516 1.302278 0.166718
v -0.758211 1.406094 0.214293
vn 0.7974 -0.3789 0.4697
vn -0.2695 -0.3549 0.8952
vn -0.9807 0.1375 0.1392
vn 0.2695 0.3549 -0.8952
vn -0.3187 -0.8918 0.3213
vn -0.0532 0.4019 0.9141
vt 0.375000 0.000000
vt 0.625000 0.000000
vt 0.625000 0.250000
vt 0.375000 0.250000
vt 0.625000 0.500000
vt 0.375000 0.500000
vt 0.625000 0.750000
vt 0.375000 0.750000
vt 0.625000 1.000000
vt 0.375000 1.000000
vt 0.125000 0.500000
vt 0.125000 0.750000
vt 0.875000 0.500000
vt 0.875000 0.750000
s 0
f 87/117/60 88/118/60 90/119/60 89/120/60
f 89/120/61 90/119/61 94/121/61 93/122/61
f 93/122/62 94/121/62 92/123/62 91/124/62
f 91/124/63 92/123/63 88/125/63 87/126/63
f 89/127/64 93/122/64 91/124/64 87/128/64
f 94/121/65 90/129/65 88/130/65 92/123/65
o Cube.121
v 0.337596 1.962337 1.167321
v 0.004772 2.811376 0.767603
v 0.425930 2.121118 0.353683
v 0.382241 2.232568 0.301214
v 0.728837 2.110119 1.155458
v 0.396013 2.959158 0.755740
v 0.514653 2.154631 0.350993
v 0.470964 2.266081 0.298523
vn -0.8840 -0.4313 -0.1802
vn 0.1176 -0.3849 -0.9154
vn 0.9374 0.2567 -0.2354
vn -0.1176 0.3849 0.9154
vn 0.3459 -0.9272 -0.1434
vn -0.2215 0.5202 -0.8248
vt 0.375000 0.000000
vt 0.625000 0.000000
vt 0.625000 0.250000
vt 0.375000 0.250000
vt 0.625000 0.500000
vt 0.375000 0.500000
vt 0.625000 0.750000
vt 0.375000 0.750000
vt 0.625000 1.000000
vt 0.375000 1.000000
vt 0.125000 0.500000
vt 0.125000 0.750000
vt 0.875000 0.500000
vt 0.875000 0.750000
s 0
f 95/131/66 96/132/66 98/133/66 97/134/66
f 97/134/67 98/133/67 102/135/67 101/136/67
f 101/136/68 102/135/68 100/137/68 99/138/68
f 99/138/69 100/137/69 96/139/69 95/140/69
f 97/141/70 101/136/70 99/138/70 95/142/70
f 102/135/71 98/143/71 96/144/71 100/137/71
o Cube.122
v 0.393711 1.151610 1.234141
v 0.301294 1.885579 0.969403
v 0.446542 1.338348 0.720527
v 0.434410 1.434694 0.685775
v 0.775707 1.176162 1.168858
v 0.683290 1.910130 0.904120
v 0.533168 1.343916 0.705722
v 0.521037 1.440261 0.670971
vn -0.9692 -0.1818 -0.1658
vn -0.1357 -0.3512 -0.9264
vn 0.8745 -0.0633 -0.4809
vn 0.1357 0.3512 0.9264
vn 0.0020 -0.9399 -0.3415
vn -0.1775 0.4859 -0.8558
vt 0.375000 0.000000
vt 0.625000 0.000000
vt 0.625000 0.250000
vt 0.375000 0.250000
vt 0.625000 0.500000
vt 0.375000 0.500000
vt 0.625000 0.750000
vt 0.375000 0.750000
vt 0.625000 1.000000
vt 0.375000 1.000000
vt 0.125000 0.500000
vt 0.125000 0.750000
vt 0.875000 0.500000
vt 0.875000 0.750000
s 0
f 103/145/72 104/146/72 106/147/72 105/148/72
f 105/148/73 106/147/73 110/149/73 109/150/73
f 109/150/74 110/149/74 108/151/74 107/152/74
f 107/152/75 108/151/75 104/153/75 103/154/75
f 105/155/76 109/150/76 107/152/76 103/156/76
f 110/149/77 106/157/77 104/158/77 108/151/77
