# Blender 4.1.1
# www.blender.org
o Cube.098
v -0.668395 2.832223 1.370944
v -1.061144 2.832223 0.981428
v -0.667958 3.469851 1.370944
v -1.061144 3.469851 0.981120
v -1.061144 2.832223 0.075652
v -0.668395 2.832223 -0.313864
v -1.061144 3.469851 0.075960
v -0.667958 3.469851 -0.313864
v 0.938856 2.832223 0.981428
v 0.546106 2.832223 1.370944
v 0.938856 3.469851 0.981120
v 0.545670 3.469851 1.370944
v 0.546106 2.832223 -0.313864
v 0.938856 2.832223 0.075652
v 0.545670 3.469851 -0.313864
v 0.938856 3.469851 0.075960
v -0.675689 4.026976 0.603377
v -0.282009 4.026976 0.993536
v -0.282009 4.026976 -0.030729
v -0.675689 4.026976 0.359429
v 0.540195 4.026976 0.359429
v 0.146515 4.026976 -0.030729
v 0.146515 4.026976 0.993536
v 0.540195 4.026976 0.603377
v -0.805135 3.712705 0.262695
v -0.441054 3.712705 -0.098201
v 0.682847 3.712705 0.262695
v 0.318766 3.712705 -0.098201
v 0.318766 3.712705 1.155281
v 0.682847 3.712705 0.794385
v -0.441054 3.712705 1.155281
v -0.805135 3.712705 0.794385
vn -0.0000 -0.0000 1.0000
vn -0.0000 0.2099 -0.9777
vn 0.9106 0.4133 -0.0000
vn -0.9246 0.3809 -0.0000
vn -1.0000 -0.0000 -0.0000
vn 1.0000 -0.0000 -0.0000
vn -0.0000 1.0000 -0.0000
vn -0.0000 0.4576 0.8891
vn -0.0000 -0.0000 -1.0000
vn -0.7041 0.0004 0.7101
vn -0.7041 0.0004 -0.7101
vn 0.7041 0.0004 -0.7101
vn 0.7041 0.0004 0.7101
vn -0.6275 0.4534 -0.6331
vn 0.4317 0.7900 -0.4354
vn 0.4317 0.7900 0.4354
vn -0.5708 0.5852 0.5759
vn -0.0000 -1.0000 -0.0000
vn -0.4317 0.7900 0.4354
vn 0.5628 0.6007 0.5678
vn 0.6199 0.4739 -0.6254
vn -0.4317 0.7900 -0.4354
vn -0.0000 0.6640 0.7477
vn -0.6882 0.7255 -0.0000
vn 0.6882 0.7255 -0.0000
vn -0.0000 0.6640 -0.7477
vt 0.375000 0.799094
vt 0.625000 0.799148
vt 0.625000 0.950852
vt 0.375000 0.950906
vt 0.625000 0.434953
vt 0.625000 0.315047
vt 0.625000 0.330945
vt 0.625000 0.419055
vt 0.625000 0.673464
vt 0.625000 0.576536
vt 0.625000 0.595229
vt 0.625000 0.654771
vt 0.625000 0.173464
vt 0.625000 0.076536
vt 0.625000 0.095229
vt 0.625000 0.154771
vt 0.375000 0.057798
vt 0.625000 0.057844
vt 0.625000 0.192156
vt 0.375000 0.192202
vt 0.375000 0.557798
vt 0.625000 0.557844
vt 0.625000 0.692156
vt 0.375000 0.692202
vt 0.705945 0.500000
vt 0.794055 0.500000
vt 0.875000 0.595229
vt 0.875000 0.654771
vt 0.794055 0.750000
vt 0.705945 0.750000
vt 0.625000 0.934953
vt 0.625000 0.815047
vt 0.625000 0.830945
vt 0.625000 0.919055
vt 0.375000 0.299094
vt 0.625000 0.299148
vt 0.625000 0.450852
vt 0.375000 0.450906
vt 0.375000 0.000000
vt 0.625000 0.000000
vt 0.625000 0.557844
vt 0.125000 0.557798
vt 0.174094 0.500000
vt 0.325906 0.500000
vt 0.375000 0.692202
vt 0.325906 0.750000
vt 0.174094 0.750000
vt 0.125000 0.692202
vt 0.625000 0.057844
s 0
f 10/1/1 12/2/1 3/3/1 1/4/1
f 28/5/2 26/6/2 19/7/2 22/8/2
f 30/9/3 27/10/3 21/11/3 24/12/3
f 25/13/4 32/14/4 17/15/4 20/16/4
f 2/17/5 4/18/5 7/19/5 5/20/5
f 14/21/6 16/22/6 11/23/6 9/24/6
f 21/11/7 22/25/7 19/26/7 20/27/7 17/28/7 18/29/7 23/30/7 24/12/7
f 31/31/8 29/32/8 23/33/8 18/34/8
f 6/35/9 8/36/9 15/37/9 13/38/9
f 1/39/10 3/40/10 4/18/10 2/17/10
f 8/36/11 6/35/11 5/20/11 7/19/11
f 16/22/12 14/21/12 13/38/12 15/37/12
f 12/2/13 10/1/13 9/24/13 11/23/13
f 25/13/14 20/16/14 19/7/14 26/6/14
f 27/10/15 16/41/15 15/37/15 28/5/15
f 29/32/16 12/2/16 11/23/16 30/9/16
f 31/40/17 18/40/17 17/15/17 32/14/17
f 5/42/18 6/43/18 13/44/18 14/21/18 9/45/18 10/46/18 1/47/18 2/48/18
f 3/40/19 31/40/19 32/14/19 4/49/19
f 23/33/20 29/32/20 30/9/20 24/12/20
f 21/11/21 27/10/21 28/5/21 22/8/21
f 7/19/22 25/13/22 26/6/22 8/36/22
f 3/3/23 12/2/23 29/32/23 31/31/23
f 7/19/24 4/49/24 32/14/24 25/13/24
f 11/23/25 16/41/25 27/10/25 30/9/25
f 15/37/26 8/36/26 26/6/26 28/5/26
o Cube.099
v -0.123634 2.943498 1.435766
v -0.429426 3.312095 1.435766
v -0.123634 2.943498 1.267231
v -0.429426 3.312095 1.267231
v 0.001345 2.943498 1.435766
v 0.307138 3.312095 1.435766
v 0.001345 2.943498 1.267231
v 0.307138 3.312095 1.267231
vn -0.7696 -0.6385 -0.0000
vn -0.0000 -0.0000 -1.0000
vn 0.7696 -0.6385 -0.0000
vn -0.0000 -0.0000 1.0000
vn -0.0000 -1.0000 -0.0000
vn -0.0000 1.0000 -0.0000
vt 0.375000 0.000000
vt 0.625000 0.000000
vt 0.625000 0.250000
vt 0.375000 0.250000
vt 0.625000 0.500000
vt 0.375000 0.500000
vt 0.625000 0.750000
vt 0.375000 0.750000
vt 0.625000 1.000000
vt 0.375000 1.000000
vt 0.125000 0.500000
vt 0.125000 0.750000
vt 0.875000 0.500000
vt 0.875000 0.750000
s 0
f 33/50/27 34/51/27 36/52/27 35/53/27
f 35/53/28 36/52/28 40/54/28 39/55/28
f 39/55/29 40/54/29 38/56/29 37/57/29
f 37/57/30 38/56/30 34/58/30 33/59/30
f 35/60/31 39/55/31 37/57/31 33/61/31
f 40/54/32 36/62/32 34/63/32 38/56/32
o Cube.100
v 0.983305 3.442105 0.523860
v 0.983305 3.323319 0.523860
v 0.983305 3.442105 0.642646
v 0.983305 3.323319 0.642646
v 2.006591 3.442105 0.523860
v 2.006591 3.323319 0.523860
v 2.006591 3.442105 0.642646
v 2.006591 3.323319 0.642646
vn -1.0000 -0.0000 -0.0000
vn -0.0000 -0.0000 1.0000
vn 1.0000 -0.0000 -0.0000
vn -0.0000 -0.0000 -1.0000
vn -0.0000 1.0000 -0.0000
vn -0.0000 -1.0000 -0.0000
vt 0.375000 0.000000
vt 0.625000 0.000000
vt 0.625000 0.250000
vt 0.375000 0.250000
vt 0.625000 0.500000
vt 0.375000 0.500000
vt 0.625000 0.750000
vt 0.375000 0.750000
vt 0.625000 1.000000
vt 0.375000 1.000000
vt 0.125000 0.500000
vt 0.125000 0.750000
vt 0.875000 0.500000
vt 0.875000 0.750000
s 0
f 41/64/33 42/65/33 44/66/33 43/67/33
f 43/67/34 44/66/34 48/68/34 47/69/34
f 47/69/35 48/68/35 46/70/35 45/71/35
f 45/71/36 46/70/36 42/72/36 41/73/36
f 43/74/37 47/69/37 45/71/37 41/75/37
f 48/68/38 44/76/38 42/77/38 46/70/38
o Cube.101
v 2.075093 3.289511 0.685694
v 2.222922 3.291279 0.685694
v 2.075093 3.289511 0.537847
v 2.222922 3.291279 0.537847
v 2.085958 2.381214 0.685694
v 2.233787 2.382982 0.685694
v 2.085958 2.381214 0.537847
v 2.233787 2.382982 0.537847
vn -0.0120 0.9999 -0.0000
vn -0.0000 -0.0000 -1.0000
vn 0.0120 -0.9999 -0.0000
vn -0.0000 -0.0000 1.0000
vn -0.9999 -0.0120 -0.0000
vn 0.9999 0.0120 -0.0000
vt 0.375000 0.000000
vt 0.625000 0.000000
vt 0.625000 0.250000
vt 0.375000 0.250000
vt 0.625000 0.500000
vt 0.375000 0.500000
vt 0.625000 0.750000
vt 0.375000 0.750000
vt 0.625000 1.000000
vt 0.375000 1.000000
vt 0.125000 0.500000
vt 0.125000 0.750000
vt 0.875000 0.500000
vt 0.875000 0.750000
s 0
f 49/78/39 50/79/39 52/80/39 51/81/39
f 51/81/40 52/80/40 56/82/40 55/83/40
f 55/83/41 56/82/41 54/84/41 53/85/41
f 53/85/42 54/84/42 50/86/42 49/87/42
f 51/88/43 55/83/43 53/85/43 49/89/43
f 56/82/44 52/90/44 50/91/44 54/84/44
o Cube.102
v -2.166612 3.442105 0.523860
v -2.166612 3.323319 0.523860
v -2.166612 3.442105 0.642646
v -2.166612 3.323319 0.642646
v -1.143326 3.442105 0.523860
v -1.143326 3.323319 0.523860
v -1.143326 3.442105 0.642646
v -1.143326 3.323319 0.642646
vn -1.0000 -0.0000 -0.0000
vn -0.0000 -0.0000 1.0000
vn 1.0000 -0.0000 -0.0000
vn -0.0000 -0.0000 -1.0000
vn -0.0000 1.0000 -0.0000
vn -0.0000 -1.0000 -0.0000
vt 0.375000 0.000000
vt 0.625000 0.000000
vt 0.625000 0.250000
vt 0.375000 0.250000
vt 0.625000 0.500000
vt 0.375000 0.500000
vt 0.625000 0.750000
vt 0.375000 0.750000
vt 0.625000 1.000000
vt 0.375000 1.000000
vt 0.125000 0.500000
vt 0.125000 0.750000
vt 0.875000 0.500000
vt 0.875000 0.750000
s 0
f 57/92/45 58/93/45 60/94/45 59/95/45
f 59/95/46 60/94/46 64/96/46 63/97/46
f 63/97/47 64/96/47 62/98/47 61/99/47
f 61/99/48 62/98/48 58/100/48 57/101/48
f 59/102/49 63/97/49 61/99/49 57/103/49
f 64/96/50 60/104/50 58/105/50 62/98/50
o Cube.103
v -2.347908 3.337698 0.685694
v -2.200080 3.339467 0.685694
v -2.347908 3.337698 0.537847
v -2.200080 3.339467 0.537847
v -2.337044 2.429401 0.685694
v -2.189215 2.431170 0.685694
v -2.337044 2.429401 0.537847
v -2.189215 2.431170 0.537847
vn -0.0120 0.9999 -0.0000
vn -0.0000 -0.0000 -1.0000
vn 0.0120 -0.9999 -0.0000
vn -0.0000 -0.0000 1.0000
vn -0.9999 -0.0120 -0.0000
vn 0.9999 0.0120 -0.0000
vt 0.375000 0.000000
vt 0.625000 0.000000
vt 0.625000 0.250000
vt 0.375000 0.250000
vt 0.625000 0.500000
vt 0.375000 0.500000
vt 0.625000 0.750000
vt 0.375000 0.750000
vt 0.625000 1.000000
vt 0.375000 1.000000
vt 0.125000 0.500000
vt 0.125000 0.750000
vt 0.875000 0.500000
vt 0.875000 0.750000
s 0
f 65/106/51 66/107/51 68/108/51 67/109/51
f 67/109/52 68/108/52 72/110/52 71/111/52
f 71/111/53 72/110/53 70/112/53 69/113/53
f 69/113/54 70/112/54 66/114/54 65/115/54
f 67/116/55 71/111/55 69/113/55 65/117/55
f 72/110/56 68/118/56 66/119/56 70/112/56
o Circle.001
v -2.348120 2.232788 0.021396
v -2.447059 2.232788 0.031140
v -2.542196 2.232788 0.060000
v -2.629874 2.232788 0.106865
v -2.706725 2.232788 0.169935
v -2.769795 2.232788 0.246786
v -2.816660 2.232788 0.334464
v -2.845520 2.232788 0.429601
v -2.855264 2.232788 0.528540
v -2.845520 2.232788 0.627479
v -2.816660 2.232788 0.722616
v -2.769795 2.232788 0.810295
v -2.706725 2.232788 0.887146
v -2.629874 2.232788 0.950215
v -2.542196 2.232788 0.997081
v -2.447059 2.232788 1.025940
v -2.348120 2.232788 1.035685
v -2.249181 2.232788 1.025940
v -2.154044 2.232788 0.997081
v -2.066365 2.232788 0.950215
v -1.989514 2.232788 0.887146
v -1.926444 2.232788 0.810295
v -1.879579 2.232788 0.722616
v -1.850720 2.232788 0.627479
v -1.840975 2.232788 0.528540
v -1.850720 2.232788 0.429601
v -1.879579 2.232788 0.334464
v -1.926444 2.232788 0.246786
v -1.989514 2.232788 0.169935
v -2.066365 2.232788 0.106865
v -2.154044 2.232788 0.060000
v -2.249181 2.232788 0.031140
vn -0.0000 1.0000 -0.0000
vt 0.000000 0.000000
s 0
f 74/120/57 75/120/57 76/120/57 77/120/57 78/120/57 79/120/57 80/120/57 81/120/57 82/120/57 83/120/57 84/120/57 85/120/57 86/120/57 87/120/57 88/120/57 89/120/57 90/120/57 91/120/57 92/120/57 93/120/57 94/120/57 95/120/57 96/120/57 97/120/57 98/120/57 99/120/57 100/120/57 101/120/57 102/120/57 103/120/57 104/120/57 73/120/57
o Circle.002
v 2.127878 2.232788 0.088070
v 2.041947 2.232788 0.096534
v 1.959317 2.232788 0.121599
v 1.883166 2.232788 0.162303
v 1.816419 2.232788 0.217081
v 1.761641 2.232788 0.283828
v 1.720937 2.232788 0.359980
v 1.695872 2.232788 0.442609
v 1.687408 2.232788 0.528540
v 1.695872 2.232788 0.614471
v 1.720937 2.232788 0.697101
v 1.761641 2.232788 0.773252
v 1.816419 2.232788 0.839999
v 1.883166 2.232788 0.894777
v 1.959317 2.232788 0.935481
v 2.041947 2.232788 0.960546
v 2.127878 2.232788 0.969010
v 2.213809 2.232788 0.960546
v 2.296438 2.232788 0.935481
v 2.372590 2.232788 0.894777
v 2.439337 2.232788 0.839999
v 2.494115 2.232788 0.773252
v 2.534819 2.232788 0.697101
v 2.559884 2.232788 0.614471
v 2.568348 2.232788 0.528540
v 2.559884 2.232788 0.442609
v 2.534819 2.232788 0.359980
v 2.494115 2.232788 0.283828
v 2.439337 2.232788 0.217081
v 2.372590 2.232788 0.162303
v 2.296438 2.232788 0.121599
v 2.213809 2.232788 0.096534
vn -0.0000 1.0000 -0.0000
vt 0.000000 0.000000
s 0
f 106/121/58 107/121/58 108/121/58 109/121/58 110/121/58 111/121/58 112/121/58 113/121/58 114/121/58 115/121/58 116/121/58 117/121/58 118/121/58 119/121/58 120/121/58 121/121/58 122/121/58 123/121/58 124/121/58 125/121/58 126/121/58 127/121/58 128/121/58 129/121/58 130/121/58 131/121/58 132/121/58 133/121/58 134/121/58 135/121/58 136/121/58 105/121/58
