# Blender 4.1.1
# www.blender.org
o Cylinder.009
v 0.009743 0.175487 0.326940
v 0.009743 0.155310 0.410244
v 0.042358 0.167448 0.326940
v 0.032981 0.149583 0.410244
v 0.067501 0.145173 0.326940
v 0.050896 0.133712 0.410244
v 0.079412 0.113765 0.326940
v 0.059383 0.111333 0.410244
v 0.075363 0.080420 0.326940
v 0.056498 0.087574 0.410244
v 0.056282 0.052775 0.326940
v 0.042902 0.067877 0.410244
v 0.026539 0.037165 0.326940
v 0.021710 0.056755 0.410244
v -0.007052 0.037165 0.326940
v -0.002224 0.056755 0.410244
v -0.036795 0.052775 0.326940
v -0.023416 0.067877 0.410244
v -0.055877 0.080420 0.326940
v -0.037012 0.087574 0.410244
v -0.059926 0.113765 0.326940
v -0.039896 0.111333 0.410244
v -0.048014 0.145173 0.326940
v -0.031409 0.133712 0.410244
v -0.022871 0.167448 0.326940
v -0.013495 0.149583 0.410244
v 0.042358 0.167448 0.410244
v 0.009743 0.175487 0.410244
v 0.067501 0.145173 0.410244
v 0.079412 0.113765 0.410244
v 0.075363 0.080420 0.410244
v 0.056282 0.052775 0.410244
v 0.026539 0.037165 0.410244
v -0.007052 0.037165 0.410244
v -0.036795 0.052775 0.410244
v -0.055877 0.080420 0.410244
v -0.059926 0.113765 0.410244
v -0.048014 0.145173 0.410244
v -0.022871 0.167448 0.410244
v 0.032981 0.149583 0.382739
v 0.009743 0.155310 0.382739
v 0.050896 0.133712 0.382739
v 0.059383 0.111333 0.382739
v 0.056498 0.087574 0.382739
v 0.042902 0.067877 0.382739
v 0.021710 0.056755 0.382739
v -0.002224 0.056755 0.382739
v -0.023416 0.067877 0.382739
v -0.037012 0.087574 0.382739
v -0.039896 0.111333 0.382739
v -0.031409 0.133712 0.382739
v -0.013495 0.149583 0.382739
v -0.259057 0.023555 0.268800
v -0.203669 0.268800 0.268800
v -0.259057 0.023555 0.199241
v -0.203669 0.293607 0.199241
v 0.278543 0.023555 0.268800
v 0.223155 0.268800 0.268800
v 0.278543 0.023555 0.199241
v 0.223155 0.293607 0.199241
v -0.104512 0.369612 0.268800
v -0.104512 0.404712 0.199241
v 0.123998 0.369612 0.268800
v 0.123998 0.404712 0.199241
v -0.144511 -0.051535 0.268800
v -0.144511 -0.072216 0.199241
v 0.163998 -0.051535 0.268800
v 0.163998 -0.072216 0.199241
v -0.159649 0.069369 0.342773
v -0.124745 0.223918 0.342773
v 0.144231 0.223918 0.342773
v 0.179136 0.069369 0.342773
v 0.081745 0.287448 0.342773
v -0.062258 0.287448 0.342773
v -0.087465 0.009016 0.342773
v 0.106952 0.009016 0.342773
v -0.201090 -0.119380 0.342051
v -0.202791 -0.014947 0.353939
v -0.213834 -0.119380 0.325051
v -0.225723 -0.014947 0.323349
v -0.184090 -0.119380 0.329307
v -0.172201 -0.014947 0.331008
v -0.196834 -0.119380 0.312307
v -0.195133 -0.014947 0.300418
v -0.216296 -0.067164 0.364063
v -0.239228 -0.067164 0.333473
v -0.208638 -0.067164 0.310542
v -0.185706 -0.067164 0.341132
v 0.220576 -0.119380 0.342051
v 0.222278 -0.014947 0.353940
v 0.233320 -0.119380 0.325051
v 0.245209 -0.014947 0.323349
v 0.203576 -0.119380 0.329307
v 0.191688 -0.014947 0.331008
v 0.216320 -0.119380 0.312307
v 0.214619 -0.014947 0.300418
v 0.235782 -0.067164 0.364063
v 0.258714 -0.067164 0.333473
v 0.228124 -0.067164 0.310542
v 0.205192 -0.067164 0.341132
v -0.272483 0.023555 0.170216
v -0.214328 0.296988 0.170216
v 0.291969 0.023555 0.170216
v -0.105916 -0.072216 0.170216
v -0.272483 0.023555 0.059918
v -0.214328 0.343363 0.059918
v -0.105916 -0.072216 0.059918
v -0.272483 0.027002 -0.157232
v -0.214328 0.232618 -0.157232
v -0.105916 -0.044642 -0.157232
v -0.163276 0.047308 -0.296555
v -0.123567 0.200987 -0.252480
v -0.105916 0.009846 -0.277643
v 0.182762 0.047308 -0.296555
v 0.143053 0.200987 -0.252480
v 0.125402 0.009846 -0.277643
v 0.291969 0.027002 -0.157232
v 0.233815 0.232618 -0.157232
v 0.125402 -0.044642 -0.157232
v 0.291969 0.023555 0.059918
v 0.233815 0.343363 0.059918
v 0.125402 -0.072216 0.059918
v 0.125402 -0.072216 0.170216
v 0.095411 0.466754 0.059918
v 0.233815 0.296988 0.170216
v 0.095411 0.408159 0.170216
v -0.075925 0.408159 0.170216
v -0.075925 0.466754 0.059918
v -0.075925 0.356009 -0.157232
v 0.095411 0.356009 -0.157232
v -0.075925 0.271485 -0.236548
v 0.095411 0.271485 -0.236548
v -0.273219 -0.113964 0.239114
v -0.278470 -0.009530 0.249915
v -0.280160 -0.113964 0.219034
v -0.290961 -0.009530 0.213782
v -0.253138 -0.113964 0.232173
v -0.242337 -0.009530 0.237424
v -0.260080 -0.113964 0.212092
v -0.254828 -0.009530 0.201291
v -0.294422 -0.061747 0.255429
v -0.306913 -0.061747 0.219296
v -0.270780 -0.061747 0.206806
v -0.258290 -0.061747 0.242939
v 0.292705 -0.113964 0.239114
v 0.297957 -0.009530 0.249915
v 0.299646 -0.113964 0.219034
v 0.310447 -0.009530 0.213782
v 0.272625 -0.113964 0.232173
v 0.261824 -0.009530 0.237424
v 0.279566 -0.113964 0.212092
v 0.274314 -0.009530 0.201291
v 0.313909 -0.061747 0.255429
v 0.326399 -0.061747 0.219296
v 0.290266 -0.061747 0.206806
v 0.277776 -0.061747 0.242939
v -0.312477 -0.106836 0.114336
v -0.320970 -0.002402 0.122828
v -0.312477 -0.106836 0.093089
v -0.320970 -0.002402 0.084597
v -0.291231 -0.106836 0.114336
v -0.282739 -0.002402 0.122828
v -0.291231 -0.106836 0.093089
v -0.282739 -0.002402 0.084597
v -0.337848 -0.054619 0.122828
v -0.337848 -0.054619 0.084597
v -0.299617 -0.054619 0.084597
v -0.299617 -0.054619 0.122828
v 0.331964 -0.106836 0.114336
v 0.340456 -0.002402 0.122828
v 0.331964 -0.106836 0.093089
v 0.340456 -0.002402 0.084597
v 0.310717 -0.106836 0.114336
v 0.302225 -0.002402 0.122828
v 0.310717 -0.106836 0.093089
v 0.302225 -0.002402 0.084597
v 0.357334 -0.054619 0.122828
v 0.357334 -0.054619 0.084597
v 0.319103 -0.054619 0.084597
v 0.319103 -0.054619 0.122828
v -0.334591 -0.098129 -0.065598
v -0.343083 0.006304 -0.057106
v -0.334591 -0.098129 -0.086845
v -0.343083 0.006304 -0.095337
v -0.313344 -0.098129 -0.065598
v -0.304852 0.006304 -0.057106
v -0.313344 -0.098129 -0.086845
v -0.304852 0.006304 -0.095337
v -0.359961 -0.045912 -0.057106
v -0.359961 -0.045912 -0.095337
v -0.321730 -0.045912 -0.095337
v -0.321730 -0.045912 -0.057106
v 0.354077 -0.098129 -0.065598
v 0.362569 0.006304 -0.057106
v 0.354077 -0.098129 -0.086845
v 0.362569 0.006304 -0.095337
v 0.332831 -0.098129 -0.065598
v 0.324338 0.006304 -0.057106
v 0.332831 -0.098129 -0.086845
v 0.324338 0.006304 -0.095337
v 0.379447 -0.045912 -0.057106
v 0.379447 -0.045912 -0.095337
v 0.341217 -0.045912 -0.095337
v 0.341217 -0.045912 -0.057106
v -0.306882 -0.087844 -0.195217
v -0.318666 0.016589 -0.192902
v -0.295035 -0.087844 -0.212854
v -0.297350 0.016589 -0.224639
v -0.289244 -0.087844 -0.183370
v -0.286930 0.016589 -0.171586
v -0.277398 -0.087844 -0.201008
v -0.265613 0.016589 -0.203322
v -0.332678 -0.035628 -0.202313
v -0.311361 -0.035628 -0.234049
v -0.279625 -0.035628 -0.212733
v -0.300941 -0.035628 -0.180996
v 0.326368 -0.087844 -0.195217
v 0.338153 0.016589 -0.192902
v 0.314522 -0.087844 -0.212854
v 0.316836 0.016589 -0.224639
v 0.308731 -0.087844 -0.183370
v 0.306416 0.016589 -0.171586
v 0.296885 -0.087844 -0.201008
v 0.285100 0.016589 -0.203322
v 0.352164 -0.035628 -0.202313
v 0.330848 -0.035628 -0.234049
v 0.299111 -0.035628 -0.212733
v 0.320427 -0.035628 -0.180996
v -0.191100 -0.096163 -0.279169
v -0.203109 0.008271 -0.279007
v -0.176281 -0.096163 -0.294395
v -0.176444 0.008271 -0.306403
v -0.175875 -0.096163 -0.264350
v -0.175712 0.008271 -0.252342
v -0.161056 -0.096163 -0.279576
v -0.149047 0.008271 -0.279738
v -0.215204 -0.043946 -0.290779
v -0.188539 -0.043946 -0.318176
v -0.161142 -0.043946 -0.291510
v -0.187807 -0.043946 -0.264114
v 0.210586 -0.096163 -0.279169
v 0.222595 0.008271 -0.279007
v 0.195767 -0.096163 -0.294395
v 0.195930 0.008271 -0.306403
v 0.195361 -0.096163 -0.264350
v 0.195199 0.008271 -0.252342
v 0.180542 -0.096163 -0.279576
v 0.168533 0.008271 -0.279738
v 0.234690 -0.043946 -0.290779
v 0.208025 -0.043946 -0.318175
v 0.180628 -0.043946 -0.291510
v 0.207294 -0.043946 -0.264114
vn 0.2393 0.9709 -0.0000
vn 0.6631 0.7485 -0.0000
vn 0.9350 0.3546 -0.0000
vn 0.9927 -0.1205 -0.0000
vn 0.8230 -0.5681 -0.0000
vn 0.4647 -0.8855 -0.0000
vn -0.0000 -1.0000 -0.0000
vn -0.4647 -0.8855 -0.0000
vn -0.8230 -0.5681 -0.0000
vn -0.9927 -0.1205 -0.0000
vn -0.9350 0.3546 -0.0000
vn -0.0000 1.0000 -0.0000
vn -0.6631 0.7485 -0.0000
vn -0.2393 0.9709 -0.0000
vn -0.0000 -0.0000 -1.0000
vn -0.0000 -0.0000 1.0000
vn 0.4647 0.8855 -0.0000
vn -0.2393 -0.9709 -0.0000
vn 0.8230 0.5681 -0.0000
vn -0.6631 -0.7485 -0.0000
vn 0.9927 0.1205 -0.0000
vn -0.9350 -0.3546 -0.0000
vn 0.9350 -0.3546 -0.0000
vn -0.9927 0.1205 -0.0000
vn 0.6631 -0.7485 -0.0000
vn -0.8230 0.5681 -0.0000
vn 0.2393 -0.9709 -0.0000
vn -0.4647 0.8855 -0.0000
vn -0.9770 0.2100 0.0375
vn -0.6324 0.1428 0.7614
vn 0.9770 0.2100 0.0375
vn 0.5937 -0.7960 0.1183
vn -0.0000 0.8928 0.4505
vn 0.7005 0.6555 0.2823
vn -0.0000 -0.7738 0.6334
vn -0.7005 0.6555 0.2823
vn 0.4595 0.4520 0.7645
vn -0.0000 -0.9585 0.2850
vn -0.4595 0.4520 0.7645
vn -0.3754 -0.5175 0.7690
vn -0.0000 0.6691 0.7432
vn 0.3754 -0.5175 0.7690
vn 0.6324 0.1428 0.7614
vn -0.5937 -0.7960 0.1183
vn -0.7614 0.3076 0.5707
vn -0.5998 -0.0000 -0.8001
vn 0.7614 -0.3076 -0.5707
vn 0.5998 -0.0000 0.8001
vn 0.5920 -0.1605 0.7898
vn 0.7900 0.1586 -0.5922
vn -0.5920 -0.1605 -0.7898
vn -0.7197 -0.4370 0.5395
vn 0.7614 0.3076 0.5707
vn 0.5998 -0.0000 -0.8001
vn -0.7614 -0.3076 -0.5707
vn -0.5998 -0.0000 0.8001
vn -0.5920 -0.1605 0.7898
vn -0.7900 0.1586 -0.5922
vn 0.5920 -0.1605 -0.7898
vn 0.7197 -0.4370 0.5395
vn -0.9805 0.1922 0.0404
vn -0.4985 -0.8669 -0.0000
vn -0.9750 0.2158 -0.0533
vn -0.4481 -0.8917 -0.0637
vn -0.7251 0.2749 -0.6314
vn -0.3743 -0.8373 -0.3985
vn -0.0000 0.2757 -0.9612
vn -0.0000 -0.4507 -0.8927
vn 0.7251 0.2749 -0.6314
vn 0.3743 -0.8373 -0.3985
vn 0.9750 0.2158 -0.0533
vn 0.4481 -0.8917 -0.0637
vn 0.9805 0.1922 0.0404
vn 0.4985 -0.8669 -0.0000
vn -0.0000 -0.9920 -0.1260
vn 0.6219 0.6976 -0.3558
vn 0.6077 0.7171 0.3412
vn -0.0000 0.8831 0.4692
vn -0.6077 0.7171 0.3412
vn -0.6219 0.6976 -0.3558
vn -0.0000 0.8908 -0.4543
vn -0.0000 0.6843 -0.7292
vn -0.5252 0.5568 -0.6436
vn -0.0000 0.2204 -0.9754
vn 0.5252 0.5568 -0.6436
vn -0.0000 -0.9111 -0.4123
vn -0.8993 0.3076 0.3109
vn -0.3267 -0.0000 -0.9451
vn 0.8993 -0.3076 -0.3109
vn 0.3267 -0.0000 0.9451
vn 0.3225 -0.1605 0.9329
vn 0.9332 0.1586 -0.3226
vn -0.3225 -0.1605 -0.9329
vn -0.8501 -0.4370 0.2939
vn 0.8993 0.3076 0.3109
vn 0.3267 -0.0000 -0.9451
vn -0.8993 -0.3076 -0.3109
vn -0.3267 -0.0000 0.9451
vn -0.3225 -0.1605 0.9329
vn -0.9332 0.1586 -0.3226
vn 0.3225 -0.1605 -0.9329
vn 0.8501 -0.4370 0.2939
vn -0.9515 0.3076 -0.0000
vn 0.9515 -0.3076 -0.0000
vn -0.0000 -0.1605 0.9870
vn 0.9873 0.1586 -0.0000
vn -0.0000 -0.1605 -0.9870
vn -0.8995 -0.4370 -0.0000
vn 0.9515 0.3076 -0.0000
vn -0.9515 -0.3076 -0.0000
vn -0.9873 0.1586 -0.0000
vn 0.8995 -0.4370 -0.0000
vn -0.7899 0.3076 -0.5305
vn 0.5576 -0.0000 -0.8301
vn 0.7899 -0.3076 0.5305
vn -0.5576 -0.0000 0.8301
vn -0.5503 -0.1605 0.8194
vn 0.8196 0.1586 0.5505
vn 0.5503 -0.1605 -0.8194
vn -0.7467 -0.4370 -0.5015
vn 0.7899 0.3076 -0.5305
vn -0.5576 -0.0000 -0.8301
vn -0.7899 -0.3076 0.5305
vn 0.5576 -0.0000 0.8301
vn 0.5503 -0.1605 0.8194
vn -0.8196 0.1586 0.5505
vn -0.5503 -0.1605 -0.8194
vn 0.7467 -0.4370 -0.5015
vn -0.6819 0.3076 -0.6637
vn 0.6975 -0.0000 -0.7166
vn 0.6819 -0.3076 0.6637
vn -0.6975 -0.0000 0.7166
vn -0.6884 -0.1605 0.7073
vn 0.7075 0.1586 0.6887
vn 0.6884 -0.1605 -0.7073
vn -0.6446 -0.4370 -0.6273
vn 0.6819 0.3076 -0.6637
vn -0.6975 -0.0000 -0.7166
vn -0.6819 -0.3076 0.6637
vn 0.6975 -0.0000 0.7166
vn 0.6884 -0.1605 0.7073
vn -0.7075 0.1586 0.6887
vn -0.6884 -0.1605 -0.7073
vn 0.6446 -0.4370 -0.6273
vt 1.000000 0.500000
vt 1.000000 1.000000
vt 0.923077 1.000000
vt 0.923077 0.500000
vt 0.846154 1.000000
vt 0.846154 0.500000
vt 0.769231 1.000000
vt 0.769231 0.500000
vt 0.692308 1.000000
vt 0.692308 0.500000
vt 0.615385 1.000000
vt 0.615385 0.500000
vt 0.538462 1.000000
vt 0.538462 0.500000
vt 0.461538 1.000000
vt 0.461538 0.500000
vt 0.384615 1.000000
vt 0.384615 0.500000
vt 0.307692 1.000000
vt 0.307692 0.500000
vt 0.230769 1.000000
vt 0.230769 0.500000
vt 0.153846 1.000000
vt 0.153846 0.500000
vt 0.202278 0.056384
vt 0.297722 0.056384
vt 0.076923 1.000000
vt 0.076923 0.500000
vt 0.000000 1.000000
vt 0.000000 0.500000
vt 0.750000 0.490000
vt 0.861534 0.462509
vt 0.947516 0.386336
vt 0.988250 0.278929
vt 0.974404 0.164895
vt 0.909149 0.070357
vt 0.807436 0.016974
vt 0.692564 0.016974
vt 0.590851 0.070357
vt 0.525596 0.164895
vt 0.511750 0.278929
vt 0.552484 0.386336
vt 0.638466 0.462509
vt 0.250000 0.449411
vt 0.342671 0.426569
vt 0.361534 0.462509
vt 0.250000 0.490000
vt 0.414112 0.363278
vt 0.447516 0.386336
vt 0.447957 0.274036
vt 0.488250 0.278929
vt 0.436452 0.179288
vt 0.474404 0.164895
vt 0.382234 0.100739
vt 0.409149 0.070357
vt 0.307436 0.016974
vt 0.192564 0.016974
vt 0.117766 0.100739
vt 0.090851 0.070357
vt 0.063548 0.179288
vt 0.025596 0.164895
vt 0.052043 0.274036
vt 0.011750 0.278929
vt 0.085888 0.363278
vt 0.052484 0.386336
vt 0.157329 0.426569
vt 0.138466 0.462509
vt 0.375000 0.250000
vt 0.625000 0.250000
vt 0.625000 0.500000
vt 0.375000 0.500000
vt 0.375000 0.000000
vt 0.625000 0.000000
vt 0.625000 0.750000
vt 0.375000 0.750000
vt 0.875000 0.500000
vt 0.875000 0.750000
vt 0.125000 0.750000
vt 0.125000 0.500000
vt 0.625000 1.000000
vt 0.375000 1.000000
vt 0.500000 0.000000
vt 0.500000 0.250000
vt 0.500000 0.500000
vt 0.500000 0.750000
vt 0.500000 1.000000
s 0
f 1/1/1 28/2/1 27/3/1 3/4/1
f 3/4/2 27/3/2 29/5/2 5/6/2
f 5/6/3 29/5/3 30/7/3 7/8/3
f 7/8/4 30/7/4 31/9/4 9/10/4
f 9/10/5 31/9/5 32/11/5 11/12/5
f 11/12/6 32/11/6 33/13/6 13/14/6
f 13/14/7 33/13/7 34/15/7 15/16/7
f 15/16/8 34/15/8 35/17/8 17/18/8
f 17/18/9 35/17/9 36/19/9 19/20/9
f 19/20/10 36/19/10 37/21/10 21/22/10
f 21/22/11 37/21/11 38/23/11 23/24/11
f 16/25/12 14/26/12 46/26/12 47/25/12
f 23/24/13 38/23/13 39/27/13 25/28/13
f 25/28/14 39/27/14 28/29/14 1/30/14
f 1/31/15 3/32/15 5/33/15 7/34/15 9/35/15 11/36/15 13/37/15 15/38/15 17/39/15 19/40/15 21/41/15 23/42/15 25/43/15
f 2/44/16 4/45/16 27/46/16 28/47/16
f 4/45/16 6/48/16 29/49/16 27/46/16
f 6/48/16 8/50/16 30/51/16 29/49/16
f 8/50/16 10/52/16 31/53/16 30/51/16
f 10/52/16 12/54/16 32/55/16 31/53/16
f 12/54/16 14/26/16 33/56/16 32/55/16
f 14/26/16 16/25/16 34/57/16 33/56/16
f 16/25/16 18/58/16 35/59/16 34/57/16
f 18/58/16 20/60/16 36/61/16 35/59/16
f 20/60/16 22/62/16 37/63/16 36/61/16
f 22/62/16 24/64/16 38/65/16 37/63/16
f 24/64/16 26/66/16 39/67/16 38/65/16
f 26/66/16 2/44/16 28/47/16 39/67/16
f 40/45/16 41/44/16 52/66/16 51/64/16 50/62/16 49/60/16 48/58/16 47/25/16 46/26/16 45/54/16 44/52/16 43/50/16 42/48/16
f 18/58/17 16/25/17 47/25/17 48/58/17
f 4/45/18 2/44/18 41/44/18 40/45/18
f 20/60/19 18/58/19 48/58/19 49/60/19
f 6/48/20 4/45/20 40/45/20 42/48/20
f 22/62/21 20/60/21 49/60/21 50/62/21
f 8/50/22 6/48/22 42/48/22 43/50/22
f 24/64/23 22/62/23 50/62/23 51/64/23
f 10/52/24 8/50/24 43/50/24 44/52/24
f 26/66/25 24/64/25 51/64/25 52/66/25
f 12/54/26 10/52/26 44/52/26 45/54/26
f 2/44/27 26/66/27 52/66/27 41/44/27
f 14/26/28 12/54/28 45/54/28 46/26/28
f 55/68/15 56/69/15 60/70/15 59/71/15
f 53/72/29 54/73/29 56/69/29 55/68/29
f 54/73/30 53/72/30 69/72/30 70/73/30
f 59/71/31 60/70/31 58/74/31 57/75/31
f 60/70/15 56/69/15 62/69/15 64/70/15
f 59/71/32 57/75/32 67/75/32 68/71/32
f 64/70/33 62/76/33 61/77/33 63/74/33
f 58/74/34 60/70/34 64/70/34 63/74/34
f 65/78/35 67/75/35 76/75/35 75/78/35
f 56/69/36 54/73/36 61/73/36 62/69/36
f 58/74/37 63/74/37 73/74/37 71/74/37
f 55/68/15 59/71/15 68/71/15 66/68/15
f 66/79/38 68/71/38 67/75/38 65/78/38
f 72/75/16 71/74/16 70/80/16 69/81/16
f 70/80/16 71/74/16 73/74/16 74/80/16
f 72/75/16 69/81/16 75/81/16 76/75/16
f 61/73/39 54/73/39 70/73/39 74/73/39
f 53/72/40 65/72/40 75/72/40 69/72/40
f 63/74/41 61/77/41 74/77/41 73/74/41
f 67/75/42 57/75/42 72/75/42 76/75/42
f 57/75/43 58/74/43 71/74/43 72/75/43
f 53/72/44 55/68/44 66/68/44 65/72/44
f 85/82/45 78/73/45 80/69/45 86/83/45
f 86/83/46 80/69/46 84/70/46 87/84/46
f 87/84/47 84/70/47 82/74/47 88/85/47
f 88/85/48 82/74/48 78/80/48 85/86/48
f 79/79/7 83/71/7 81/75/7 77/78/7
f 84/70/12 80/76/12 78/77/12 82/74/12
f 81/75/49 88/85/49 85/86/49 77/81/49
f 83/71/50 87/84/50 88/85/50 81/75/50
f 79/68/51 86/83/51 87/84/51 83/71/51
f 77/72/52 85/82/52 86/83/52 79/68/52
f 97/82/53 98/83/53 92/69/53 90/73/53
f 98/83/54 99/84/54 96/70/54 92/69/54
f 99/84/55 100/85/55 94/74/55 96/70/55
f 100/85/56 97/86/56 90/80/56 94/74/56
f 91/79/7 89/78/7 93/75/7 95/71/7
f 96/70/12 94/74/12 90/77/12 92/76/12
f 93/75/57 89/81/57 97/86/57 100/85/57
f 95/71/58 93/75/58 100/85/58 99/84/58
f 91/68/59 95/71/59 99/84/59 98/83/59
f 89/72/60 91/68/60 98/83/60 97/82/60
f 101/68/61 102/69/61 106/69/61 105/68/61
f 101/68/16 103/71/16 125/70/16 102/69/16
f 101/68/16 104/68/16 123/71/16 103/71/16
f 104/68/62 101/68/62 105/68/62 107/68/62
f 105/68/63 106/69/63 109/69/63 108/68/63
f 107/68/64 105/68/64 108/68/64 110/68/64
f 108/68/65 109/69/65 112/69/65 111/68/65
f 110/68/66 108/68/66 111/68/66 113/68/66
f 114/71/67 111/68/67 112/69/67 115/70/67
f 111/68/68 114/71/68 116/71/68 113/68/68
f 118/70/69 117/71/69 114/71/69 115/70/69
f 117/71/70 119/71/70 116/71/70 114/71/70
f 121/70/71 120/71/71 117/71/71 118/70/71
f 120/71/72 122/71/72 119/71/72 117/71/72
f 125/70/73 103/71/73 120/71/73 121/70/73
f 103/71/74 123/71/74 122/71/74 120/71/74
f 122/71/75 107/68/75 110/68/75 119/71/75
f 123/71/7 104/68/7 107/68/7 122/71/7
f 124/70/76 121/70/76 118/70/76 130/70/76
f 126/70/77 125/70/77 121/70/77 124/70/77
f 125/70/16 126/70/16 127/69/16 102/69/16
f 127/69/78 126/70/78 124/70/78 128/69/78
f 102/69/79 127/69/79 128/69/79 106/69/79
f 106/69/80 128/69/80 129/69/80 109/69/80
f 128/69/81 124/70/81 130/70/81 129/69/81
f 129/69/82 130/70/82 132/70/82 131/69/82
f 109/69/83 129/69/83 131/69/83 112/69/83
f 115/70/84 112/69/84 131/69/84 132/70/84
f 130/70/85 118/70/85 115/70/85 132/70/85
f 119/71/86 110/68/86 113/68/86 116/71/86
f 141/82/87 134/73/87 136/69/87 142/83/87
f 142/83/88 136/69/88 140/70/88 143/84/88
f 143/84/89 140/70/89 138/74/89 144/85/89
f 144/85/90 138/74/90 134/80/90 141/86/90
f 135/79/7 139/71/7 137/75/7 133/78/7
f 140/70/12 136/76/12 134/77/12 138/74/12
f 137/75/91 144/85/91 141/86/91 133/81/91
f 139/71/92 143/84/92 144/85/92 137/75/92
f 135/68/93 142/83/93 143/84/93 139/71/93
f 133/72/94 141/82/94 142/83/94 135/68/94
f 153/82/95 154/83/95 148/69/95 146/73/95
f 154/83/96 155/84/96 152/70/96 148/69/96
f 155/84/97 156/85/97 150/74/97 152/70/97
f 156/85/98 153/86/98 146/80/98 150/74/98
f 147/79/7 145/78/7 149/75/7 151/71/7
f 152/70/12 150/74/12 146/77/12 148/76/12
f 149/75/99 145/81/99 153/86/99 156/85/99
f 151/71/100 149/75/100 156/85/100 155/84/100
f 147/68/101 151/71/101 155/84/101 154/83/101
f 145/72/102 147/68/102 154/83/102 153/82/102
f 165/82/103 158/73/103 160/69/103 166/83/103
f 166/83/15 160/69/15 164/70/15 167/84/15
f 167/84/104 164/70/104 162/74/104 168/85/104
f 168/85/16 162/74/16 158/80/16 165/86/16
f 159/79/7 163/71/7 161/75/7 157/78/7
f 164/70/12 160/76/12 158/77/12 162/74/12
f 161/75/105 168/85/105 165/86/105 157/81/105
f 163/71/106 167/84/106 168/85/106 161/75/106
f 159/68/107 166/83/107 167/84/107 163/71/107
f 157/72/108 165/82/108 166/83/108 159/68/108
f 177/82/109 178/83/109 172/69/109 170/73/109
f 178/83/15 179/84/15 176/70/15 172/69/15
f 179/84/110 180/85/110 174/74/110 176/70/110
f 180/85/16 177/86/16 170/80/16 174/74/16
f 171/79/7 169/78/7 173/75/7 175/71/7
f 176/70/12 174/74/12 170/77/12 172/76/12
f 173/75/105 169/81/105 177/86/105 180/85/105
f 175/71/111 173/75/111 180/85/111 179/84/111
f 171/68/107 175/71/107 179/84/107 178/83/107
f 169/72/112 171/68/112 178/83/112 177/82/112
f 189/82/103 182/73/103 184/69/103 190/83/103
f 190/83/15 184/69/15 188/70/15 191/84/15
f 191/84/104 188/70/104 186/74/104 192/85/104
f 192/85/16 186/74/16 182/80/16 189/86/16
f 183/79/7 187/71/7 185/75/7 181/78/7
f 188/70/12 184/76/12 182/77/12 186/74/12
f 185/75/105 192/85/105 189/86/105 181/81/105
f 187/71/106 191/84/106 192/85/106 185/75/106
f 183/68/107 190/83/107 191/84/107 187/71/107
f 181/72/108 189/82/108 190/83/108 183/68/108
f 201/82/109 202/83/109 196/69/109 194/73/109
f 202/83/15 203/84/15 200/70/15 196/69/15
f 203/84/110 204/85/110 198/74/110 200/70/110
f 204/85/16 201/86/16 194/80/16 198/74/16
f 195/79/7 193/78/7 197/75/7 199/71/7
f 200/70/12 198/74/12 194/77/12 196/76/12
f 197/75/105 193/81/105 201/86/105 204/85/105
f 199/71/111 197/75/111 204/85/111 203/84/111
f 195/68/107 199/71/107 203/84/107 202/83/107
f 193/72/112 195/68/112 202/83/112 201/82/112
f 213/82/113 206/73/113 208/69/113 214/83/113
f 214/83/114 208/69/114 212/70/114 215/84/114
f 215/84/115 212/70/115 210/74/115 216/85/115
f 216/85/116 210/74/116 206/80/116 213/86/116
f 207/79/7 211/71/7 209/75/7 205/78/7
f 212/70/12 208/76/12 206/77/12 210/74/12
f 209/75/117 216/85/117 213/86/117 205/81/117
f 211/71/118 215/84/118 216/85/118 209/75/118
f 207/68/119 214/83/119 215/84/119 211/71/119
f 205/72/120 213/82/120 214/83/120 207/68/120
f 225/82/121 226/83/121 220/69/121 218/73/121
f 226/83/122 227/84/122 224/70/122 220/69/122
f 227/84/123 228/85/123 222/74/123 224/70/123
f 228/85/124 225/86/124 218/80/124 222/74/124
f 219/79/7 217/78/7 221/75/7 223/71/7
f 224/70/12 222/74/12 218/77/12 220/76/12
f 221/75/125 217/81/125 225/86/125 228/85/125
f 223/71/126 221/75/126 228/85/126 227/84/126
f 219/68/127 223/71/127 227/84/127 226/83/127
f 217/72/128 219/68/128 226/83/128 225/82/128
f 237/82/129 230/73/129 232/69/129 238/83/129
f 238/83/130 232/69/130 236/70/130 239/84/130
f 239/84/131 236/70/131 234/74/131 240/85/131
f 240/85/132 234/74/132 230/80/132 237/86/132
f 231/79/7 235/71/7 233/75/7 229/78/7
f 236/70/12 232/76/12 230/77/12 234/74/12
f 233/75/133 240/85/133 237/86/133 229/81/133
f 235/71/134 239/84/134 240/85/134 233/75/134
f 231/68/135 238/83/135 239/84/135 235/71/135
f 229/72/136 237/82/136 238/83/136 231/68/136
f 249/82/137 250/83/137 244/69/137 242/73/137
f 250/83/138 251/84/138 248/70/138 244/69/138
f 251/84/139 252/85/139 246/74/139 248/70/139
f 252/85/140 249/86/140 242/80/140 246/74/140
f 243/79/7 241/78/7 245/75/7 247/71/7
f 248/70/12 246/74/12 242/77/12 244/76/12
f 245/75/141 241/81/141 249/86/141 252/85/141
f 247/71/142 245/75/142 252/85/142 251/84/142
f 243/68/143 247/71/143 251/84/143 250/83/143
f 241/72/144 243/68/144 250/83/144 249/82/144
