# Blender 4.1.1
# www.blender.org
o Cube.069
v -0.882164 0.619302 -0.282757
v -0.908244 0.666175 -0.089821
v -0.744264 0.763579 -0.299169
v -0.770344 0.810452 -0.106232
v -0.739318 0.488578 -0.231689
v -0.765397 0.535451 -0.038753
v -0.601418 0.632855 -0.248101
v -0.627497 0.679729 -0.055165
v -0.820180 0.689074 0.388725
v -0.734508 0.778708 0.378529
v -0.645763 0.697494 0.410256
v -0.731435 0.607860 0.420452
v 0.497501 -0.695789 -0.251189
v 0.540924 -0.715166 -0.056662
v 0.635400 -0.551512 -0.267600
v 0.678824 -0.570889 -0.073074
v 0.358938 -0.558275 -0.206560
v 0.402362 -0.577651 -0.012034
v 0.496838 -0.413998 -0.222972
v 0.540261 -0.433374 -0.028445
v 0.548127 -0.615191 0.420033
v 0.633799 -0.525557 0.409837
v 0.547715 -0.440124 0.437563
v 0.462043 -0.529758 0.447759
v 0.194127 0.134330 0.393907
v 0.394560 0.157123 0.168864
v 0.458391 0.150354 -0.126462
v 0.368517 0.115835 -0.412938
v 0.149018 0.062816 -0.613803
v 0.170365 -0.043990 0.407625
v 0.353404 -0.151736 0.192624
v 0.410868 -0.206286 -0.099025
v 0.327360 -0.193024 -0.389177
v 0.125256 -0.115503 -0.600085
v 0.046125 -0.173976 0.422411
v 0.138213 -0.376878 0.218235
v 0.162387 -0.466258 -0.069453
v 0.112169 -0.418166 -0.363567
v 0.001016 -0.245490 -0.585299
v -0.131139 -0.205978 0.432617
v -0.168817 -0.432308 0.235912
v -0.192141 -0.530263 -0.049041
v -0.194861 -0.473596 -0.345889
v -0.176248 -0.277492 -0.575093
v -0.293718 -0.127773 0.434345
v -0.450411 -0.296852 0.238905
v -0.517297 -0.373852 -0.045586
v -0.476455 -0.338140 -0.342897
v -0.338826 -0.199286 -0.573365
v -0.379511 0.030768 0.426934
v -0.599009 -0.022250 0.226069
v -0.688884 -0.056769 -0.060407
v -0.625053 -0.063539 -0.355733
v -0.424620 -0.040745 -0.580776
v -0.355749 0.209088 0.413216
v -0.557853 0.286609 0.202308
v -0.641361 0.299870 -0.087844
v -0.583896 0.245320 -0.379493
v -0.400858 0.137575 -0.594494
v -0.141290 0.005504 -0.675236
v -0.231509 0.339074 0.398430
v -0.342662 0.511751 0.176698
v -0.392879 0.559843 -0.117416
v -0.368705 0.470463 -0.405104
v -0.276617 0.267561 -0.609280
v -0.054245 0.371077 0.388224
v -0.035632 0.567181 0.159020
v -0.038352 0.623847 -0.137828
v -0.061676 0.525892 -0.422781
v -0.099353 0.299563 -0.619486
v 0.108334 0.292871 0.386496
v 0.245962 0.431725 0.156028
v 0.286805 0.467437 -0.141283
v 0.219918 0.390437 -0.425774
v 0.063225 0.221358 -0.621214
v 0.184930 0.119749 0.188444
v 0.161168 -0.058571 0.202163
v 0.036927 -0.188557 0.216949
v -0.140337 -0.220559 0.227155
v -0.302915 -0.142354 0.228882
v -0.388708 0.016187 0.221472
v -0.098400 0.073500 0.282905
v -0.364946 0.194507 0.207753
v -0.240706 0.324493 0.192967
v -0.063442 0.356496 0.182761
v 0.099136 0.278290 0.181034
v -0.710605 -0.738791 -0.306205
v -0.734998 -0.759637 -0.108539
v -0.855537 -0.600642 -0.309522
v -0.879930 -0.621487 -0.111855
v -0.574586 -0.595327 -0.274290
v -0.598979 -0.616173 -0.076624
v -0.719518 -0.457178 -0.277607
v -0.743912 -0.478024 -0.079940
v -0.702456 -0.659112 0.366983
v -0.792497 -0.573286 0.364923
v -0.707994 -0.484157 0.384751
v -0.617952 -0.569984 0.386811
v 0.609533 0.642397 -0.463317
v 0.651270 0.690740 -0.273521
v 0.464600 0.780547 -0.466634
v 0.506338 0.828889 -0.276838
v 0.477798 0.505725 -0.399537
v 0.519535 0.554067 -0.209740
v 0.332865 0.643874 -0.402853
v 0.374602 0.692217 -0.213057
v 0.606875 0.710769 0.211157
v 0.516834 0.796596 0.209097
v 0.434992 0.711686 0.248722
v 0.525033 0.625859 0.250782
v -0.010299 -0.842713 -0.537517
v 0.039512 -1.173511 0.383491
v -0.210291 -0.847046 -0.528257
v -0.160480 -1.177844 0.392751
v -0.009362 -0.639695 -0.422296
v 0.040449 -0.970493 0.498712
v -0.209355 -0.644029 -0.413036
v -0.159544 -0.974827 0.507972
v 0.032882 -0.706902 1.278731
v -0.091366 -0.709594 1.284483
v -0.090784 -0.583466 1.356066
v 0.033464 -0.580774 1.350313
v 0.041139 -1.041157 0.890611
v -0.120981 -1.044670 0.898118
v 0.037226 -0.883992 0.879633
v -0.124894 -0.887504 0.887139
v 0.017896 -1.140184 -0.067787
v -0.182097 -1.144518 -0.058527
v -0.181161 -0.941500 0.056694
v 0.018832 -0.937167 0.047434
v -0.997839 0.098606 -0.560113
v -1.352615 0.153459 0.351638
v -0.992866 -0.101099 -0.546163
v -1.347642 -0.046246 0.365588
v -0.797916 0.111951 -0.440339
v -1.152693 0.166804 0.471412
v -0.792944 -0.087754 -0.426389
v -1.147720 -0.032902 0.485362
v -0.907813 0.189765 1.257206
v -0.904723 0.065695 1.265873
v -0.780519 0.073986 1.340284
v -0.783608 0.198055 1.331618
v -1.232682 0.173045 0.861465
v -1.228651 0.011158 0.872773
v -1.075291 0.176455 0.854177
v -1.071260 0.014568 0.865486
v -1.307489 0.123167 -0.098113
v -1.302516 -0.076538 -0.084164
v -1.102594 -0.063194 0.035610
v -1.107567 0.136512 0.021661
v 0.722672 -0.075845 -0.624749
v 1.157439 -0.003886 0.250445
v 0.717699 0.123860 -0.638699
v 1.152466 0.195820 0.236495
v 0.534278 -0.070914 -0.486995
v 0.969044 0.001046 0.388199
v 0.529305 0.128791 -0.500945
v 0.964071 0.200751 0.374249
v 0.795142 0.090609 1.188013
v 0.792053 0.214679 1.179346
v 0.675010 0.217743 1.264928
v 0.678099 0.093673 1.273594
v 1.083431 0.049336 0.766566
v 1.079400 0.211224 0.755258
v 0.926040 0.045926 0.773854
v 0.922009 0.207814 0.762546
v 1.072318 -0.037000 -0.193276
v 1.067345 0.162706 -0.207226
v 0.878951 0.167637 -0.069472
v 0.883923 -0.032069 -0.055522
v -0.264868 0.865474 -0.647345
v -0.234689 1.323085 0.218592
v -0.064875 0.869807 -0.656605
v -0.034696 1.327418 0.209332
v -0.254276 0.680732 -0.505038
v -0.224097 1.138343 0.360898
v -0.054284 0.685065 -0.514298
v -0.024104 1.142676 0.351638
v -0.145553 0.987276 1.166489
v -0.021305 0.989968 1.160736
v -0.014724 0.875195 1.249146
v -0.138973 0.872503 1.254899
v -0.190391 1.263538 0.737420
v -0.028270 1.267051 0.729913
v -0.186477 1.106373 0.748398
v -0.024357 1.109886 0.740892
v -0.253067 1.226352 -0.223602
v -0.053074 1.230685 -0.232862
v -0.042483 1.045943 -0.090555
v -0.242475 1.041610 -0.081295
vn -0.7133 0.6528 -0.2550
vn 0.6886 0.7205 -0.0820
vn 0.7133 -0.6528 0.2550
vn -0.6886 -0.7205 0.0820
vn 0.1302 -0.2341 -0.9635
vn -0.7138 0.6934 0.0982
vn -0.1302 0.2341 0.9635
vn -0.6971 -0.6985 0.1617
vn 0.6754 0.7374 -0.0016
vn 0.7249 -0.6867 0.0547
vn 0.6919 -0.6867 -0.2229
vn -0.6919 0.6867 0.2229
vn -0.2168 0.0968 -0.9714
vn 0.7241 -0.6772 0.1311
vn 0.2168 -0.0968 0.9714
vn -0.6682 -0.7260 0.1624
vn 0.7043 0.7099 -0.0010
vn -0.7215 0.6921 0.0216
vn -0.9903 0.1346 0.0348
vn 0.1953 0.0599 -0.9789
vn 0.8403 0.4399 -0.3166
vn 0.6674 0.3908 0.6340
vn 0.6059 0.2933 -0.7395
vn 0.8624 0.4749 0.1755
vn 0.2256 -0.1046 -0.9686
vn 0.9486 -0.1479 -0.2798
vn 0.7483 -0.0488 0.6615
vn 0.6868 -0.1463 -0.7119
vn 0.9706 -0.1130 0.2124
vn 0.4313 0.8984 -0.0831
vn 0.6903 -0.6860 -0.2300
vn 0.5552 -0.4512 0.6987
vn 0.4937 -0.5486 -0.6747
vn 0.7123 -0.6510 0.2621
vn 0.9903 -0.1346 -0.0348
vn 0.1533 -0.2551 -0.9547
vn 0.1617 -0.6625 0.7314
vn 0.1002 -0.7600 -0.6421
vn 0.1862 -0.9337 0.3057
vn -0.4313 -0.8984 0.0831
vn 0.0061 -0.3343 -0.9425
vn 0.1641 -0.9687 -0.1864
vn -0.3432 -0.6997 -0.6266
vn -0.4069 -0.8531 0.3266
vn 0.8786 0.4720 -0.0728
vn -0.1599 -0.3117 -0.9366
vn -0.4289 -0.8880 -0.1656
vn -0.2818 -0.6023 0.7469
vn -0.6674 -0.3908 -0.6340
vn -0.8403 -0.4399 0.3166
vn 0.1808 -0.9816 0.0616
vn -0.2812 -0.1961 -0.9394
vn -0.8624 -0.4749 -0.1755
vn -0.6059 -0.2933 0.7395
vn -0.7483 0.0488 -0.6615
vn -0.9486 0.1479 0.2798
vn 0.7237 -0.6899 0.0166
vn -0.3115 -0.0316 -0.9497
vn -0.9706 0.1130 -0.2124
vn -0.6868 0.1463 0.7119
vn -0.5552 0.4512 -0.6987
vn -0.6903 0.6860 0.2300
vn -0.1808 0.9816 -0.0616
vn -0.2392 0.1190 -0.9636
vn -0.7123 0.6510 -0.2621
vn -0.4937 0.5486 0.6747
vn -0.1641 0.9687 0.1864
vn -0.7237 0.6899 -0.0166
vn -0.0920 0.1981 -0.9759
vn -0.1862 0.9337 -0.3057
vn -0.1002 0.7600 0.6421
vn -0.1617 0.6625 -0.7314
vn -0.8786 -0.4720 0.0728
vn 0.0740 0.1756 -0.9817
vn 0.4069 0.8531 -0.3266
vn 0.3432 0.6997 0.6266
vn 0.2818 0.6023 -0.7469
vn 0.4289 0.8880 0.1656
vn 0.2812 0.1961 0.9394
vn 0.3115 0.0316 0.9497
vn 0.2392 -0.1190 0.9636
vn 0.0920 -0.1981 0.9759
vn -0.0740 -0.1756 0.9817
vn -0.1953 -0.0599 0.9789
vn -0.2256 0.1046 0.9686
vn -0.1533 0.2551 0.9547
vn -0.0061 0.3343 0.9425
vn 0.1599 0.3117 0.9366
vn -0.6792 -0.7164 -0.1594
vn 0.6792 0.7164 0.1594
vn 0.1218 0.1041 -0.9871
vn -0.6789 -0.7076 0.1960
vn -0.1218 -0.1041 0.9871
vn 0.7111 -0.6961 0.0985
vn -0.7314 0.6788 0.0655
vn 0.6898 0.7226 -0.0438
vn 0.6578 0.6825 -0.3185
vn -0.6578 -0.6825 0.3185
vn -0.2084 -0.2414 -0.9478
vn 0.6892 0.7238 0.0332
vn 0.2084 0.2414 0.9478
vn 0.7386 -0.6674 0.0952
vn -0.7039 0.7075 0.0622
vn -0.6864 -0.7172 0.1200
vn 0.0182 -0.9971 -0.0745
vn -0.9987 -0.0216 0.0462
vn -0.0182 0.9971 0.0745
vn 0.9987 0.0216 -0.0462
vn -0.0509 0.4931 -0.8685
vn 0.0466 -0.7564 0.6524
vn 0.0509 -0.4931 0.8685
vn 0.9999 0.0104 0.0063
vn -0.9946 -0.0328 0.0986
vn -0.0433 0.8397 -0.5413
vn -0.0314 0.9746 -0.2216
vn -0.9951 -0.0349 0.0921
vn 1.0000 0.0083 -0.0003
vn 0.0326 -0.9671 0.2523
vn 0.0065 0.8450 0.5347
vn -0.0065 -0.8450 -0.5347
vn -0.9947 -0.0316 -0.0977
vn 0.0248 -0.9973 0.0697
vn 0.9947 0.0316 0.0977
vn -0.0248 0.9973 -0.0697
vn 0.5157 -0.0469 -0.8555
vn -0.7732 0.0250 0.6337
vn -0.5157 0.0469 0.8555
vn -0.0374 0.9991 -0.0175
vn 0.0122 -0.9925 0.1216
vn 0.8536 -0.0151 -0.5208
vn 0.9801 0.0105 -0.1984
vn 0.0103 -0.9933 0.1151
vn -0.0393 0.9989 -0.0240
vn -0.9733 -0.0082 0.2293
vn 0.8307 0.0594 0.5536
vn -0.8307 -0.0594 -0.5536
vn 0.9819 0.0112 -0.1892
vn -0.9819 -0.0112 0.1892
vn -0.5900 -0.0709 -0.8043
vn 0.8266 0.0597 0.5596
vn 0.5900 0.0709 0.8043
vn 0.0420 -0.9919 0.1203
vn -0.0076 0.9998 -0.0189
vn -0.8966 -0.0530 -0.4397
vn -0.9937 -0.0322 -0.1071
vn -0.0063 0.9997 -0.0256
vn 0.0433 -0.9926 0.1136
vn 0.9898 0.0343 0.1384
vn -0.7778 0.0245 0.6281
vn 0.7778 -0.0245 -0.6281
vn -0.0310 0.9767 -0.2124
vn 0.0310 -0.9767 0.2124
vn -0.0234 -0.6109 -0.7913
vn 0.0068 0.8411 0.5408
vn 0.0234 0.6109 0.7913
vn -0.9953 -0.0031 0.0965
vn 0.9992 0.0401 0.0042
vn 0.0003 -0.9079 -0.4192
vn 0.0177 -0.9963 -0.0839
vn 0.9991 0.0412 -0.0026
vn -0.9960 -0.0020 0.0898
vn -0.0162 0.9932 0.1154
vn 0.0464 -0.7611 0.6469
vn -0.0464 0.7611 -0.6469
vt 0.375000 0.000000
vt 0.625000 0.000000
vt 0.625000 0.250000
vt 0.375000 0.250000
vt 0.625000 0.500000
vt 0.375000 0.500000
vt 0.625000 0.750000
vt 0.375000 0.750000
vt 0.625000 1.000000
vt 0.375000 1.000000
vt 0.125000 0.500000
vt 0.125000 0.750000
vt 0.875000 0.500000
vt 0.875000 0.750000
vt 0.500000 0.833333
vt 0.600000 0.833333
vt 0.650000 0.000000
vt 0.700000 0.166667
vt 0.600000 0.166667
vt 0.700000 0.333333
vt 0.700000 0.500000
vt 0.600000 0.500000
vt 0.600000 0.333333
vt 0.700000 0.666667
vt 0.700000 0.833333
vt 0.600000 0.666667
vt 0.550000 0.000000
vt 0.500000 0.166667
vt 0.500000 0.500000
vt 0.500000 0.333333
vt 0.500000 0.666667
vt 0.200000 0.833333
vt 0.300000 0.833333
vt 0.400000 0.500000
vt 0.400000 0.333333
vt 0.400000 0.833333
vt 0.400000 0.666667
vt 0.400000 0.166667
vt 0.000000 0.833333
vt 0.100000 0.833333
vt 0.450000 0.000000
vt 0.300000 0.666667
vt 0.300000 0.333333
vt 0.300000 0.166667
vt 0.300000 0.500000
vt 0.800000 0.833333
vt 0.350000 0.000000
vt 0.200000 0.333333
vt 0.200000 0.166667
vt 0.200000 0.666667
vt 0.200000 0.500000
vt 0.250000 0.000000
vt 0.100000 0.333333
vt 0.100000 0.166667
vt 0.100000 0.666667
vt 0.100000 0.500000
vt 0.900000 0.833333
vt 0.150000 0.000000
vt 0.000000 0.333333
vt 0.000000 0.166667
vt 0.000000 0.666667
vt 0.000000 0.500000
vt 1.000000 0.833333
vt 0.050000 0.000000
vt 1.000000 0.166667
vt 1.000000 0.333333
vt 0.900000 0.333333
vt 0.900000 0.166667
vt 1.000000 0.500000
vt 1.000000 0.666667
vt 0.900000 0.666667
vt 0.900000 0.500000
vt 0.950000 0.000000
vt 0.800000 0.666667
vt 0.800000 0.500000
vt 0.850000 0.000000
vt 0.800000 0.166667
vt 0.800000 0.333333
vt 0.750000 0.000000
vt 0.650000 1.000000
vt 0.550000 1.000000
vt 0.450000 1.000000
vt 0.350000 1.000000
vt 0.250000 1.000000
vt 0.150000 1.000000
vt 0.050000 1.000000
vt 0.950000 1.000000
vt 0.850000 1.000000
vt 0.750000 1.000000
vt 0.500000 0.000000
vt 0.500000 0.250000
vt 0.500000 0.750000
vt 0.500000 1.000000
s 0
f 1/1/1 2/2/1 4/3/1 3/4/1
f 3/4/2 4/3/2 8/5/2 7/6/2
f 7/6/3 8/5/3 6/7/3 5/8/3
f 5/8/4 6/7/4 2/9/4 1/10/4
f 3/11/5 7/6/5 5/8/5 1/12/5
f 4/3/6 2/2/6 9/2/6 10/3/6
f 11/5/7 10/13/7 9/14/7 12/7/7
f 2/9/8 6/7/8 12/7/8 9/9/8
f 8/5/9 4/3/9 10/3/9 11/5/9
f 6/7/10 8/5/10 11/5/10 12/7/10
f 13/1/11 15/4/11 16/3/11 14/2/11
f 15/4/2 19/6/2 20/5/2 16/3/2
f 19/6/12 17/8/12 18/7/12 20/5/12
f 17/8/4 13/10/4 14/9/4 18/7/4
f 15/11/13 13/12/13 17/8/13 19/6/13
f 16/3/14 22/3/14 21/2/14 14/2/14
f 23/5/15 24/7/15 21/14/15 22/13/15
f 14/9/16 21/9/16 24/7/16 18/7/16
f 20/5/17 23/5/17 22/3/17 16/3/17
f 18/7/18 24/7/18 23/5/18 20/5/18
f 30/15/19 25/16/19 76/16/19 77/15/19
f 60/17/20 75/18/20 29/19/20
f 74/20/21 73/21/21 27/22/21 28/23/21
f 72/24/22 71/25/22 25/16/22 26/26/22
f 75/18/23 74/20/23 28/23/23 29/19/23
f 73/21/24 72/24/24 26/26/24 27/22/24
f 60/27/25 29/19/25 34/28/25
f 28/23/26 27/22/26 32/29/26 33/30/26
f 26/26/27 25/16/27 30/15/27 31/31/27
f 29/19/28 28/23/28 33/30/28 34/28/28
f 27/22/29 26/26/29 31/31/29 32/29/29
f 45/32/30 40/33/30 79/33/30 80/32/30
f 33/30/31 32/29/31 37/34/31 38/35/31
f 31/31/32 30/15/32 35/36/32 36/37/32
f 34/28/33 33/30/33 38/35/33 39/38/33
f 32/29/34 31/31/34 36/37/34 37/34/34
f 55/39/35 50/40/35 81/40/35 83/39/35
f 60/41/36 34/28/36 39/38/36
f 36/37/37 35/36/37 40/33/37 41/42/37
f 39/38/38 38/35/38 43/43/38 44/44/38
f 37/34/39 36/37/39 41/42/39 42/45/39
f 71/25/40 66/46/40 85/46/40 86/25/40
f 60/47/41 39/38/41 44/44/41
f 38/35/42 37/34/42 42/45/42 43/43/42
f 44/44/43 43/43/43 48/48/43 49/49/43
f 42/45/44 41/42/44 46/50/44 47/51/44
f 50/40/45 45/32/45 80/32/45 81/40/45
f 60/52/46 44/44/46 49/49/46
f 43/43/47 42/45/47 47/51/47 48/48/47
f 41/42/48 40/33/48 45/32/48 46/50/48
f 49/49/49 48/48/49 53/53/49 54/54/49
f 47/51/50 46/50/50 51/55/50 52/56/50
f 66/46/51 61/57/51 84/57/51 85/46/51
f 60/58/52 49/49/52 54/54/52
f 48/48/53 47/51/53 52/56/53 53/53/53
f 46/50/54 45/32/54 50/40/54 51/55/54
f 54/54/55 53/53/55 58/59/55 59/60/55
f 52/56/56 51/55/56 56/61/56 57/62/56
f 61/57/57 55/63/57 83/63/57 84/57/57
f 60/64/58 54/54/58 59/60/58
f 53/53/59 52/56/59 57/62/59 58/59/59
f 51/55/60 50/40/60 55/39/60 56/61/60
f 59/65/61 58/66/61 64/67/61 65/68/61
f 57/69/62 56/70/62 62/71/62 63/72/62
f 40/33/63 35/36/63 78/36/63 79/33/63
f 60/73/64 59/65/64 65/68/64
f 58/66/65 57/69/65 63/72/65 64/67/65
f 56/70/66 55/63/66 61/57/66 62/71/66
f 63/72/67 62/71/67 67/74/67 68/75/67
f 35/36/68 30/15/68 77/15/68 78/36/68
f 60/76/69 65/68/69 70/77/69
f 64/67/70 63/72/70 68/75/70 69/78/70
f 62/71/71 61/57/71 66/46/71 67/74/71
f 65/68/72 64/67/72 69/78/72 70/77/72
f 25/16/73 71/25/73 86/25/73 76/16/73
f 60/79/74 70/77/74 75/18/74
f 69/78/75 68/75/75 73/21/75 74/20/75
f 67/74/76 66/46/76 71/25/76 72/24/76
f 70/77/77 69/78/77 74/20/77 75/18/77
f 68/75/78 67/74/78 72/24/78 73/21/78
f 86/25/79 82/80/79 76/16/79
f 76/16/80 82/81/80 77/15/80
f 77/15/81 82/82/81 78/36/81
f 78/36/82 82/83/82 79/33/82
f 79/33/83 82/84/83 80/32/83
f 80/32/84 82/85/84 81/40/84
f 81/40/85 82/86/85 83/39/85
f 83/63/86 82/87/86 84/57/86
f 84/57/87 82/88/87 85/46/87
f 85/46/88 82/89/88 86/25/88
f 87/1/89 88/2/89 90/3/89 89/4/89
f 89/4/68 90/3/68 94/5/68 93/6/68
f 93/6/90 94/5/90 92/7/90 91/8/90
f 91/8/57 92/7/57 88/9/57 87/10/57
f 89/11/91 93/6/91 91/8/91 87/12/91
f 90/3/92 88/2/92 95/2/92 96/3/92
f 97/5/93 96/13/93 95/14/93 98/7/93
f 88/9/94 92/7/94 98/7/94 95/9/94
f 94/5/95 90/3/95 96/3/95 97/5/95
f 92/7/96 94/5/96 97/5/96 98/7/96
f 99/1/97 101/4/97 102/3/97 100/2/97
f 101/4/68 105/6/68 106/5/68 102/3/68
f 105/6/98 103/8/98 104/7/98 106/5/98
f 103/8/57 99/10/57 100/9/57 104/7/57
f 101/11/99 99/12/99 103/8/99 105/6/99
f 102/3/100 108/3/100 107/2/100 100/2/100
f 109/5/101 110/7/101 107/14/101 108/13/101
f 100/9/102 107/9/102 110/7/102 104/7/102
f 106/5/103 109/5/103 108/3/103 102/3/103
f 104/7/104 110/7/104 109/5/104 106/5/104
f 127/90/105 112/2/105 114/3/105 128/91/105
f 128/91/106 114/3/106 118/5/106 129/29/106
f 129/29/107 118/5/107 116/7/107 130/92/107
f 130/92/108 116/7/108 112/9/108 127/93/108
f 113/11/109 117/6/109 115/8/109 111/12/109
f 124/3/110 123/2/110 119/2/110 120/3/110
f 121/5/111 120/13/111 119/14/111 122/7/111
f 123/9/112 125/7/112 122/7/112 119/9/112
f 126/5/113 124/3/113 120/3/113 121/5/113
f 125/7/114 126/5/114 121/5/114 122/7/114
f 116/7/115 118/5/115 126/5/115 125/7/115
f 118/5/116 114/3/116 124/3/116 126/5/116
f 112/9/117 116/7/117 125/7/117 123/9/117
f 114/3/118 112/2/118 123/2/118 124/3/118
f 115/8/108 130/92/108 127/93/108 111/10/108
f 117/6/119 129/29/119 130/92/119 115/8/119
f 113/4/106 128/91/106 129/29/106 117/6/106
f 111/1/120 127/90/120 128/91/120 113/4/120
f 147/90/121 148/91/121 134/3/121 132/2/121
f 148/91/122 149/29/122 138/5/122 134/3/122
f 149/29/123 150/92/123 136/7/123 138/5/123
f 150/92/124 147/93/124 132/9/124 136/7/124
f 133/11/125 131/12/125 135/8/125 137/6/125
f 144/3/126 140/3/126 139/2/126 143/2/126
f 141/5/127 142/7/127 139/14/127 140/13/127
f 143/9/128 139/9/128 142/7/128 145/7/128
f 146/5/129 141/5/129 140/3/129 144/3/129
f 145/7/130 142/7/130 141/5/130 146/5/130
f 136/7/131 145/7/131 146/5/131 138/5/131
f 138/5/132 146/5/132 144/3/132 134/3/132
f 132/9/133 143/9/133 145/7/133 136/7/133
f 134/3/134 144/3/134 143/2/134 132/2/134
f 135/8/124 131/10/124 147/93/124 150/92/124
f 137/6/135 135/8/135 150/92/135 149/29/135
f 133/4/122 137/6/122 149/29/122 148/91/122
f 131/1/136 133/4/136 148/91/136 147/90/136
f 167/90/137 168/91/137 154/3/137 152/2/137
f 168/91/124 169/29/124 158/5/124 154/3/124
f 169/29/138 170/92/138 156/7/138 158/5/138
f 170/92/122 167/93/122 152/9/122 156/7/122
f 153/11/139 151/12/139 155/8/139 157/6/139
f 164/3/140 160/3/140 159/2/140 163/2/140
f 161/5/141 162/7/141 159/14/141 160/13/141
f 163/9/142 159/9/142 162/7/142 165/7/142
f 166/5/143 161/5/143 160/3/143 164/3/143
f 165/7/144 162/7/144 161/5/144 166/5/144
f 156/7/145 165/7/145 166/5/145 158/5/145
f 158/5/146 166/5/146 164/3/146 154/3/146
f 152/9/147 163/9/147 165/7/147 156/7/147
f 154/3/148 164/3/148 163/2/148 152/2/148
f 155/8/122 151/10/122 167/93/122 170/92/122
f 157/6/149 155/8/149 170/92/149 169/29/149
f 153/4/124 157/6/124 169/29/124 168/91/124
f 151/1/150 153/4/150 168/91/150 167/90/150
f 187/90/151 172/2/151 174/3/151 188/91/151
f 188/91/108 174/3/108 178/5/108 189/29/108
f 189/29/152 178/5/152 176/7/152 190/92/152
f 190/92/106 176/7/106 172/9/106 187/93/106
f 173/11/153 177/6/153 175/8/153 171/12/153
f 184/3/154 183/2/154 179/2/154 180/3/154
f 181/5/155 180/13/155 179/14/155 182/7/155
f 183/9/156 185/7/156 182/7/156 179/9/156
f 186/5/157 184/3/157 180/3/157 181/5/157
f 185/7/158 186/5/158 181/5/158 182/7/158
f 176/7/159 178/5/159 186/5/159 185/7/159
f 178/5/160 174/3/160 184/3/160 186/5/160
f 172/9/161 176/7/161 185/7/161 183/9/161
f 174/3/162 172/2/162 183/2/162 184/3/162
f 175/8/106 190/92/106 187/93/106 171/10/106
f 177/6/163 189/29/163 190/92/163 175/8/163
f 173/4/108 188/91/108 189/29/108 177/6/108
f 171/1/164 187/90/164 188/91/164 173/4/164
