# Blender 4.1.1
# www.blender.org
o Cube.051
v -1.267833 0.250606 -1.124884
v -0.859370 0.931212 -0.800549
v -1.267833 0.250606 -0.050309
v -0.859370 0.931212 -0.296876
v -0.071720 0.931212 -0.916923
v -0.071720 0.931212 -0.180502
v -0.071720 0.250605 -1.373166
v -1.009211 0.175062 -0.932341
v -1.009211 0.175062 -0.242852
v -0.071720 -0.002833 -1.091648
v -0.071720 0.021183 0.143798
v -0.475590 0.917938 -0.101916
v -0.578385 0.250605 -1.249025
v -0.405363 0.931212 -0.858736
v -0.721149 0.234957 0.226329
v -0.465081 0.037939 -1.011994
v -0.400757 0.073577 0.130655
v -0.407331 0.265783 0.526994
v -0.071720 0.265783 0.616026
v -0.071720 0.940405 0.133616
v -0.071720 0.201556 0.588095
v -0.301193 0.201556 0.516324
v -0.287453 0.940405 0.091885
v -0.340484 0.121503 0.335484
v -0.398673 0.929171 -0.055340
v -0.589772 0.250370 0.312970
v -0.071720 0.097821 0.388386
v -0.071720 0.935808 -0.098189
v -1.019685 0.590925 -0.915152
v -1.019685 0.590925 -0.207484
v -0.071720 0.590925 -1.094624
v -0.542320 0.576354 0.027617
v -0.455797 0.590925 -1.004888
v -0.311438 0.603037 0.274682
v -0.444750 0.589695 0.093521
v 1.124393 0.250605 -1.124884
v 0.715930 0.931212 -0.800549
v 1.124393 0.250605 -0.050309
v 0.715930 0.931212 -0.296876
v 0.865770 0.175061 -0.932341
v 0.865770 0.175061 -0.242852
v 0.332150 0.917938 -0.101916
v 0.434945 0.250605 -1.249025
v 0.261923 0.931212 -0.858736
v 0.577708 0.234957 0.226329
v 0.321641 0.037939 -1.011994
v 0.257317 0.073577 0.130655
v 0.263890 0.265783 0.526994
v 0.157752 0.201556 0.516324
v 0.144013 0.940405 0.091885
v 0.197043 0.121502 0.335484
v 0.255233 0.929171 -0.055340
v 0.446332 0.250370 0.312970
v 0.876245 0.590925 -0.915152
v 0.876245 0.590925 -0.207484
v 0.398880 0.576353 0.027617
v 0.312357 0.590925 -1.004888
v 0.167998 0.603037 0.274682
v 0.301310 0.589695 0.093521
v -0.071720 0.603094 0.374821
v -0.255623 -0.023078 0.369752
v -0.255623 0.344727 0.369752
v -0.255623 -0.023078 0.001946
v -0.255623 0.344727 0.001946
v 0.112183 -0.023078 0.369752
v 0.112183 0.344727 0.369752
v 0.112183 -0.023078 0.001946
v 0.112183 0.344727 0.001946
v -0.071720 0.244150 0.258683
v -0.071720 0.211785 0.452086
v -0.026780 0.233074 0.258683
v -0.041822 0.204416 0.452086
v 0.007864 0.202382 0.258683
v -0.018773 0.183996 0.452086
v 0.024276 0.159105 0.258683
v -0.007853 0.155204 0.452086
v 0.018697 0.113158 0.258683
v -0.011565 0.124635 0.452086
v -0.007595 0.075067 0.258683
v -0.029057 0.099293 0.452086
v -0.048578 0.053558 0.258683
v -0.056323 0.084983 0.452086
v -0.094862 0.053558 0.258683
v -0.087116 0.084983 0.452086
v -0.135845 0.075067 0.258683
v -0.114382 0.099293 0.452086
v -0.162137 0.113158 0.258683
v -0.131875 0.124635 0.452086
v -0.167716 0.159105 0.258683
v -0.135587 0.155204 0.452086
v -0.151304 0.202382 0.258683
v -0.124667 0.183996 0.452086
v -0.116659 0.233074 0.258683
v -0.101618 0.204416 0.452086
v -0.026780 0.233074 0.452086
v -0.071720 0.244150 0.452086
v 0.007864 0.202382 0.452086
v 0.024276 0.159105 0.452086
v 0.018697 0.113158 0.452086
v -0.007595 0.075067 0.452086
v -0.048578 0.053558 0.452086
v -0.094862 0.053558 0.452086
v -0.135845 0.075067 0.452086
v -0.162137 0.113158 0.452086
v -0.167716 0.159105 0.452086
v -0.151304 0.202382 0.452086
v -0.116659 0.233074 0.452086
v -0.057981 0.173626 0.373000
v -0.071720 0.177012 0.373000
v -0.047390 0.164243 0.373000
v -0.042372 0.151012 0.373000
v -0.044078 0.136966 0.373000
v -0.052116 0.125320 0.373000
v -0.064645 0.118745 0.373000
v -0.078795 0.118745 0.373000
v -0.091324 0.125320 0.373000
v -0.099362 0.136966 0.373000
v -0.101068 0.151012 0.373000
v -0.096050 0.164243 0.373000
v -0.085459 0.173626 0.373000
v -0.647756 0.166256 -0.467566
v -0.483674 0.122405 -0.467566
v -0.647756 0.166256 -0.720824
v -0.483674 0.122405 -0.720824
v -0.711720 -0.083301 -0.467566
v -0.547638 -0.127152 -0.467566
v -0.711720 -0.083301 -0.720824
v -0.547638 -0.127152 -0.720824
v 0.504317 0.166256 -0.467566
v 0.340234 0.122405 -0.467566
v 0.504317 0.166256 -0.720824
v 0.340234 0.122406 -0.720824
v 0.568281 -0.083301 -0.467566
v 0.404199 -0.127151 -0.467566
v 0.568281 -0.083301 -0.720824
v 0.404199 -0.127151 -0.720824
v -0.696383 0.177828 -0.061686
v -0.530410 0.133472 -0.061686
v -0.696383 0.177828 -0.314944
v -0.530410 0.133472 -0.314944
v -0.760318 -0.071738 -0.061686
v -0.594345 -0.116094 -0.061686
v -0.760318 -0.071738 -0.314944
v -0.594345 -0.116094 -0.314944
v 0.552943 0.177828 -0.061686
v 0.386970 0.133472 -0.061686
v 0.552943 0.177828 -0.314944
v 0.386970 0.133472 -0.314944
v 0.616878 -0.071738 -0.061686
v 0.450905 -0.116094 -0.061686
v 0.616878 -0.071738 -0.314944
v 0.450905 -0.116094 -0.314944
v -1.649243 1.064383 1.936677
v -1.649243 1.289527 1.936677
v -1.720756 1.064383 1.693678
v -1.720756 1.289527 1.693678
v 1.064024 1.064383 1.138185
v 1.064024 1.289527 1.138185
v 0.992512 1.064383 0.895186
v 0.992512 1.289527 0.895186
v 0.088089 1.401878 1.161350
v -0.816333 1.401878 1.427514
v -0.816333 1.627022 1.427514
v 0.088089 1.627022 1.161350
v -0.744821 1.401878 1.670513
v 0.159602 1.401878 1.404349
v 0.159602 1.627022 1.404349
v -0.744821 1.627022 1.670513
v -0.077853 0.104522 1.095221
v -0.535836 -0.144832 1.271200
v 0.047746 0.106303 1.475893
v -0.410237 -0.143051 1.651872
v 0.882368 0.207414 0.801627
v 0.635710 -0.057910 0.884252
v 1.007967 0.209195 1.182299
v 0.761309 -0.056129 1.264923
v 0.433881 0.098088 1.360382
v 0.207569 -0.165664 1.448138
v 0.308282 0.096307 0.979710
v 0.081969 -0.167445 1.067466
v 1.087492 0.136453 0.320972
v 1.087492 0.998533 0.320972
v 1.087492 0.136453 -0.541108
v 1.087492 0.998533 -0.541108
v 1.949572 0.136453 0.320972
v 1.949572 0.998533 0.320972
v 1.949572 0.136453 -0.541108
v 1.949572 0.998533 -0.541108
v 1.077980 0.835502 -1.186833
v 1.077980 0.299484 -1.186833
v 1.613998 0.299484 -1.186833
v 1.613998 0.835502 -1.186833
v 0.900872 0.250856 0.697232
v 0.900872 1.250686 0.697232
v 1.537180 1.250686 0.697232
v 1.537181 0.250856 0.697232
v 0.900872 0.250856 1.176534
v 0.900872 1.250686 1.176534
v 1.537180 1.250686 1.176534
v 1.537181 0.250856 1.176534
vn -0.0035 0.9999 0.0095
vn 0.0140 0.9998 0.0113
vn -0.0101 0.9999 -0.0122
vn -0.8524 0.5229 -0.0000
vn -0.8080 0.5892 -0.0000
vn -0.8538 0.5207 -0.0000
vn -0.1602 0.5194 -0.8394
vn -0.1575 0.6090 -0.7774
vn -0.1346 0.5995 -0.7890
vn -0.1347 0.5202 -0.8434
vn -0.2585 -0.8862 0.3845
vn -0.0000 -0.9319 0.3626
vn -0.0000 -0.7466 0.6653
vn -0.2911 -0.7603 0.5807
vn -0.1750 -0.8332 -0.5245
vn -0.0000 -0.7630 -0.6463
vn -0.0000 -0.9681 -0.2505
vn -0.1767 -0.9626 -0.2052
vn -0.0000 -0.9897 0.1433
vn -0.2055 -0.9615 0.1827
vn -0.2669 -0.9551 0.1285
vn -0.2440 -0.9534 -0.1773
vn -0.2271 -0.9625 -0.1483
vn -0.2469 -0.9644 0.0951
vn -0.2858 -0.9036 0.3191
vn -0.3930 -0.8141 0.4275
vn -0.4005 -0.7198 0.5670
vn -0.3709 0.5136 0.7737
vn -0.3451 0.5951 0.7258
vn -0.4115 0.6058 0.6810
vn -0.4480 0.5205 0.7269
vn -0.0000 0.5471 -0.8371
vn -0.0000 0.6300 -0.7766
vn -0.0000 1.0000 0.0081
vn -0.0000 0.9993 -0.0382
vn -0.0000 -0.4722 0.8815
vn -0.0000 0.9976 -0.0691
vn -0.0344 0.9962 -0.0799
vn -0.0123 0.9992 -0.0381
vn -0.0000 0.9993 -0.0381
vn -0.6251 0.4889 0.6085
vn -0.5710 0.5988 0.5615
vn -0.6599 0.5735 0.4855
vn -0.7148 0.4710 0.5169
vn -0.4744 0.3971 0.7857
vn -0.6697 0.3718 0.6428
vn -0.7648 0.3456 0.5437
vn -0.0000 0.4408 -0.8976
vn -0.1582 0.4129 -0.8969
vn -0.3995 0.3981 0.8258
vn -0.1324 0.3901 -0.9112
vn -0.9046 0.4262 -0.0000
vn 0.0035 0.9999 0.0095
vn 0.0101 0.9999 -0.0122
vn -0.0140 0.9998 0.0113
vn 0.8524 0.5229 -0.0000
vn 0.8538 0.5207 -0.0000
vn 0.8080 0.5892 -0.0000
vn 0.1602 0.5194 -0.8394
vn 0.1347 0.5202 -0.8434
vn 0.1346 0.5995 -0.7890
vn 0.1575 0.6090 -0.7774
vn 0.2585 -0.8862 0.3845
vn 0.2911 -0.7603 0.5807
vn 0.1750 -0.8332 -0.5245
vn 0.1767 -0.9626 -0.2052
vn 0.2055 -0.9615 0.1827
vn 0.2669 -0.9551 0.1285
vn 0.2469 -0.9644 0.0951
vn 0.2271 -0.9625 -0.1483
vn 0.2440 -0.9534 -0.1773
vn 0.2858 -0.9036 0.3191
vn 0.3930 -0.8141 0.4275
vn 0.4005 -0.7198 0.5670
vn 0.3709 0.5136 0.7737
vn 0.4480 0.5205 0.7269
vn 0.4115 0.6058 0.6810
vn 0.3451 0.5951 0.7258
vn 0.0123 0.9992 -0.0381
vn 0.0344 0.9962 -0.0799
vn 0.6251 0.4889 0.6085
vn 0.7148 0.4710 0.5169
vn 0.6599 0.5735 0.4855
vn 0.5710 0.5988 0.5615
vn 0.4744 0.3971 0.7857
vn 0.6697 0.3718 0.6428
vn 0.7648 0.3456 0.5437
vn 0.1582 0.4129 -0.8969
vn 0.3995 0.3981 0.8258
vn 0.1324 0.3901 -0.9112
vn 0.9046 0.4262 -0.0000
vn -0.0000 0.6142 0.7891
vn -0.0000 0.5804 0.8143
vn -0.2528 0.5589 0.7898
vn -0.2512 0.5945 0.7638
vn -0.0000 0.5388 0.8425
vn -0.2539 0.5211 0.8148
vn 0.2512 0.5945 0.7638
vn 0.2528 0.5589 0.7898
vn 0.2539 0.5211 0.8148
vn -1.0000 -0.0000 -0.0000
vn -0.0000 -0.0000 -1.0000
vn 1.0000 -0.0000 -0.0000
vn -0.0000 -0.0000 1.0000
vn -0.0000 -1.0000 -0.0000
vn -0.0000 1.0000 -0.0000
vn 0.4272 0.9041 -0.0000
vn 0.8071 0.5904 -0.0000
vn 0.9920 0.1259 -0.0000
vn 0.9291 -0.3699 -0.0000
vn 0.6346 -0.7728 -0.0000
vn 0.2093 -0.9779 -0.0000
vn -0.2093 -0.9779 -0.0000
vn -0.6346 -0.7728 -0.0000
vn -0.9291 -0.3699 -0.0000
vn -0.9920 0.1259 -0.0000
vn -0.8071 0.5904 -0.0000
vn 0.5463 0.7353 0.4012
vn 0.1717 0.8994 0.4020
vn 0.2257 0.8872 0.4025
vn 0.6258 0.6681 0.4024
vn -0.4272 0.9041 -0.0000
vn -0.3578 -0.8431 0.4014
vn -0.0000 -0.9154 0.4025
vn -0.4408 -0.8023 0.4024
vn 0.8392 0.3662 0.4021
vn 0.8626 0.3067 0.4024
vn -0.7136 -0.5740 0.4016
vn -0.7679 -0.4985 0.4024
vn 0.9067 -0.1260 0.4024
vn 0.9096 -0.1034 0.4025
vn -0.9067 -0.1260 0.4024
vn -0.9096 -0.1034 0.4025
vn 0.7136 -0.5740 0.4016
vn 0.7679 -0.4985 0.4024
vn -0.8392 0.3662 0.4021
vn -0.8626 0.3067 0.4024
vn 0.3578 -0.8431 0.4014
vn 0.4408 -0.8023 0.4024
vn -0.5463 0.7353 0.4012
vn -0.6258 0.6681 0.4024
vn -0.1717 0.8994 0.4020
vn -0.2257 0.8872 0.4025
vn 0.2582 0.9661 -0.0000
vn -0.2582 -0.9661 -0.0000
vn -0.9687 0.2483 -0.0000
vn 0.9687 -0.2483 -0.0000
vn -0.2582 0.9661 -0.0000
vn 0.2582 -0.9661 -0.0000
vn 0.9687 0.2483 -0.0000
vn -0.9687 -0.2483 -0.0000
vn -0.9687 0.2482 -0.0000
vn 0.9687 -0.2482 -0.0000
vn 0.9687 0.2482 -0.0000
vn -0.9687 -0.2482 -0.0000
vn -0.9593 -0.0000 0.2823
vn -0.2823 -0.0000 -0.9593
vn 0.9593 -0.0000 -0.2823
vn 0.2823 -0.0000 0.9593
vn -0.3233 -0.9415 0.0952
vn -0.3233 0.9415 0.0952
vn 0.3233 0.9415 -0.0952
vn 0.3233 -0.9415 -0.0952
vn -0.4320 0.8912 0.1384
vn 0.2975 0.0412 0.9538
vn 0.6791 -0.7001 -0.2208
vn -0.3043 -0.0820 -0.9490
vn -0.1739 0.9833 0.0528
vn -0.0316 -0.9994 0.0151
vn 0.1766 -0.9828 -0.0537
vn 0.0181 0.9998 -0.0106
vn -0.2975 -0.0412 -0.9538
vn 0.3043 0.0820 0.9490
vn -0.0000 0.9696 -0.2448
vn -0.0000 0.8307 -0.5567
vn -0.9999 -0.0000 0.0147
vn 0.8873 -0.0000 -0.4611
vn -0.0000 -0.9696 -0.2448
vn 0.6740 -0.0000 0.7387
vn -0.8959 -0.0000 -0.4443
vn -0.0000 -0.9568 0.2909
vt 0.312500 0.500000
vt 0.375000 0.500000
vt 0.375000 0.750000
vt 0.312500 0.750000
vt 0.500000 0.500000
vt 0.625000 0.500000
vt 0.625000 0.750000
vt 0.500000 0.750000
vt 0.500000 0.437500
vt 0.625000 0.437500
vt 0.685763 0.750000
vt 0.746498 0.750000
vt 0.744837 0.750000
vt 0.684938 0.750000
vt 0.625000 0.375000
vt 0.687500 0.500000
vt 0.750000 0.500000
vt 0.750000 0.750000
vt 0.687500 0.750000
vt 0.625000 0.812500
vt 0.500000 0.812500
vt 0.500000 0.375000
vt 0.250000 0.500000
vt 0.250000 0.750000
vt 0.625000 0.875000
vt 0.375000 0.812500
vt 0.375000 0.375000
vt 0.375000 0.437500
vt 0.000000 0.000000
vt 0.375000 0.000000
vt 0.625000 0.000000
vt 0.625000 0.250000
vt 0.375000 0.250000
vt 0.625000 1.000000
vt 0.375000 1.000000
vt 0.125000 0.500000
vt 0.125000 0.750000
vt 0.875000 0.500000
vt 0.875000 0.750000
vt 1.000000 0.500000
vt 1.000000 1.000000
vt 0.923077 1.000000
vt 0.923077 0.500000
vt 0.846154 1.000000
vt 0.846154 0.500000
vt 0.769231 1.000000
vt 0.769231 0.500000
vt 0.692308 1.000000
vt 0.692308 0.500000
vt 0.615385 1.000000
vt 0.615385 0.500000
vt 0.538462 1.000000
vt 0.538462 0.500000
vt 0.461538 1.000000
vt 0.461538 0.500000
vt 0.384615 1.000000
vt 0.384615 0.500000
vt 0.307692 1.000000
vt 0.307692 0.500000
vt 0.230769 1.000000
vt 0.230769 0.500000
vt 0.153846 1.000000
vt 0.153846 0.500000
vt 0.116689 0.099523
vt 0.201889 0.054806
vt 0.076923 1.000000
vt 0.076923 0.500000
vt 0.000000 1.000000
vt 0.000000 0.500000
vt 0.750000 0.490000
vt 0.861534 0.462509
vt 0.947516 0.386336
vt 0.988250 0.278929
vt 0.974404 0.164895
vt 0.909149 0.070357
vt 0.807436 0.016974
vt 0.692564 0.016974
vt 0.590851 0.070357
vt 0.525596 0.164895
vt 0.511750 0.278929
vt 0.552484 0.386336
vt 0.638466 0.462509
vt 0.250000 0.451036
vt 0.343426 0.428008
vt 0.361534 0.462509
vt 0.250000 0.490000
vt 0.415449 0.364201
vt 0.447516 0.386336
vt 0.449570 0.274232
vt 0.488250 0.278929
vt 0.437972 0.178712
vt 0.474404 0.164895
vt 0.383311 0.099523
vt 0.409149 0.070357
vt 0.298111 0.054806
vt 0.307436 0.016974
vt 0.192564 0.016974
vt 0.090851 0.070357
vt 0.062028 0.178712
vt 0.025596 0.164895
vt 0.050430 0.274232
vt 0.011750 0.278929
vt 0.084551 0.364201
vt 0.052484 0.386336
vt 0.156574 0.428008
vt 0.138466 0.462509
vt 0.375000 0.416667
vt 0.625000 0.416667
vt 0.375000 0.916667
vt 0.625000 0.916667
vt 0.291667 0.500000
vt 0.291667 0.750000
vt 0.791667 0.500000
vt 0.791667 0.750000
vt 0.708333 0.500000
vt 0.708333 0.750000
vt 0.208333 0.500000
vt 0.208333 0.750000
vt 0.625000 0.833333
vt 0.375000 0.833333
vt 0.625000 0.333333
vt 0.375000 0.333333
vt 0.375000 0.875000
s 1
f 14/1/1 2/2/2 4/3/2 12/4/3
f 29/5/4 1/6/5 3/7/5 30/8/6
f 33/9/7 13/10/8 1/6/9 29/5/10
f 24/11/11 27/12/12 21/13/13 22/14/14
f 13/10/15 7/15/16 10/15/17 16/10/18
f 16/16/18 10/17/17 11/18/19 17/19/20
f 3/7/21 1/6/22 8/6/23 9/7/24
f 15/20/25 3/7/21 9/7/24 17/20/20
f 26/20/26 24/20/11 22/20/14 18/20/27
f 8/6/23 16/16/18 17/19/20 9/7/24
f 1/6/22 13/10/15 16/10/18 8/6/23
f 30/8/28 3/7/29 15/20/30 32/21/31
f 31/22/32 7/15/33 13/10/8 33/9/7
f 5/23/34 14/1/1 12/4/3 6/24/35
f 19/25/36 18/20/27 22/20/14 21/25/13
f 28/24/37 25/4/38 23/4/39 20/24/40
f 35/21/41 26/20/42 18/20/43 34/21/44
f 32/21/31 15/20/30 26/20/42 35/21/41
f 6/24/35 12/4/3 25/4/38 28/24/37
f 15/20/25 17/20/20 24/20/11 26/20/26
f 17/19/20 11/18/19 27/12/12 24/11/11
f 12/26/45 32/21/31 35/21/41 25/26/46
f 25/26/46 35/21/41 34/21/44 23/26/47
f 5/27/48 31/22/32 33/9/7 14/28/49
f 4/3/50 30/8/28 32/21/31 12/26/45
f 14/28/49 33/9/7 29/5/10 2/2/51
f 2/2/52 29/5/4 30/8/6 4/3/52
f 44/1/53 42/4/54 39/3/55 37/2/55
f 54/5/56 55/8/57 38/7/58 36/6/58
f 57/9/59 54/5/60 36/6/61 43/10/62
f 51/11/63 49/14/64 21/13/13 27/12/12
f 43/10/65 46/10/66 10/15/17 7/15/16
f 46/16/66 47/19/67 11/18/19 10/17/17
f 38/7/68 41/7/69 40/6/70 36/6/71
f 45/20/72 47/20/67 41/7/69 38/7/68
f 53/20/73 48/20/74 49/20/64 51/20/63
f 40/6/70 41/7/69 47/19/67 46/16/66
f 36/6/71 40/6/70 46/10/66 43/10/65
f 55/8/75 56/21/76 45/20/77 38/7/78
f 31/22/32 57/9/59 43/10/62 7/15/33
f 5/23/34 6/24/35 42/4/54 44/1/53
f 19/25/36 21/25/13 49/20/64 48/20/74
f 28/24/37 20/24/40 50/4/79 52/4/80
f 59/21/81 58/21/82 48/20/83 53/20/84
f 56/21/76 59/21/81 53/20/84 45/20/77
f 6/24/35 28/24/37 52/4/80 42/4/54
f 45/20/72 53/20/73 51/20/63 47/20/67
f 47/19/67 51/11/63 27/12/12 11/18/19
f 42/26/85 52/26/86 59/21/81 56/21/76
f 52/26/86 50/26/87 58/21/82 59/21/81
f 5/27/48 44/28/88 57/9/59 31/22/32
f 39/3/89 42/26/85 56/21/76 55/8/75
f 44/28/88 37/2/90 54/5/60 57/9/59
f 37/2/91 39/3/91 55/8/57 54/5/56
f 19/25/92 60/29/93 34/21/94 18/20/95
f 20/24/96 23/26/97 34/21/94 60/29/93
f 19/25/92 48/20/98 58/21/99 60/29/93
f 20/24/96 60/29/93 58/21/99 50/26/100
s 0
f 61/30/101 62/31/101 64/32/101 63/33/101
f 63/33/102 64/32/102 68/6/102 67/2/102
f 67/2/103 68/6/103 66/7/103 65/3/103
f 65/3/104 66/7/104 62/34/104 61/35/104
f 63/36/105 67/2/105 65/3/105 61/37/105
f 68/6/106 64/38/106 62/39/106 66/7/106
s 1
f 69/40/106 96/41/106 95/42/107 71/43/107
f 71/43/107 95/42/107 97/44/108 73/45/108
f 73/45/108 97/44/108 98/46/109 75/47/109
f 75/47/109 98/46/109 99/48/110 77/49/110
f 77/49/110 99/48/110 100/50/111 79/51/111
f 79/51/111 100/50/111 101/52/112 81/53/112
f 81/53/112 101/52/112 102/54/113 83/55/113
f 83/55/113 102/54/113 103/56/114 85/57/114
f 85/57/114 103/56/114 104/58/115 87/59/115
f 87/59/115 104/58/115 105/60/116 89/61/116
f 89/61/116 105/60/116 106/62/117 91/63/117
f 86/64/118 84/65/119 115/65/120 116/64/121
f 91/63/117 106/62/117 107/66/122 93/67/122
f 93/67/122 107/66/122 96/68/106 69/69/106
f 69/70/102 71/71/102 73/72/102 75/73/102 77/74/102 79/75/102 81/76/102 83/77/102 85/78/102 87/79/102 89/80/102 91/81/102 93/82/102
f 70/83/104 72/84/104 95/85/104 96/86/104
f 72/84/104 74/87/104 97/88/104 95/85/104
f 74/87/104 76/89/104 98/90/104 97/88/104
f 76/89/104 78/91/104 99/92/104 98/90/104
f 78/91/104 80/93/104 100/94/104 99/92/104
f 80/93/104 82/95/104 101/96/104 100/94/104
f 82/95/104 84/65/104 102/97/104 101/96/104
f 84/65/104 86/64/104 103/98/104 102/97/104
f 86/64/104 88/99/104 104/100/104 103/98/104
f 88/99/104 90/101/104 105/102/104 104/100/104
f 90/101/104 92/103/104 106/104/104 105/102/104
f 92/103/104 94/105/104 107/106/104 106/104/104
f 94/105/104 70/83/104 96/86/104 107/106/104
f 108/84/104 109/83/104 120/105/104 119/103/104 118/101/104 117/99/104 116/64/104 115/65/104 114/95/104 113/93/104 112/91/104 111/89/104 110/87/104
f 72/84/123 70/83/124 109/83/124 108/84/125
f 88/99/126 86/64/118 116/64/121 117/99/127
f 74/87/128 72/84/123 108/84/125 110/87/129
f 90/101/130 88/99/126 117/99/127 118/101/131
f 76/89/132 74/87/128 110/87/129 111/89/133
f 92/103/134 90/101/130 118/101/131 119/103/135
f 78/91/136 76/89/132 111/89/133 112/91/137
f 94/105/138 92/103/134 119/103/135 120/105/139
f 80/93/140 78/91/136 112/91/137 113/93/141
f 70/83/124 94/105/138 120/105/139 109/83/124
f 82/95/142 80/93/140 113/93/141 114/95/143
f 84/65/119 82/95/142 114/95/143 115/65/120
s 0
f 121/30/144 122/31/144 124/32/144 123/33/144
f 123/33/102 124/32/102 128/6/102 127/2/102
f 127/2/145 128/6/145 126/7/145 125/3/145
f 125/3/104 126/7/104 122/34/104 121/35/104
f 123/36/146 127/2/146 125/3/146 121/37/146
f 128/6/147 124/38/147 122/39/147 126/7/147
f 129/30/148 131/33/148 132/32/148 130/31/148
f 131/33/102 135/2/102 136/6/102 132/32/102
f 135/2/149 133/3/149 134/7/149 136/6/149
f 133/3/104 129/35/104 130/34/104 134/7/104
f 131/36/150 129/37/150 133/3/150 135/2/150
f 136/6/151 134/7/151 130/39/151 132/38/151
f 137/30/144 138/31/144 140/32/144 139/33/144
f 139/33/102 140/32/102 144/6/102 143/2/102
f 143/2/145 144/6/145 142/7/145 141/3/145
f 141/3/104 142/7/104 138/34/104 137/35/104
f 139/36/152 143/2/152 141/3/152 137/37/152
f 144/6/153 140/38/153 138/39/153 142/7/153
f 145/30/148 147/33/148 148/32/148 146/31/148
f 147/33/102 151/2/102 152/6/102 148/32/102
f 151/2/149 149/3/149 150/7/149 152/6/149
f 149/3/104 145/35/104 146/34/104 150/7/104
f 147/36/154 145/37/154 149/3/154 151/2/154
f 152/6/155 150/7/155 146/39/155 148/38/155
f 153/30/156 154/31/156 156/32/156 155/33/156
f 161/107/157 164/108/157 160/6/157 159/2/157
f 159/2/158 160/6/158 158/7/158 157/3/158
f 165/109/159 168/110/159 154/34/159 153/35/159
f 161/111/160 159/2/160 157/3/160 166/112/160
f 163/113/161 156/38/161 154/39/161 168/114/161
f 160/6/162 164/115/162 167/116/162 158/7/162
f 164/115/106 163/113/106 168/114/106 167/116/106
f 155/36/163 162/117/163 165/118/163 153/37/163
f 162/117/105 161/111/105 166/112/105 165/118/105
f 157/3/159 158/7/159 167/119/159 166/120/159
f 166/120/159 167/119/159 168/110/159 165/109/159
f 155/33/157 156/32/157 163/121/157 162/122/157
f 162/122/157 163/121/157 164/108/157 161/107/157
f 169/30/164 170/31/164 172/32/164 171/33/164
f 177/27/165 178/15/165 176/6/165 175/2/165
f 175/2/166 176/6/166 174/7/166 173/3/166
f 179/123/167 180/25/167 170/34/167 169/35/167
f 177/23/168 175/2/168 173/3/168 179/24/168
f 178/17/169 172/38/169 170/39/169 180/18/169
f 176/6/170 178/17/170 180/18/170 174/7/170
f 171/36/171 177/23/171 179/24/171 169/37/171
f 173/3/172 174/7/172 180/25/172 179/123/172
f 171/33/173 172/32/173 178/15/173 177/27/173
f 181/30/101 182/31/101 184/32/101 183/33/101
f 184/38/174 188/6/174 192/6/174 189/38/174
f 187/2/103 188/6/103 186/7/103 185/3/103
f 186/7/175 182/39/175 194/39/175 195/7/175
f 183/36/105 187/2/105 185/3/105 181/37/105
f 188/6/106 184/38/106 182/39/106 186/7/106
f 190/33/102 189/32/102 192/6/102 191/2/102
f 183/33/176 184/32/176 189/32/176 190/33/176
f 188/6/177 187/2/177 191/2/177 192/6/177
f 187/2/178 183/36/178 190/36/178 191/2/178
f 193/37/105 196/3/105 200/3/105 197/37/105
f 185/3/179 186/7/179 195/7/179 196/3/179
f 182/31/180 181/30/180 193/30/180 194/31/180
f 181/37/181 185/3/181 196/3/181 193/37/181
f 200/3/104 199/7/104 198/34/104 197/35/104
f 194/31/101 193/30/101 197/30/101 198/31/101
f 195/7/106 194/39/106 198/39/106 199/7/106
f 196/3/103 195/7/103 199/7/103 200/3/103
