# Blender 4.3.2
# www.blender.org
mtllib Hat (belt).mtl
o Cylinder.002
v 0.002362 -0.038768 -0.579293
v -0.013998 0.058502 -0.580249
v 0.118775 -0.027114 -0.568213
v 0.090621 0.068976 -0.569621
v 0.230307 -0.023411 -0.525456
v 0.190853 0.083779 -0.538145
v 0.332672 -0.002754 -0.472172
v 0.282847 0.102344 -0.487031
v 0.421936 0.021295 -0.371797
v 0.363067 0.123956 -0.418243
v 0.494669 0.047811 -0.284422
v 0.428430 0.147785 -0.334424
v 0.548075 0.075774 -0.173875
v 0.476425 0.172916 -0.229091
v 0.580594 0.097765 -0.087351
v 0.505554 0.193902 -0.106721
v 0.591242 0.109482 0.034325
v 0.515094 0.204821 0.013149
v 0.580578 0.097970 0.156511
v 0.505514 0.194421 0.138978
v 0.547798 0.079356 0.248787
v 0.476141 0.176596 0.236995
v 0.494226 0.053539 0.336658
v 0.427980 0.153598 0.322170
v 0.421123 0.031804 0.425456
v 0.362284 0.134065 0.407353
v 0.331556 0.011679 0.498330
v 0.281792 0.115979 0.477260
v 0.228965 -0.006063 0.552481
v 0.189595 0.100035 0.529206
v 0.117294 -0.020740 0.585826
v 0.089238 0.086845 0.561195
v 0.000834 -0.031788 0.597086
v -0.015422 0.076916 0.571996
v -0.115940 -0.038783 0.585826
v -0.120365 0.070630 0.561195
v -0.228540 -0.041455 0.552481
v -0.221556 0.068229 0.529206
v -0.332639 -0.039702 0.498330
v -0.315108 0.069804 0.477260
v -0.424236 -0.033592 0.425456
v -0.397425 0.075295 0.407353
v -0.499811 -0.023358 0.336658
v -0.465343 0.084492 0.322170
v -0.556461 -0.009395 0.235349
v -0.516253 0.097040 0.224986
v -0.591781 0.004835 0.124669
v -0.547861 0.108094 0.107440
v -0.603867 0.011700 0.007738
v -0.558929 0.116946 -0.004730
v -0.592008 0.007769 -0.093263
v -0.548268 0.113353 -0.127474
v -0.556440 -0.009669 -0.201753
v -0.516183 0.096129 -0.238797
v -0.499368 -0.029087 -0.313089
v -0.464893 0.078679 -0.334424
v -0.423423 -0.044101 -0.400465
v -0.396643 0.065186 -0.418243
v -0.331522 -0.046397 -0.479721
v -0.314053 0.056169 -0.487031
v -0.227198 -0.046034 -0.535402
v -0.220299 0.051973 -0.538145
v -0.114459 -0.045157 -0.568213
v -0.118983 0.052761 -0.569621
vn 0.0967 0.0101 -0.9953
vn 0.3271 0.0433 -0.9440
vn 0.4594 0.0784 -0.8848
vn 0.6796 0.1432 -0.7195
vn 0.7467 0.1529 -0.6473
vn 0.8222 0.3262 -0.4664
vn 0.8079 0.4828 -0.3378
vn 0.7914 0.5990 -0.1223
vn 0.7680 0.6294 0.1183
vn 0.7205 0.5987 0.3500
vn 0.6569 0.5305 0.5358
vn 0.6241 0.4846 0.6129
vn 0.5274 0.4176 0.7399
vn 0.4011 0.3485 0.8471
vn 0.2477 0.2857 0.9257
vn 0.0741 0.2378 0.9685
vn -0.1093 0.2111 0.9713
vn -0.2904 0.2076 0.9341
vn -0.4579 0.2252 0.8600
vn -0.6028 0.2578 0.7551
vn -0.7199 0.2978 0.6270
vn -0.8080 0.3376 0.4829
vn -0.8715 0.3889 0.2987
vn -0.9071 0.4036 0.1194
vn -0.9248 0.3656 -0.1054
vn -0.9123 0.2544 -0.3209
vn -0.8603 0.1697 -0.4807
vn -0.7535 0.0954 -0.6505
vn -0.6447 0.0443 -0.7632
vn -0.4743 0.0135 -0.8802
vn -0.0786 0.9968 -0.0138
vn -0.2875 -0.0168 -0.9576
vn -0.0962 -0.0223 -0.9951
vn 0.0759 -0.9971 0.0086
vt 1.000000 0.500000
vt 1.000000 1.000000
vt 0.968750 1.000000
vt 0.968750 0.500000
vt 0.937500 1.000000
vt 0.937500 0.500000
vt 0.906250 1.000000
vt 0.906250 0.500000
vt 0.875000 1.000000
vt 0.875000 0.500000
vt 0.843750 1.000000
vt 0.843750 0.500000
vt 0.812500 1.000000
vt 0.812500 0.500000
vt 0.781250 1.000000
vt 0.781250 0.500000
vt 0.750000 1.000000
vt 0.750000 0.500000
vt 0.718750 1.000000
vt 0.718750 0.500000
vt 0.687500 1.000000
vt 0.687500 0.500000
vt 0.656250 1.000000
vt 0.656250 0.500000
vt 0.625000 1.000000
vt 0.625000 0.500000
vt 0.593750 1.000000
vt 0.593750 0.500000
vt 0.562500 1.000000
vt 0.562500 0.500000
vt 0.531250 1.000000
vt 0.531250 0.500000
vt 0.500000 1.000000
vt 0.500000 0.500000
vt 0.468750 1.000000
vt 0.468750 0.500000
vt 0.437500 1.000000
vt 0.437500 0.500000
vt 0.406250 1.000000
vt 0.406250 0.500000
vt 0.375000 1.000000
vt 0.375000 0.500000
vt 0.343750 1.000000
vt 0.343750 0.500000
vt 0.312500 1.000000
vt 0.312500 0.500000
vt 0.281250 1.000000
vt 0.281250 0.500000
vt 0.250000 1.000000
vt 0.250000 0.500000
vt 0.218750 1.000000
vt 0.218750 0.500000
vt 0.187500 1.000000
vt 0.187500 0.500000
vt 0.156250 1.000000
vt 0.156250 0.500000
vt 0.125000 1.000000
vt 0.125000 0.500000
vt 0.093750 1.000000
vt 0.093750 0.500000
vt 0.062500 1.000000
vt 0.062500 0.500000
vt 0.296822 0.485388
vt 0.250000 0.490000
vt 0.203178 0.485388
vt 0.158156 0.471731
vt 0.116663 0.449553
vt 0.080294 0.419706
vt 0.050447 0.383337
vt 0.028269 0.341844
vt 0.014612 0.296822
vt 0.010000 0.250000
vt 0.014612 0.203178
vt 0.028269 0.158156
vt 0.050447 0.116663
vt 0.080294 0.080294
vt 0.116663 0.050447
vt 0.158156 0.028269
vt 0.203178 0.014612
vt 0.250000 0.010000
vt 0.296822 0.014612
vt 0.341844 0.028269
vt 0.383337 0.050447
vt 0.419706 0.080294
vt 0.449553 0.116663
vt 0.471731 0.158156
vt 0.485388 0.203178
vt 0.490000 0.250000
vt 0.485388 0.296822
vt 0.471731 0.341844
vt 0.449553 0.383337
vt 0.419706 0.419706
vt 0.383337 0.449553
vt 0.341844 0.471731
vt 0.031250 1.000000
vt 0.031250 0.500000
vt 0.000000 1.000000
vt 0.000000 0.500000
vt 0.750000 0.490000
vt 0.796822 0.485388
vt 0.841844 0.471731
vt 0.883337 0.449553
vt 0.919706 0.419706
vt 0.949553 0.383337
vt 0.971731 0.341844
vt 0.985388 0.296822
vt 0.990000 0.250000
vt 0.985388 0.203178
vt 0.971731 0.158156
vt 0.949553 0.116663
vt 0.919706 0.080294
vt 0.883337 0.050447
vt 0.841844 0.028269
vt 0.796822 0.014612
vt 0.750000 0.010000
vt 0.703178 0.014612
vt 0.658156 0.028269
vt 0.616663 0.050447
vt 0.580294 0.080294
vt 0.550447 0.116663
vt 0.528269 0.158156
vt 0.514612 0.203178
vt 0.510000 0.250000
vt 0.514612 0.296822
vt 0.528269 0.341844
vt 0.550447 0.383337
vt 0.580294 0.419706
vt 0.616663 0.449553
vt 0.658156 0.471731
vt 0.703178 0.485388
s 0
f 1/1/1 2/2/1 4/3/1 3/4/1
f 3/4/2 4/3/2 6/5/2 5/6/2
f 5/6/3 6/5/3 8/7/3 7/8/3
f 7/8/4 8/7/4 10/9/4 9/10/4
f 9/10/5 10/9/5 12/11/5 11/12/5
f 11/12/6 12/11/6 14/13/6 13/14/6
f 13/14/7 14/13/7 16/15/7 15/16/7
f 15/16/8 16/15/8 18/17/8 17/18/8
f 17/18/9 18/17/9 20/19/9 19/20/9
f 19/20/10 20/19/10 22/21/10 21/22/10
f 21/22/11 22/21/11 24/23/11 23/24/11
f 23/24/12 24/23/12 26/25/12 25/26/12
f 25/26/13 26/25/13 28/27/13 27/28/13
f 27/28/14 28/27/14 30/29/14 29/30/14
f 29/30/15 30/29/15 32/31/15 31/32/15
f 31/32/16 32/31/16 34/33/16 33/34/16
f 33/34/17 34/33/17 36/35/17 35/36/17
f 35/36/18 36/35/18 38/37/18 37/38/18
f 37/38/19 38/37/19 40/39/19 39/40/19
f 39/40/20 40/39/20 42/41/20 41/42/20
f 41/42/21 42/41/21 44/43/21 43/44/21
f 43/44/22 44/43/22 46/45/22 45/46/22
f 45/46/23 46/45/23 48/47/23 47/48/23
f 47/48/24 48/47/24 50/49/24 49/50/24
f 49/50/25 50/49/25 52/51/25 51/52/25
f 51/52/26 52/51/26 54/53/26 53/54/26
f 53/54/27 54/53/27 56/55/27 55/56/27
f 55/56/28 56/55/28 58/57/28 57/58/28
f 57/58/29 58/57/29 60/59/29 59/60/29
f 59/60/30 60/59/30 62/61/30 61/62/30
f 4/63/31 2/64/31 64/65/31 62/66/31 60/67/31 58/68/31 56/69/31 54/70/31 52/71/31 50/72/31 48/73/31 46/74/31 44/75/31 42/76/31 40/77/31 38/78/31 36/79/31 34/80/31 32/81/31 30/82/31 28/83/31 26/84/31 24/85/31 22/86/31 20/87/31 18/88/31 16/89/31 14/90/31 12/91/31 10/92/31 8/93/31 6/94/31
f 61/62/32 62/61/32 64/95/32 63/96/32
f 63/96/33 64/95/33 2/97/33 1/98/33
f 1/99/34 3/100/34 5/101/34 7/102/34 9/103/34 11/104/34 13/105/34 15/106/34 17/107/34 19/108/34 21/109/34 23/110/34 25/111/34 27/112/34 29/113/34 31/114/34 33/115/34 35/116/34 37/117/34 39/118/34 41/119/34 43/120/34 45/121/34 47/122/34 49/123/34 51/124/34 53/125/34 55/126/34 57/127/34 59/128/34 61/129/34 63/130/34
