# Blender 4.1.1
# www.blender.org
o Sphere.005
v 0.184608 0.700624 -0.367094
v 0.317256 0.474950 -0.549668
v 0.365808 0.166674 -0.616495
v 0.317256 -0.141602 -0.549668
v 0.184608 -0.367275 -0.367094
v 0.296596 0.700624 -0.212956
v 0.511224 0.474950 -0.282693
v 0.589784 0.166674 -0.308219
v 0.511224 -0.141602 -0.282693
v 0.296596 -0.367275 -0.212956
v 0.296596 0.700624 -0.022431
v 0.511224 0.474950 0.047306
v 0.589784 0.166674 0.072831
v 0.511224 -0.141602 0.047306
v 0.296596 -0.367275 -0.022431
v 0.184608 0.700624 0.131707
v 0.317255 0.474950 0.314281
v 0.365808 0.166674 0.381107
v 0.317255 -0.141602 0.314281
v 0.184608 -0.367275 0.131707
v 0.003408 0.700624 0.190582
v 0.003408 0.474950 0.416256
v 0.003408 0.166674 0.498858
v 0.003408 -0.141602 0.416256
v 0.003408 -0.367275 0.190582
v -0.177792 0.700624 0.131707
v -0.310440 0.474950 0.314281
v -0.358993 0.166674 0.381107
v -0.310440 -0.141602 0.314281
v -0.177792 -0.367275 0.131707
v 0.003408 0.783226 -0.117694
v -0.289780 0.700624 -0.022431
v -0.504409 0.474950 0.047306
v -0.582968 0.166674 0.072831
v -0.504409 -0.141602 0.047306
v -0.289780 -0.367275 -0.022431
v 0.003408 -0.449878 -0.117694
v -0.289780 0.700624 -0.212956
v -0.504409 0.474950 -0.282693
v -0.582968 0.166674 -0.308219
v -0.504409 -0.141602 -0.282693
v -0.289780 -0.367275 -0.212956
v -0.177792 0.700624 -0.367094
v -0.310440 0.474950 -0.549668
v -0.358993 0.166674 -0.616495
v -0.310440 -0.141602 -0.549668
v -0.177792 -0.367275 -0.367094
v 0.003408 0.700624 -0.425970
v 0.003408 0.474950 -0.651644
v 0.003408 0.166674 -0.734246
v 0.003408 -0.141602 -0.651644
v 0.003408 -0.367275 -0.425970
v 0.003408 0.659884 -0.369429
v 0.003408 0.922772 -0.271594
v 0.120395 0.659884 -0.340594
v 0.074929 0.922772 -0.253966
v 0.210581 0.659884 -0.260695
v 0.130065 0.922772 -0.205119
v 0.253307 0.659884 -0.148037
v 0.156186 0.922772 -0.136245
v 0.238784 0.659884 -0.028428
v 0.147307 0.922772 -0.063120
v 0.170339 0.659884 0.070732
v 0.105462 0.922772 -0.002498
v 0.063652 0.659884 0.126726
v 0.040238 0.922772 0.031734
v -0.056836 0.659884 0.126726
v -0.033423 0.922772 0.031734
v -0.163523 0.659884 0.070732
v -0.098647 0.922772 -0.002498
v -0.231968 0.659884 -0.028428
v -0.140491 0.922772 -0.063120
v -0.246492 0.659884 -0.148037
v -0.149370 0.922772 -0.136245
v -0.203766 0.659884 -0.260695
v -0.123250 0.922772 -0.205119
v -0.113579 0.659884 -0.340594
v -0.068113 0.922772 -0.253966
v 0.120395 0.922772 -0.340594
v 0.003408 0.922772 -0.369429
v 0.210581 0.922772 -0.260695
v 0.253307 0.922772 -0.148037
v 0.238784 0.922772 -0.028428
v 0.170339 0.922772 0.070732
v 0.063652 0.922772 0.126726
v -0.056836 0.922772 0.126726
v -0.163523 0.922772 0.070732
v -0.231968 0.922772 -0.028428
v -0.246492 0.922772 -0.148037
v -0.203766 0.922772 -0.260695
v -0.113579 0.922772 -0.340594
v 0.074929 1.312106 -0.253966
v 0.003408 1.312106 -0.271594
v 0.130065 1.312106 -0.205119
v 0.156186 1.312106 -0.136245
v 0.147307 1.312106 -0.063120
v 0.105462 1.312106 -0.002498
v 0.040238 1.312106 0.031734
v -0.033423 1.312106 0.031734
v -0.098647 1.312106 -0.002498
v -0.140492 1.312106 -0.063120
v -0.149370 1.312106 -0.136245
v -0.123250 1.312106 -0.205119
v -0.068113 1.312106 -0.253966
v 0.260449 -0.432751 0.236093
v 0.448617 -0.112621 0.495083
v 0.517491 0.145107 0.589880
v 0.419309 -0.432751 0.017441
v 0.723771 -0.112621 0.116366
v 0.835211 0.145107 0.152575
v 0.419309 -0.432751 -0.252829
v 0.723771 -0.112621 -0.351754
v 0.835211 0.145107 -0.387963
v 0.260449 -0.432751 -0.471481
v 0.448616 -0.112621 -0.730471
v 0.517491 0.145107 -0.825268
v 0.003408 -0.432751 -0.554999
v 0.003408 -0.112621 -0.875128
v 0.003408 0.145107 -0.992304
v -0.253634 -0.432751 -0.471481
v -0.441801 -0.112621 -0.730471
v -0.510675 0.145107 -0.825268
v 0.003408 -0.549926 -0.117694
v -0.412494 -0.432751 -0.252829
v -0.716955 -0.112621 -0.351754
v -0.828396 0.145107 -0.387963
v -0.412494 -0.432751 0.017440
v -0.716955 -0.112621 0.116366
v -0.828396 0.145107 0.152575
v -0.253634 -0.432751 0.236093
v -0.441801 -0.112621 0.495083
v -0.510675 0.145107 0.589880
v 0.003408 -0.432751 0.319611
v 0.003408 -0.112621 0.639740
v 0.003408 0.145107 0.756916
v 0.200020 -0.334583 0.152919
v 0.343950 -0.089715 0.351022
v 0.396632 0.244781 0.423532
v 0.321533 -0.334583 -0.014329
v 0.554416 -0.089715 0.061339
v 0.639657 0.244781 0.089036
v 0.321533 -0.334583 -0.221059
v 0.554416 -0.089715 -0.296727
v 0.639657 0.244781 -0.324424
v 0.200020 -0.334583 -0.388307
v 0.343950 -0.089715 -0.586410
v 0.396632 0.244781 -0.658920
v 0.003408 -0.334583 -0.452190
v 0.003408 -0.089715 -0.697058
v 0.003408 0.244781 -0.786686
v -0.193204 -0.334583 -0.388307
v -0.337134 -0.089715 -0.586410
v -0.389816 0.244781 -0.658920
v 0.003408 -0.424211 -0.117694
v -0.314717 -0.334583 -0.221059
v -0.547601 -0.089715 -0.296728
v -0.632842 0.244781 -0.324424
v -0.314717 -0.334583 -0.014329
v -0.547601 -0.089715 0.061339
v -0.632842 0.244781 0.089036
v -0.193204 -0.334583 0.152919
v -0.337134 -0.089715 0.351022
v -0.389816 0.244781 0.423532
v 0.003408 -0.334583 0.216802
v 0.003408 -0.089715 0.461670
v 0.003408 0.244781 0.551299
v -0.609262 -0.135005 0.395273
v -0.609262 -0.256768 0.395273
v -0.689354 -0.135005 0.491453
v -0.689354 -0.256768 0.491453
v -0.682258 -0.135005 0.297816
v -0.682258 -0.256768 0.297816
v -0.797079 -0.135005 0.347628
v -0.797079 -0.256768 0.347628
v -0.874225 -0.594469 0.540822
v -0.903180 -0.581230 0.562510
v -0.925400 -0.581230 0.532843
v -0.896446 -0.594469 0.511156
v -0.768059 -0.341503 0.536378
v -0.825700 -0.269474 0.579551
v -0.919966 -0.269474 0.453697
v -0.862325 -0.341503 0.410523
v 0.616077 -0.135005 0.395273
v 0.616077 -0.256768 0.395273
v 0.696169 -0.135005 0.491453
v 0.696169 -0.256768 0.491453
v 0.689074 -0.135005 0.297816
v 0.689074 -0.256768 0.297816
v 0.803895 -0.135005 0.347628
v 0.803895 -0.256768 0.347628
v 0.881041 -0.594469 0.540822
v 0.909995 -0.581230 0.562510
v 0.932216 -0.581230 0.532843
v 0.903261 -0.594469 0.511156
v 0.774874 -0.341503 0.536378
v 0.832515 -0.269474 0.579551
v 0.926781 -0.269474 0.453697
v 0.869140 -0.341503 0.410523
v -0.609262 -0.135005 -0.630661
v -0.609262 -0.256767 -0.630661
v -0.689354 -0.135004 -0.726841
v -0.689354 -0.256767 -0.726841
v -0.682258 -0.135005 -0.533204
v -0.682258 -0.256768 -0.533204
v -0.797079 -0.135005 -0.583017
v -0.797079 -0.256767 -0.583017
v -0.874225 -0.594468 -0.776211
v -0.903180 -0.581229 -0.797898
v -0.925400 -0.581229 -0.768231
v -0.896446 -0.594468 -0.746544
v -0.768059 -0.341503 -0.771766
v -0.825700 -0.269473 -0.814940
v -0.919966 -0.269474 -0.689085
v -0.862325 -0.341503 -0.645912
v 0.616077 -0.135005 -0.630661
v 0.616077 -0.256767 -0.630661
v 0.696169 -0.135004 -0.726841
v 0.696169 -0.256767 -0.726841
v 0.689074 -0.135005 -0.533204
v 0.689074 -0.256767 -0.533204
v 0.803895 -0.135005 -0.583017
v 0.803895 -0.256767 -0.583017
v 0.881041 -0.594468 -0.776211
v 0.909996 -0.581229 -0.797898
v 0.932216 -0.581229 -0.768231
v 0.903261 -0.594468 -0.746544
v 0.774874 -0.341503 -0.771766
v 0.832515 -0.269473 -0.814940
v 0.926781 -0.269474 -0.689085
v 0.869140 -0.341503 -0.645912
vn 0.0838 0.9625 -0.2579
vn 0.0838 -0.9625 -0.2579
vn 0.2994 -0.2469 -0.9216
vn 0.2239 0.6892 -0.6892
vn 0.2239 -0.6892 -0.6892
vn 0.2994 0.2469 -0.9216
vn 0.2194 -0.9625 -0.1594
vn 0.7840 -0.2469 -0.5696
vn 0.5862 0.6892 -0.4259
vn 0.5862 -0.6892 -0.4259
vn 0.7840 0.2469 -0.5696
vn 0.2194 0.9625 -0.1594
vn 0.9690 -0.2469 -0.0000
vn 0.7246 0.6892 -0.0000
vn 0.7246 -0.6892 -0.0000
vn 0.9690 0.2469 -0.0000
vn 0.2712 0.9625 -0.0000
vn 0.2712 -0.9625 -0.0000
vn 0.5862 0.6892 0.4259
vn 0.5862 -0.6892 0.4259
vn 0.7840 0.2469 0.5696
vn 0.2194 0.9625 0.1594
vn 0.2194 -0.9625 0.1594
vn 0.7840 -0.2469 0.5696
vn 0.2239 -0.6892 0.6892
vn 0.2994 0.2469 0.9216
vn 0.0838 0.9625 0.2579
vn 0.0838 -0.9625 0.2579
vn 0.2994 -0.2469 0.9216
vn 0.2239 0.6892 0.6892
vn -0.2239 -0.6892 0.6892
vn -0.2994 0.2469 0.9216
vn -0.0838 0.9625 0.2579
vn -0.0838 -0.9625 0.2579
vn -0.2994 -0.2469 0.9216
vn -0.2239 0.6892 0.6892
vn -0.5862 -0.6892 0.4259
vn -0.7840 0.2469 0.5696
vn -0.2194 0.9625 0.1594
vn -0.2194 -0.9625 0.1594
vn -0.7840 -0.2469 0.5696
vn -0.5862 0.6892 0.4259
vn -0.7246 -0.6892 -0.0000
vn -0.9690 0.2469 -0.0000
vn -0.2712 0.9625 -0.0000
vn -0.2712 -0.9625 -0.0000
vn -0.9690 -0.2469 -0.0000
vn -0.7246 0.6892 -0.0000
vn -0.7840 0.2469 -0.5696
vn -0.2194 0.9625 -0.1594
vn -0.2194 -0.9625 -0.1594
vn -0.7840 -0.2469 -0.5696
vn -0.5862 0.6892 -0.4259
vn -0.5862 -0.6892 -0.4259
vn -0.0838 0.9625 -0.2579
vn -0.0838 -0.9625 -0.2579
vn -0.2994 -0.2469 -0.9216
vn -0.2239 0.6892 -0.6892
vn -0.2239 -0.6892 -0.6892
vn -0.2994 0.2469 -0.9216
vn 0.2393 -0.0000 -0.9709
vn 0.6631 -0.0000 -0.7485
vn 0.9350 -0.0000 -0.3546
vn 0.9927 -0.0000 0.1205
vn 0.8230 -0.0000 0.5681
vn 0.4647 -0.0000 0.8855
vn -0.0000 -0.0000 1.0000
vn -0.4647 -0.0000 0.8855
vn -0.8230 -0.0000 0.5681
vn -0.9927 -0.0000 0.1205
vn -0.9350 -0.0000 -0.3546
vn -0.6631 -0.0000 -0.7485
vn -0.2393 -0.0000 -0.9709
vn -0.0000 -1.0000 -0.0000
vn -0.0000 1.0000 -0.0000
vn 0.2836 -0.3969 0.8729
vn 0.7426 -0.3969 0.5395
vn 0.9179 -0.3969 -0.0000
vn 0.7426 -0.3969 -0.5395
vn 0.2836 -0.3969 -0.8729
vn -0.2836 -0.3969 -0.8729
vn -0.7426 -0.3969 -0.5395
vn -0.9179 -0.3969 -0.0000
vn -0.7426 -0.3969 0.5395
vn -0.2836 -0.3969 0.8729
vn 0.3674 0.8909 0.2669
vn -0.4541 0.8909 -0.0000
vn -0.1403 0.8909 0.4319
vn 0.1403 0.8909 -0.4319
vn 0.4541 0.8909 -0.0000
vn 0.3674 0.8909 -0.2669
vn -0.3674 0.8909 0.2669
vn -0.3674 0.8909 -0.2669
vn 0.1403 0.8909 0.4319
vn -0.1403 0.8909 -0.4319
vn 0.7684 -0.0000 0.6399
vn 0.4751 -0.1737 0.8626
vn -0.3980 -0.0000 -0.9174
vn 0.8004 -0.0000 -0.5995
vn -0.2751 -0.9391 0.2060
vn -0.6942 -0.1737 -0.6985
vn -0.7896 0.1639 0.5914
vn 0.7563 -0.3274 -0.5665
vn 0.5489 -0.7278 -0.4111
vn -0.5113 0.7693 0.3830
vn -0.6517 -0.0250 -0.7580
vn 0.5442 -0.0250 0.8386
vn -0.7684 -0.0000 0.6399
vn -0.4751 -0.1737 0.8626
vn 0.3980 -0.0000 -0.9174
vn -0.8004 -0.0000 -0.5995
vn 0.2751 -0.9391 0.2060
vn 0.6942 -0.1737 -0.6985
vn 0.7896 0.1639 0.5914
vn -0.7563 -0.3274 -0.5665
vn -0.5489 -0.7278 -0.4111
vn 0.5113 0.7694 0.3830
vn 0.6517 -0.0250 -0.7580
vn -0.5442 -0.0250 0.8386
vn 0.7684 -0.0000 -0.6399
vn 0.4751 -0.1737 -0.8626
vn -0.3980 -0.0000 0.9174
vn 0.8004 -0.0000 0.5995
vn -0.2751 -0.9391 -0.2060
vn -0.6942 -0.1737 0.6985
vn -0.7896 0.1639 -0.5914
vn 0.7563 -0.3274 0.5665
vn 0.5489 -0.7278 0.4111
vn -0.5113 0.7693 -0.3830
vn -0.6517 -0.0250 0.7580
vn 0.5442 -0.0250 -0.8386
vn -0.7684 -0.0000 -0.6399
vn -0.4751 -0.1737 -0.8626
vn 0.3980 -0.0000 0.9174
vn -0.8004 -0.0000 0.5995
vn 0.2751 -0.9391 -0.2060
vn 0.6942 -0.1737 0.6985
vn 0.7896 0.1639 -0.5914
vn -0.7563 -0.3274 0.5665
vn -0.5489 -0.7278 0.4111
vn 0.5113 0.7694 -0.3830
vn 0.6517 -0.0250 0.7580
vn -0.5442 -0.0250 -0.8386
vt 0.700000 0.833333
vt 0.650000 1.000000
vt 0.600000 0.833333
vt 0.650000 0.000000
vt 0.700000 0.166667
vt 0.600000 0.166667
vt 0.700000 0.333333
vt 0.700000 0.500000
vt 0.600000 0.500000
vt 0.600000 0.333333
vt 0.700000 0.666667
vt 0.600000 0.666667
vt 0.550000 0.000000
vt 0.500000 0.166667
vt 0.500000 0.500000
vt 0.500000 0.333333
vt 0.500000 0.833333
vt 0.500000 0.666667
vt 0.550000 1.000000
vt 0.400000 0.500000
vt 0.400000 0.333333
vt 0.400000 0.833333
vt 0.400000 0.666667
vt 0.400000 0.166667
vt 0.450000 1.000000
vt 0.450000 0.000000
vt 0.300000 0.833333
vt 0.300000 0.666667
vt 0.300000 0.333333
vt 0.300000 0.166667
vt 0.300000 0.500000
vt 0.350000 1.000000
vt 0.350000 0.000000
vt 0.200000 0.333333
vt 0.200000 0.166667
vt 0.200000 0.666667
vt 0.200000 0.500000
vt 0.250000 1.000000
vt 0.200000 0.833333
vt 0.250000 0.000000
vt 0.100000 0.333333
vt 0.100000 0.166667
vt 0.100000 0.666667
vt 0.100000 0.500000
vt 0.150000 1.000000
vt 0.100000 0.833333
vt 0.150000 0.000000
vt 0.000000 0.333333
vt 0.000000 0.166667
vt 0.000000 0.666667
vt 0.000000 0.500000
vt 0.050000 1.000000
vt 0.000000 0.833333
vt 0.050000 0.000000
vt 1.000000 0.166667
vt 1.000000 0.333333
vt 0.900000 0.333333
vt 0.900000 0.166667
vt 1.000000 0.500000
vt 1.000000 0.666667
vt 0.900000 0.666667
vt 0.900000 0.500000
vt 1.000000 0.833333
vt 0.950000 1.000000
vt 0.900000 0.833333
vt 0.950000 0.000000
vt 0.800000 0.666667
vt 0.800000 0.500000
vt 0.850000 1.000000
vt 0.800000 0.833333
vt 0.850000 0.000000
vt 0.800000 0.166667
vt 0.800000 0.333333
vt 0.750000 1.000000
vt 0.750000 0.000000
vt 1.000000 0.500000
vt 1.000000 1.000000
vt 0.923077 1.000000
vt 0.923077 0.500000
vt 0.846154 1.000000
vt 0.846154 0.500000
vt 0.769231 1.000000
vt 0.769231 0.500000
vt 0.692308 1.000000
vt 0.692308 0.500000
vt 0.615385 1.000000
vt 0.615385 0.500000
vt 0.538462 1.000000
vt 0.538462 0.500000
vt 0.461538 1.000000
vt 0.461538 0.500000
vt 0.384615 1.000000
vt 0.384615 0.500000
vt 0.307692 1.000000
vt 0.307692 0.500000
vt 0.230769 1.000000
vt 0.230769 0.500000
vt 0.153846 1.000000
vt 0.153846 0.500000
vt 0.181813 0.379919
vt 0.129247 0.333350
vt 0.076923 1.000000
vt 0.076923 0.500000
vt 0.000000 1.000000
vt 0.000000 0.500000
vt 0.750000 0.490000
vt 0.861534 0.462509
vt 0.947516 0.386336
vt 0.988250 0.278929
vt 0.974404 0.164895
vt 0.909149 0.070357
vt 0.807436 0.016974
vt 0.692564 0.016974
vt 0.590851 0.070357
vt 0.525596 0.164895
vt 0.511750 0.278929
vt 0.552484 0.386336
vt 0.638466 0.462509
vt 0.250000 0.396726
vt 0.318187 0.379919
vt 0.361534 0.462509
vt 0.250000 0.490000
vt 0.370753 0.333350
vt 0.447516 0.386336
vt 0.395656 0.267686
vt 0.488250 0.278929
vt 0.387191 0.197970
vt 0.474404 0.164895
vt 0.347297 0.140174
vt 0.409149 0.070357
vt 0.285114 0.107538
vt 0.307436 0.016974
vt 0.214886 0.107538
vt 0.192564 0.016974
vt 0.152703 0.140174
vt 0.090851 0.070357
vt 0.112809 0.197970
vt 0.025596 0.164895
vt 0.104344 0.267686
vt 0.011750 0.278929
vt 0.052484 0.386336
vt 0.138466 0.462509
vt 0.375000 0.000000
vt 0.375000 0.250000
vt 0.625000 0.250000
vt 0.625000 0.000000
vt 0.375000 0.500000
vt 0.375000 0.750000
vt 0.625000 0.750000
vt 0.625000 0.500000
vt 0.375000 1.000000
vt 0.625000 1.000000
vt 0.125000 0.500000
vt 0.125000 0.750000
vt 0.875000 0.750000
vt 0.875000 0.500000
s 0
f 48/1/1 31/2/1 1/3/1
f 37/4/2 52/5/2 5/6/2
f 51/7/3 50/8/3 3/9/3 4/10/3
f 49/11/4 48/1/4 1/3/4 2/12/4
f 52/5/5 51/7/5 4/10/5 5/6/5
f 50/8/6 49/11/6 2/12/6 3/9/6
f 37/13/7 5/6/7 10/14/7
f 4/10/8 3/9/8 8/15/8 9/16/8
f 2/12/9 1/3/9 6/17/9 7/18/9
f 5/6/10 4/10/10 9/16/10 10/14/10
f 3/9/11 2/12/11 7/18/11 8/15/11
f 1/3/12 31/19/12 6/17/12
f 9/16/13 8/15/13 13/20/13 14/21/13
f 7/18/14 6/17/14 11/22/14 12/23/14
f 10/14/15 9/16/15 14/21/15 15/24/15
f 8/15/16 7/18/16 12/23/16 13/20/16
f 6/17/17 31/25/17 11/22/17
f 37/26/18 10/14/18 15/24/18
f 12/23/19 11/22/19 16/27/19 17/28/19
f 15/24/20 14/21/20 19/29/20 20/30/20
f 13/20/21 12/23/21 17/28/21 18/31/21
f 11/22/22 31/32/22 16/27/22
f 37/33/23 15/24/23 20/30/23
f 14/21/24 13/20/24 18/31/24 19/29/24
f 20/30/25 19/29/25 24/34/25 25/35/25
f 18/31/26 17/28/26 22/36/26 23/37/26
f 16/27/27 31/38/27 21/39/27
f 37/40/28 20/30/28 25/35/28
f 19/29/29 18/31/29 23/37/29 24/34/29
f 17/28/30 16/27/30 21/39/30 22/36/30
f 25/35/31 24/34/31 29/41/31 30/42/31
f 23/37/32 22/36/32 27/43/32 28/44/32
f 21/39/33 31/45/33 26/46/33
f 37/47/34 25/35/34 30/42/34
f 24/34/35 23/37/35 28/44/35 29/41/35
f 22/36/36 21/39/36 26/46/36 27/43/36
f 30/42/37 29/41/37 35/48/37 36/49/37
f 28/44/38 27/43/38 33/50/38 34/51/38
f 26/46/39 31/52/39 32/53/39
f 37/54/40 30/42/40 36/49/40
f 29/41/41 28/44/41 34/51/41 35/48/41
f 27/43/42 26/46/42 32/53/42 33/50/42
f 36/55/43 35/56/43 41/57/43 42/58/43
f 34/59/44 33/60/44 39/61/44 40/62/44
f 32/63/45 31/64/45 38/65/45
f 37/66/46 36/55/46 42/58/46
f 35/56/47 34/59/47 40/62/47 41/57/47
f 33/60/48 32/63/48 38/65/48 39/61/48
f 40/62/49 39/61/49 44/67/49 45/68/49
f 38/65/50 31/69/50 43/70/50
f 37/71/51 42/58/51 47/72/51
f 41/57/52 40/62/52 45/68/52 46/73/52
f 39/61/53 38/65/53 43/70/53 44/67/53
f 42/58/54 41/57/54 46/73/54 47/72/54
f 43/70/55 31/74/55 48/1/55
f 37/75/56 47/72/56 52/5/56
f 46/73/57 45/68/57 50/8/57 51/7/57
f 44/67/58 43/70/58 48/1/58 49/11/58
f 47/72/59 46/73/59 51/7/59 52/5/59
f 45/68/60 44/67/60 49/11/60 50/8/60
f 53/76/61 80/77/61 79/78/61 55/79/61
f 55/79/62 79/78/62 81/80/62 57/81/62
f 57/81/63 81/80/63 82/82/63 59/83/63
f 59/83/64 82/82/64 83/84/64 61/85/64
f 61/85/65 83/84/65 84/86/65 63/87/65
f 63/87/66 84/86/66 85/88/66 65/89/66
f 65/89/67 85/88/67 86/90/67 67/91/67
f 67/91/68 86/90/68 87/92/68 69/93/68
f 69/93/69 87/92/69 88/94/69 71/95/69
f 71/95/70 88/94/70 89/96/70 73/97/70
f 73/97/71 89/96/71 90/98/71 75/99/71
f 78/100/72 76/101/72 103/101/72 104/100/72
f 75/99/72 90/98/72 91/102/72 77/103/72
f 77/103/73 91/102/73 80/104/73 53/105/73
f 53/106/74 55/107/74 57/108/74 59/109/74 61/110/74 63/111/74 65/112/74 67/113/74 69/114/74 71/115/74 73/116/74 75/117/74 77/118/74
f 54/119/75 56/120/75 79/121/75 80/122/75
f 56/120/75 58/123/75 81/124/75 79/121/75
f 58/123/75 60/125/75 82/126/75 81/124/75
f 60/125/75 62/127/75 83/128/75 82/126/75
f 62/127/75 64/129/75 84/130/75 83/128/75
f 64/129/75 66/131/75 85/132/75 84/130/75
f 66/131/75 68/133/75 86/134/75 85/132/75
f 68/133/75 70/135/75 87/136/75 86/134/75
f 70/135/75 72/137/75 88/138/75 87/136/75
f 72/137/75 74/139/75 89/140/75 88/138/75
f 74/139/75 76/101/75 90/141/75 89/140/75
f 76/101/75 78/100/75 91/142/75 90/141/75
f 78/100/75 54/119/75 80/122/75 91/142/75
f 92/120/75 93/119/75 104/100/75 103/101/75 102/139/75 101/137/75 100/135/75 99/133/75 98/131/75 97/129/75 96/127/75 95/125/75 94/123/75
f 64/129/65 62/127/65 96/127/65 97/129/65
f 54/119/73 78/100/73 104/100/73 93/119/73
f 66/131/66 64/129/66 97/129/66 98/131/66
f 68/133/67 66/131/67 98/131/67 99/133/67
f 70/135/68 68/133/68 99/133/68 100/135/68
f 56/120/61 54/119/61 93/119/61 92/120/61
f 72/137/69 70/135/69 100/135/69 101/137/69
f 58/123/62 56/120/62 92/120/62 94/123/62
f 74/139/70 72/137/70 101/137/70 102/139/70
f 60/125/63 58/123/63 94/123/63 95/125/63
f 76/101/71 74/139/71 102/139/71 103/101/71
f 62/127/64 60/125/64 95/125/64 96/127/64
f 133/1/28 123/2/28 105/3/28
f 134/11/25 133/1/25 105/3/25 106/12/25
f 135/8/76 134/11/76 106/12/76 107/9/76
f 106/12/20 105/3/20 108/17/20 109/18/20
f 107/9/77 106/12/77 109/18/77 110/15/77
f 105/3/23 123/19/23 108/17/23
f 109/18/15 108/17/15 111/22/15 112/23/15
f 110/15/78 109/18/78 112/23/78 113/20/78
f 108/17/18 123/25/18 111/22/18
f 112/23/10 111/22/10 114/27/10 115/28/10
f 113/20/79 112/23/79 115/28/79 116/31/79
f 111/22/7 123/32/7 114/27/7
f 116/31/80 115/28/80 118/36/80 119/37/80
f 114/27/2 123/38/2 117/39/2
f 115/28/5 114/27/5 117/39/5 118/36/5
f 119/37/81 118/36/81 121/43/81 122/44/81
f 117/39/56 123/45/56 120/46/56
f 118/36/59 117/39/59 120/46/59 121/43/59
f 122/44/82 121/43/82 125/50/82 126/51/82
f 120/46/51 123/52/51 124/53/51
f 121/43/54 120/46/54 124/53/54 125/50/54
f 126/59/83 125/60/83 128/61/83 129/62/83
f 124/63/46 123/64/46 127/65/46
f 125/60/43 124/63/43 127/65/43 128/61/43
f 129/62/84 128/61/84 131/67/84 132/68/84
f 127/65/40 123/69/40 130/70/40
f 128/61/37 127/65/37 130/70/37 131/67/37
f 130/70/34 123/74/34 133/1/34
f 131/67/31 130/70/31 133/1/31 134/11/31
f 132/68/85 131/67/85 134/11/85 135/8/85
f 164/1/55 136/3/55 154/2/55
f 165/11/58 137/12/58 136/3/58 164/1/58
f 166/8/60 138/9/60 137/12/60 165/11/60
f 137/12/53 140/18/53 139/17/53 136/3/53
f 138/9/49 141/15/49 140/18/49 137/12/49
f 136/3/50 139/17/50 154/19/50
f 140/18/48 143/23/48 142/22/48 139/17/48
f 141/15/44 144/20/44 143/23/44 140/18/44
f 139/17/45 142/22/45 154/25/45
f 143/23/42 146/28/42 145/27/42 142/22/42
f 144/20/38 147/31/38 146/28/38 143/23/38
f 142/22/39 145/27/39 154/32/39
f 147/31/32 150/37/32 149/36/32 146/28/32
f 145/27/33 148/39/33 154/38/33
f 146/28/36 149/36/36 148/39/36 145/27/36
f 150/37/26 153/44/26 152/43/26 149/36/26
f 148/39/27 151/46/27 154/45/27
f 149/36/30 152/43/30 151/46/30 148/39/30
f 153/44/21 157/51/21 156/50/21 152/43/21
f 151/46/22 155/53/22 154/52/22
f 152/43/19 156/50/19 155/53/19 151/46/19
f 157/59/16 160/62/16 159/61/16 156/60/16
f 155/63/17 158/65/17 154/64/17
f 156/60/14 159/61/14 158/65/14 155/63/14
f 160/62/11 163/68/11 162/67/11 159/61/11
f 158/65/12 161/70/12 154/69/12
f 159/61/9 162/67/9 161/70/9 158/65/9
f 161/70/1 164/1/1 154/74/1
f 162/67/4 165/11/4 164/1/4 161/70/4
f 163/68/6 166/8/6 165/11/6 162/67/6
f 110/15/86 141/15/86 138/9/86 107/9/86
f 129/62/87 160/62/87 157/59/87 126/59/87
f 135/8/88 166/8/88 163/68/88 132/68/88
f 119/37/89 150/37/89 147/31/89 116/31/89
f 113/20/90 144/20/90 141/15/90 110/15/90
f 116/31/91 147/31/91 144/20/91 113/20/91
f 132/68/92 163/68/92 160/62/92 129/62/92
f 126/51/93 157/51/93 153/44/93 122/44/93
f 107/9/94 138/9/94 166/8/94 135/8/94
f 122/44/95 153/44/95 150/37/95 119/37/95
f 167/143/96 169/144/96 170/145/96 168/146/96
f 180/144/97 176/144/97 175/145/97 179/145/97
f 173/147/98 171/148/98 172/149/98 174/150/98
f 171/148/99 167/151/99 168/152/99 172/149/99
f 169/153/75 167/154/75 171/148/75 173/147/75
f 174/150/74 172/149/74 168/155/74 170/156/74
f 176/144/100 177/147/100 178/150/100 175/145/100
f 182/150/101 178/150/101 177/147/101 181/147/101
f 181/147/102 177/147/102 176/153/102 180/153/102
f 179/156/103 175/156/103 178/150/103 182/150/103
f 170/156/104 179/156/104 182/150/104 174/150/104
f 173/147/105 181/147/105 180/153/105 169/153/105
f 174/150/106 182/150/106 181/147/106 173/147/106
f 169/144/107 180/144/107 179/145/107 170/145/107
f 183/143/108 184/146/108 186/145/108 185/144/108
f 196/144/109 195/145/109 191/145/109 192/144/109
f 189/147/110 190/150/110 188/149/110 187/148/110
f 187/148/111 188/149/111 184/152/111 183/151/111
f 185/153/75 189/147/75 187/148/75 183/154/75
f 190/150/74 186/156/74 184/155/74 188/149/74
f 192/144/112 191/145/112 194/150/112 193/147/112
f 198/150/113 197/147/113 193/147/113 194/150/113
f 197/147/114 196/153/114 192/153/114 193/147/114
f 195/156/115 198/150/115 194/150/115 191/156/115
f 186/156/116 190/150/116 198/150/116 195/156/116
f 189/147/117 185/153/117 196/153/117 197/147/117
f 190/150/118 189/147/118 197/147/118 198/150/118
f 185/144/119 186/145/119 195/145/119 196/144/119
f 199/143/120 200/146/120 202/145/120 201/144/120
f 212/144/121 211/145/121 207/145/121 208/144/121
f 205/147/122 206/150/122 204/149/122 203/148/122
f 203/148/123 204/149/123 200/152/123 199/151/123
f 201/153/75 205/147/75 203/148/75 199/154/75
f 206/150/74 202/156/74 200/155/74 204/149/74
f 208/144/124 207/145/124 210/150/124 209/147/124
f 214/150/125 213/147/125 209/147/125 210/150/125
f 213/147/126 212/153/126 208/153/126 209/147/126
f 211/156/127 214/150/127 210/150/127 207/156/127
f 202/156/128 206/150/128 214/150/128 211/156/128
f 205/147/129 201/153/129 212/153/129 213/147/129
f 206/150/130 205/147/130 213/147/130 214/150/130
f 201/144/131 202/145/131 211/145/131 212/144/131
f 215/143/132 217/144/132 218/145/132 216/146/132
f 228/144/133 224/144/133 223/145/133 227/145/133
f 221/147/134 219/148/134 220/149/134 222/150/134
f 219/148/135 215/151/135 216/152/135 220/149/135
f 217/153/75 215/154/75 219/148/75 221/147/75
f 222/150/74 220/149/74 216/155/74 218/156/74
f 224/144/136 225/147/136 226/150/136 223/145/136
f 230/150/137 226/150/137 225/147/137 229/147/137
f 229/147/138 225/147/138 224/153/138 228/153/138
f 227/156/139 223/156/139 226/150/139 230/150/139
f 218/156/140 227/156/140 230/150/140 222/150/140
f 221/147/141 229/147/141 228/153/141 217/153/141
f 222/150/142 230/150/142 229/147/142 221/147/142
f 217/144/143 228/144/143 227/145/143 218/145/143
