# Blender 4.1.1
# www.blender.org
o Cube.073
v -0.614115 -0.340461 0.142865
v -0.614115 -0.462223 0.142865
v -0.694207 -0.340461 0.239046
v -0.694207 -0.462223 0.239046
v -0.687111 -0.340461 0.045409
v -0.687111 -0.462223 0.045409
v -0.801933 -0.340461 0.095221
v -0.801933 -0.462223 0.095221
v -0.879079 -0.799925 0.288415
v -0.908033 -0.786686 0.310102
v -0.930254 -0.786686 0.280435
v -0.901299 -0.799925 0.258748
v -0.772913 -0.546959 0.283970
v -0.830553 -0.474930 0.327144
v -0.924819 -0.474930 0.201290
v -0.867178 -0.546959 0.158116
v 0.611224 -0.340461 0.142866
v 0.611224 -0.462223 0.142866
v 0.691316 -0.340461 0.239044
v 0.691316 -0.462223 0.239044
v 0.684220 -0.340461 0.045409
v 0.684220 -0.462223 0.045409
v 0.799042 -0.340461 0.095221
v 0.799042 -0.462223 0.095221
v 0.876187 -0.799925 0.288415
v 0.905142 -0.786686 0.310102
v 0.927363 -0.786686 0.280435
v 0.898408 -0.799925 0.258748
v 0.770021 -0.546959 0.283970
v 0.827662 -0.474930 0.327144
v 0.921928 -0.474930 0.201289
v 0.864287 -0.546959 0.158116
v -0.614115 -0.340461 -1.261569
v -0.614115 -0.462223 -1.261569
v -0.694207 -0.340461 -1.357749
v -0.694207 -0.462223 -1.357749
v -0.687111 -0.340461 -1.164113
v -0.687111 -0.462223 -1.164113
v -0.801933 -0.340461 -1.213925
v -0.801933 -0.462223 -1.213925
v -0.879079 -0.799925 -1.407119
v -0.908033 -0.786686 -1.428806
v -0.930254 -0.786686 -1.399140
v -0.901299 -0.799925 -1.377452
v -0.772912 -0.546959 -1.402674
v -0.830553 -0.474930 -1.445848
v -0.924819 -0.474930 -1.319994
v -0.867178 -0.546959 -1.276820
v 0.611224 -0.340461 -1.261570
v 0.611224 -0.462223 -1.261570
v 0.691316 -0.340461 -1.357749
v 0.691316 -0.462223 -1.357749
v 0.684221 -0.340461 -1.164113
v 0.684221 -0.462223 -1.164113
v 0.799042 -0.340461 -1.213925
v 0.799042 -0.462223 -1.213925
v 0.876188 -0.799925 -1.407119
v 0.905142 -0.786686 -1.428806
v 0.927363 -0.786686 -1.399139
v 0.898409 -0.799925 -1.377453
v 0.770021 -0.546959 -1.402674
v 0.827663 -0.474930 -1.445848
v 0.921928 -0.474930 -1.319993
v 0.864287 -0.546959 -1.276820
v -0.587545 -0.401574 0.045707
v -0.587545 0.096988 0.045707
v -0.587545 -0.401574 -1.164411
v -0.587545 0.096988 -1.164411
v 0.584653 -0.401574 0.045707
v 0.584653 0.096988 0.045707
v 0.584654 -0.401574 -1.164411
v 0.584654 0.096988 -1.164411
v -0.243596 0.051108 -0.599432
v -0.243597 0.443776 -0.777679
v -0.243596 0.051108 -1.030331
v -0.243597 0.443776 -0.994640
v 0.240705 0.051108 -0.599432
v 0.240705 0.443776 -0.777680
v 0.240705 0.051108 -1.030331
v 0.240705 0.443776 -0.994640
v 0.214842 0.978572 -0.993817
v 0.214842 0.545998 -0.993817
v 0.141635 0.900436 -0.011107
v 0.141635 0.624135 -0.011107
v -0.217732 0.978572 -0.993817
v -0.217732 0.545998 -0.993817
v -0.144526 0.900436 -0.011108
v -0.144526 0.624135 -0.011108
v -0.209288 0.516448 -0.567788
v -0.209288 0.558576 -0.605049
v -0.209288 0.383718 -0.717856
v -0.209288 0.425847 -0.755117
v 0.206397 0.516448 -0.567788
v 0.206396 0.558576 -0.605049
v 0.206397 0.383718 -0.717856
v 0.206397 0.425847 -0.755117
v 0.148928 0.912658 -1.125807
v 0.148928 0.611913 -1.125807
v -0.151819 0.912658 -1.125807
v -0.151819 0.611913 -1.125807
v -0.001445 0.051108 -1.094636
v -0.001445 0.443776 -1.058945
v -0.001446 0.051108 -0.599432
v -0.001445 0.443776 -0.777680
v 0.214841 0.978572 -0.011108
v -0.217733 0.978572 -0.011108
v -0.217733 0.545998 -0.011108
v 0.214841 0.545998 -0.011108
v -0.072986 0.624135 -0.011107
v -0.072986 0.900436 -0.011107
v 0.070094 0.624135 -0.011108
v 0.070094 0.900436 -0.011108
v 0.070094 0.831361 -0.011108
v -0.072986 0.831361 -0.011107
v 0.141635 0.831361 -0.011107
v -0.144526 0.831361 -0.011108
v 0.141635 0.693210 -0.011107
v -0.144526 0.693210 -0.011108
v -0.072986 0.693210 -0.011107
v 0.070094 0.693210 -0.011108
v -0.072986 0.900436 -0.053384
v -0.144526 0.900436 -0.053384
v 0.070094 0.624135 -0.053384
v 0.141634 0.624135 -0.053384
v -0.144526 0.831361 -0.053384
v 0.141634 0.693210 -0.053384
v -0.144526 0.624135 -0.053384
v -0.072986 0.624135 -0.053384
v -0.072986 0.831361 -0.053384
v 0.141634 0.900436 -0.053384
v 0.070094 0.900436 -0.053384
v 0.070094 0.831361 -0.053384
v 0.141634 0.831361 -0.053384
v -0.144526 0.693210 -0.053384
v -0.072986 0.693210 -0.053384
v 0.070094 0.693210 -0.053384
vn 0.7685 -0.0000 0.6399
vn 0.4751 -0.1737 0.8626
vn -0.3980 -0.0000 -0.9174
vn 0.8004 -0.0000 -0.5995
vn -0.0000 1.0000 -0.0000
vn -0.0000 -1.0000 -0.0000
vn -0.2751 -0.9391 0.2060
vn -0.6942 -0.1737 -0.6985
vn -0.7896 0.1639 0.5914
vn 0.7563 -0.3274 -0.5665
vn 0.5489 -0.7278 -0.4111
vn -0.5113 0.7694 0.3830
vn -0.6517 -0.0250 -0.7580
vn 0.5442 -0.0250 0.8386
vn -0.7684 -0.0000 0.6399
vn -0.4751 -0.1737 0.8626
vn 0.3980 -0.0000 -0.9174
vn -0.8004 -0.0000 -0.5995
vn 0.2751 -0.9391 0.2060
vn 0.6942 -0.1737 -0.6985
vn 0.7896 0.1639 0.5914
vn -0.7563 -0.3274 -0.5665
vn -0.5489 -0.7278 -0.4111
vn 0.5113 0.7694 0.3830
vn 0.6517 -0.0250 -0.7580
vn -0.5442 -0.0250 0.8386
vn 0.7684 -0.0000 -0.6399
vn 0.4751 -0.1737 -0.8626
vn -0.3980 -0.0000 0.9174
vn 0.8004 -0.0000 0.5995
vn -0.2751 -0.9391 -0.2060
vn -0.6942 -0.1737 0.6985
vn -0.7896 0.1639 -0.5914
vn 0.7563 -0.3274 0.5665
vn 0.5489 -0.7278 0.4111
vn -0.5113 0.7694 -0.3830
vn -0.6517 -0.0250 0.7580
vn 0.5442 -0.0250 -0.8386
vn -0.7684 -0.0000 -0.6399
vn -0.4751 -0.1737 -0.8626
vn 0.3980 -0.0000 0.9174
vn -0.8004 -0.0000 0.5995
vn 0.2751 -0.9391 -0.2060
vn 0.6942 -0.1737 0.6985
vn 0.7896 0.1639 -0.5914
vn -0.7563 -0.3274 0.5665
vn -0.5489 -0.7278 0.4111
vn 0.5113 0.7693 -0.3830
vn 0.6517 -0.0250 0.7581
vn -0.5442 -0.0250 -0.8386
vn -1.0000 -0.0000 -0.0000
vn -0.0000 -0.0000 -1.0000
vn 1.0000 -0.0000 -0.0000
vn -0.0000 -0.0000 1.0000
vn 0.2557 0.0875 -0.9628
vn -0.0000 0.4133 0.9106
vn -0.8946 -0.0000 -0.4468
vn -0.0000 -0.6625 -0.7490
vn -0.0000 0.6625 0.7490
vn -0.0000 -0.7491 0.6625
vn -0.0000 0.7491 -0.6625
vn -0.0000 -0.8946 -0.4468
vn 0.8946 -0.0000 -0.4468
vn -0.0000 0.8946 -0.4468
vn -0.2557 0.0875 -0.9628
vt 0.375000 0.000000
vt 0.625000 0.000000
vt 0.625000 0.250000
vt 0.375000 0.250000
vt 0.375000 0.500000
vt 0.625000 0.500000
vt 0.625000 0.750000
vt 0.375000 0.750000
vt 0.625000 1.000000
vt 0.375000 1.000000
vt 0.125000 0.500000
vt 0.125000 0.750000
vt 0.875000 0.500000
vt 0.875000 0.750000
vt 0.375000 0.375000
vt 0.625000 0.375000
vt 0.375000 0.875000
vt 0.625000 0.875000
vt 0.250000 0.500000
vt 0.250000 0.750000
vt 0.750000 0.500000
vt 0.750000 0.750000
vt 0.458517 0.841149
vt 0.417033 0.841149
vt 0.582967 0.942702
vt 0.582967 0.807299
vt 0.582967 0.841149
vt 0.582967 0.908851
vt 0.417033 0.807299
vt 0.417033 0.942702
vt 0.417033 0.908851
vt 0.541484 0.942702
vt 0.458517 0.942702
vt 0.458517 0.807299
vt 0.541484 0.807299
vt 0.458517 0.908851
vt 0.541484 0.908851
vt 0.541484 0.841149
s 0
f 1/1/1 3/4/1 4/3/1 2/2/1
f 14/4/2 10/4/2 9/3/2 13/3/2
f 7/5/3 5/8/3 6/7/3 8/6/3
f 5/8/4 1/10/4 2/9/4 6/7/4
f 3/11/5 1/12/5 5/8/5 7/5/5
f 8/6/6 6/7/6 2/14/6 4/13/6
f 10/4/7 11/5/7 12/6/7 9/3/7
f 16/6/8 12/6/8 11/5/8 15/5/8
f 15/5/9 11/5/9 10/11/9 14/11/9
f 13/13/10 9/13/10 12/6/10 16/6/10
f 4/13/11 13/13/11 16/6/11 8/6/11
f 7/5/12 15/5/12 14/11/12 3/11/12
f 8/6/13 16/6/13 15/5/13 7/5/13
f 3/4/14 14/4/14 13/3/14 4/3/14
f 17/1/15 18/2/15 20/3/15 19/4/15
f 30/4/16 29/3/16 25/3/16 26/4/16
f 23/5/17 24/6/17 22/7/17 21/8/17
f 21/8/18 22/7/18 18/9/18 17/10/18
f 19/11/5 23/5/5 21/8/5 17/12/5
f 24/6/6 20/13/6 18/14/6 22/7/6
f 26/4/19 25/3/19 28/6/19 27/5/19
f 32/6/20 31/5/20 27/5/20 28/6/20
f 31/5/21 30/11/21 26/11/21 27/5/21
f 29/13/22 32/6/22 28/6/22 25/13/22
f 20/13/23 24/6/23 32/6/23 29/13/23
f 23/5/24 19/11/24 30/11/24 31/5/24
f 24/6/25 23/5/25 31/5/25 32/6/25
f 19/4/26 20/3/26 29/3/26 30/4/26
f 33/1/27 34/2/27 36/3/27 35/4/27
f 46/4/28 45/3/28 41/3/28 42/4/28
f 39/5/29 40/6/29 38/7/29 37/8/29
f 37/8/30 38/7/30 34/9/30 33/10/30
f 35/11/5 39/5/5 37/8/5 33/12/5
f 40/6/6 36/13/6 34/14/6 38/7/6
f 42/4/31 41/3/31 44/6/31 43/5/31
f 48/6/32 47/5/32 43/5/32 44/6/32
f 47/5/33 46/11/33 42/11/33 43/5/33
f 45/13/34 48/6/34 44/6/34 41/13/34
f 36/13/35 40/6/35 48/6/35 45/13/35
f 39/5/36 35/11/36 46/11/36 47/5/36
f 40/6/37 39/5/37 47/5/37 48/6/37
f 35/4/38 36/3/38 45/3/38 46/4/38
f 49/1/39 51/4/39 52/3/39 50/2/39
f 62/4/40 58/4/40 57/3/40 61/3/40
f 55/5/41 53/8/41 54/7/41 56/6/41
f 53/8/42 49/10/42 50/9/42 54/7/42
f 51/11/5 49/12/5 53/8/5 55/5/5
f 56/6/6 54/7/6 50/14/6 52/13/6
f 58/4/43 59/5/43 60/6/43 57/3/43
f 64/6/44 60/6/44 59/5/44 63/5/44
f 63/5/45 59/5/45 58/11/45 62/11/45
f 61/13/46 57/13/46 60/6/46 64/6/46
f 52/13/47 61/13/47 64/6/47 56/6/47
f 55/5/48 63/5/48 62/11/48 51/11/48
f 56/6/49 64/6/49 63/5/49 55/5/49
f 51/4/50 62/4/50 61/3/50 52/3/50
f 65/1/51 66/2/51 68/3/51 67/4/51
f 67/4/52 68/3/52 72/6/52 71/5/52
f 71/5/53 72/6/53 70/7/53 69/8/53
f 69/8/54 70/7/54 66/9/54 65/10/54
f 67/11/6 71/5/6 69/8/6 65/12/6
f 72/6/5 68/13/5 66/14/5 70/7/5
f 73/1/51 74/2/51 76/3/51 75/4/51
f 101/15/55 102/16/55 80/6/55 79/5/55
f 79/5/53 80/6/53 78/7/53 77/8/53
f 103/17/56 104/18/56 74/9/56 73/10/56
f 101/19/6 79/5/6 77/8/6 103/20/6
f 102/21/5 76/13/5 74/14/5 104/22/5
f 86/1/6 82/2/6 108/3/6 107/4/6
f 86/8/57 85/7/57 99/7/57 100/8/57
f 107/5/51 106/6/51 85/7/51 86/8/51
f 120/23/53 111/24/53 123/24/53 136/23/53
f 81/11/5 85/5/5 106/8/5 105/12/5
f 82/6/53 81/13/53 105/14/53 108/7/53
f 89/1/51 90/2/51 92/3/51 91/4/51
f 91/4/58 92/3/58 96/6/58 95/5/58
f 95/5/53 96/6/53 94/7/53 93/8/53
f 93/8/59 94/7/59 90/9/59 89/10/59
f 91/11/60 95/5/60 93/8/60 89/12/60
f 96/6/61 92/13/61 90/14/61 94/7/61
f 100/4/52 99/3/52 97/6/52 98/5/52
f 82/2/62 86/1/62 100/1/62 98/2/62
f 81/13/63 82/6/63 98/6/63 97/13/63
f 85/5/64 81/11/64 97/11/64 99/5/64
f 80/6/5 102/21/5 104/22/5 78/7/5
f 75/11/6 101/19/6 103/20/6 73/12/6
f 77/8/56 78/7/56 104/18/56 103/17/56
f 75/4/65 76/3/65 102/16/65 101/15/65
f 87/25/54 110/28/54 112/27/54 83/26/54 105/7/54 106/9/54
f 84/29/54 111/24/54 109/31/54 88/30/54 107/10/54 108/8/54
f 88/30/54 118/33/54 116/32/54 87/25/54 106/9/54 107/10/54
f 83/26/54 115/35/54 117/34/54 84/29/54 108/8/54 105/7/54
f 124/29/54 126/34/54 136/23/54 123/24/54
f 111/24/54 120/23/54 119/36/54 109/31/54
f 114/37/54 116/32/54 118/33/54 119/36/54
f 109/31/51 119/36/51 135/36/51 128/31/51
f 115/35/54 113/38/54 120/23/54 117/34/54
f 111/24/5 84/29/5 124/29/5 123/24/5
f 83/26/6 112/27/6 131/27/6 130/26/6
f 128/31/54 135/36/54 134/33/54 127/30/54
f 131/27/54 132/38/54 133/35/54 130/26/54
f 125/32/54 129/37/54 121/28/54 122/25/54
f 87/25/53 116/32/53 125/32/53 122/25/53
f 88/30/5 109/31/5 128/31/5 127/30/5
f 112/27/53 113/38/53 132/38/53 131/27/53
f 117/34/6 120/23/6 136/23/6 126/34/6
f 84/29/51 117/34/51 126/34/51 124/29/51
f 113/38/5 115/35/5 133/35/5 132/38/5
f 119/36/6 118/33/6 134/33/6 135/36/6
f 114/37/51 110/28/51 121/28/51 129/37/51
f 116/32/5 114/37/5 129/37/5 125/32/5
f 115/35/51 83/26/51 130/26/51 133/35/51
f 110/28/6 87/25/6 122/25/6 121/28/6
f 118/33/53 88/30/53 127/30/53 134/33/53
f 114/37/54 113/38/54 112/27/54 110/28/54
f 119/36/54 120/23/54 113/38/54 114/37/54
