# Blender 4.1.1
# www.blender.org
o Cube.084
v -0.023688 -0.165891 0.029157
v -0.023673 -0.052788 0.121954
v 0.127551 -0.101572 -0.089977
v 0.086918 0.029462 0.067901
v -0.023688 -0.048250 -0.194270
v -0.023673 0.097481 0.023200
v -0.023688 -0.327263 0.158985
v -0.228723 -0.330607 0.054492
v -0.023688 -0.435429 -0.164789
v -0.194042 -0.391341 -0.079705
v -0.078968 0.063706 0.045396
v -0.023688 -0.469458 0.030552
v -0.023688 -0.254860 0.101234
v -0.204190 -0.226224 -0.011651
v -0.023688 -0.309933 -0.226685
v -0.172270 -0.271733 -0.136407
v -0.174926 -0.101572 -0.089977
v -0.134264 0.029462 0.067901
v 0.181348 -0.330607 0.054492
v 0.051931 -0.074727 -0.152156
v 0.146667 -0.391341 -0.079705
v -0.099307 -0.074727 -0.152156
v 0.031623 0.063706 0.045396
v 0.156815 -0.226224 -0.011651
v 0.124895 -0.271733 -0.136407
v -0.023390 0.024295 0.071296
v -0.022172 -0.322211 0.542064
v -0.022172 -0.560086 0.332878
v -0.022172 -0.491829 0.320747
v -0.022172 -0.525271 0.147401
v -0.062352 -0.078413 0.412180
v -0.067707 0.033121 0.448747
v -0.062352 0.015986 0.124253
v -0.067707 0.127520 0.160820
v 0.056230 -0.078413 0.412180
v 0.061584 0.033121 0.448747
v 0.056230 0.015986 0.124253
v 0.061584 0.127520 0.160820
v -0.003061 -0.004904 0.117404
v -0.003061 0.164759 0.173029
v -0.003061 -0.099303 0.405331
v -0.003061 0.070360 0.460956
v -0.085724 -0.038791 0.425170
v -0.085724 0.055608 0.137243
v 0.079602 0.055608 0.137243
v 0.079602 -0.038791 0.425170
v -0.027389 0.032542 0.448557
v -0.003061 0.056914 0.137671
v -0.032707 0.005541 0.120828
v -0.050713 0.065005 0.459200
v -0.050713 0.159404 0.171273
v -0.032707 -0.088858 0.408755
v -0.044393 0.056261 0.137457
v 0.051769 -0.027645 0.428824
v 0.044590 0.159404 0.171273
v 0.026584 -0.088858 0.408755
v 0.026584 0.005541 0.120828
v 0.044590 0.065005 0.459200
v -0.057933 -0.027474 0.428881
v 0.038270 0.056261 0.137457
v -0.093502 0.010997 0.441494
v -0.093502 0.105396 0.153566
v 0.087380 0.105396 0.153566
v 0.087380 0.010997 0.441494
v -0.002969 0.037799 0.450281
v -0.003061 0.105396 0.153566
v -0.048282 0.105396 0.153566
v -0.003154 -0.069125 0.415225
v 0.040984 0.017601 0.443659
v 0.042159 0.105396 0.153566
v 0.040868 -0.049065 0.421802
v -0.046991 0.017738 0.443704
v -0.047106 -0.048928 0.421847
v -0.027556 -0.063793 0.416973
v 0.021266 -0.063869 0.416948
v 0.021433 0.032466 0.448532
v -0.057892 -0.003681 0.436681
v 0.051811 -0.003853 0.436625
v -0.027291 0.044850 0.411168
v 0.051745 -0.015483 0.391388
v -0.057957 -0.015110 0.391510
v -0.002861 0.050061 0.412877
v -0.003262 -0.056862 0.377821
v 0.041051 0.029783 0.406229
v 0.040801 -0.036882 0.384372
v -0.046923 0.030082 0.406326
v -0.047174 -0.036584 0.384470
v -0.027653 -0.051485 0.379584
v 0.021169 -0.051650 0.379530
v 0.021531 0.044684 0.411114
v -0.057868 0.008682 0.399310
v 0.051834 0.008310 0.399188
v -0.003167 -0.022603 0.389053
v -0.027507 -0.022520 0.389081
v 0.021173 -0.022687 0.389026
v -0.027296 0.015887 0.401672
v -0.002956 0.015803 0.401645
v 0.021384 0.015720 0.401618
v 0.252927 0.184565 -0.365131
v 0.309933 0.299329 -0.467741
v 0.070522 0.088067 -0.036804
v 0.173129 0.301947 -0.221496
v 0.095856 0.052851 -0.082405
v 0.336533 0.423227 -0.515623
v -0.300302 0.184565 -0.365131
v -0.357308 0.299329 -0.467741
v -0.117897 0.088067 -0.036804
v -0.220504 0.301947 -0.221496
v -0.143231 0.052851 -0.082405
v -0.383908 0.423228 -0.515623
vn -0.5924 0.6877 -0.4197
vn 0.6549 -0.4856 0.5791
vn -0.3577 0.5699 0.7398
vn -0.8547 0.1242 -0.5041
vn -0.3448 -0.6292 0.6966
vn -0.5263 -0.8175 0.2340
vn -0.3225 -0.9325 -0.1624
vn -0.5010 0.1109 -0.8583
vn 0.5924 0.6876 -0.4198
vn -0.5469 0.7031 -0.4546
vn -0.5189 -0.3346 -0.7867
vn -0.9619 0.0516 -0.2685
vn -0.3763 0.5662 0.7334
vn -0.6549 -0.4855 0.5791
vn 0.3577 0.5699 0.7398
vn 0.8547 0.1242 -0.5041
vn 0.3448 -0.6292 0.6966
vn 0.5263 -0.8175 0.2340
vn 0.3225 -0.9325 -0.1624
vn 0.5010 0.1109 -0.8583
vn 0.5469 0.7030 -0.4546
vn 0.5189 -0.3346 -0.7867
vn 0.9619 0.0516 -0.2685
vn 0.3763 0.5662 0.7334
vn -0.0000 0.5492 0.8357
vn 1.0000 -0.0000 -0.0000
vn -0.6700 0.7054 0.2313
vn -0.7945 0.5771 0.1892
vn -0.0000 0.3115 -0.9502
vn 0.6700 0.7054 0.2313
vn 0.7945 0.5771 0.1892
vn 0.3477 -0.8910 -0.2921
vn -0.8921 0.4293 0.1408
vn 0.1174 0.9437 0.3094
vn -0.0000 0.9502 0.3115
vn -0.3477 -0.8910 -0.2921
vn 0.8723 -0.4646 -0.1523
vn 0.9463 -0.3071 -0.1007
vn -0.8723 -0.4646 -0.1523
vn -0.9463 -0.3071 -0.1007
vn -0.1174 0.9437 0.3094
vn 0.8921 0.4293 0.1408
vn -0.0000 -0.3115 0.9502
vn 0.9892 -0.1395 -0.0457
vn 0.9744 -0.2135 -0.0700
vn 0.9754 0.2094 0.0687
vn 0.9756 0.2087 0.0684
vn 0.9743 -0.2142 -0.0702
vn 0.7832 0.5908 0.1937
vn 0.4359 0.8552 0.2804
vn 0.4366 0.8549 0.2803
vn 0.7837 0.5902 0.1935
vn -0.4319 0.8570 0.2810
vn -0.7804 0.5941 0.1948
vn -0.7800 0.5947 0.1950
vn -0.4312 0.8574 0.2811
vn -0.7832 -0.5908 -0.1937
vn -0.4359 -0.8552 -0.2804
vn -0.4366 -0.8549 -0.2803
vn -0.7837 -0.5902 -0.1935
vn 0.0022 0.9502 0.3115
vn 0.0030 0.9502 0.3115
vn 0.7804 -0.5941 -0.1948
vn 0.7800 -0.5947 -0.1950
vn -0.0022 -0.9502 -0.3115
vn 0.4319 -0.8570 -0.2810
vn 0.4312 -0.8574 -0.2811
vn -0.0030 -0.9502 -0.3115
vn -0.9744 0.2135 0.0700
vn -0.9754 -0.2094 -0.0687
vn -0.9756 -0.2087 -0.0684
vn -0.9743 0.2142 0.0702
vn -0.9892 -0.1395 -0.0457
vn 0.8742 -0.0000 0.4856
vn -0.8742 -0.0000 0.4856
vt 0.375000 0.250000
vt 0.625000 0.250000
vt 0.625000 0.375000
vt 0.375000 0.375000
vt 0.375000 0.750000
vt 0.625000 0.750000
vt 0.625000 0.999963
vt 0.375000 0.999963
vt 0.542847 0.000000
vt 0.625000 0.000000
vt 0.547745 0.250000
vt 0.617364 0.375000
vt 0.302512 0.597644
vt 0.081023 0.756847
vt 0.098087 0.504060
vt 0.264460 0.454243
vt 0.520996 0.500000
vt 0.625000 0.500000
vt 0.617364 0.500000
vt 0.375000 0.625000
vt 0.625000 0.625000
vt 0.375000 0.500000
vt 0.520996 0.375000
vt 0.479059 0.250000
vt 0.476108 0.000000
vt 0.098087 0.504060
vt 0.264460 0.454243
vt 0.479059 0.250000
vt 0.625000 0.631457
vt 0.000000 0.000000
vt 1.000000 0.000000
vt 1.000000 1.000000
vt 0.000000 1.000000
vt 0.576917 0.000000
vt 0.576917 0.250000
vt 0.576917 0.437500
vt 0.625000 0.437500
vt 0.576917 0.500000
vt 0.576917 0.750000
vt 0.312500 0.500000
vt 0.312500 0.750000
vt 0.812500 0.500000
vt 0.875000 0.500000
vt 0.875000 0.750000
vt 0.812500 0.750000
vt 0.687500 0.500000
vt 0.750000 0.500000
vt 0.750000 0.750000
vt 0.687500 0.750000
vt 0.187500 0.500000
vt 0.250000 0.500000
vt 0.250000 0.750000
vt 0.187500 0.750000
vt 0.576917 0.312500
vt 0.625000 0.312500
vt 0.576917 0.375000
vt 0.375000 0.312500
vt 0.500000 0.312500
vt 0.500000 0.375000
vt 0.500000 0.500000
vt 0.500000 0.750000
vt 0.375000 0.437500
vt 0.500000 0.437500
vt 0.375000 0.000000
vt 0.500000 0.000000
vt 0.500000 0.250000
vt 0.125000 0.500000
vt 0.125000 0.750000
vt 0.000000 0.500000
vt 1.000000 0.500000
s 0
f 17/1/1 18/2/1 11/3/1 22/4/1
f 3/5/2 4/6/2 2/7/2 1/8/2
f 13/9/3 1/10/3 17/2/3 14/11/3
f 14/11/4 17/2/4 22/3/4 16/12/4
f 12/13/5 7/14/5 8/15/5
f 8/15/6 10/16/6 12/13/6
f 12/13/7 10/16/7 9/17/7
f 16/12/8 22/3/8 5/18/8 15/19/8
f 20/20/9 23/21/9 4/6/9 3/5/9
f 22/4/10 11/3/10 6/18/10 5/22/10
f 10/23/11 16/12/11 15/19/11 9/17/11
f 8/24/12 14/11/12 16/12/12 10/23/12
f 7/25/13 13/9/13 14/11/13 8/24/13
f 17/5/14 1/8/14 2/7/14 18/6/14
f 13/9/15 24/11/15 3/2/15 1/10/15
f 24/11/16 25/12/16 20/3/16 3/2/16
f 12/13/17 19/26/17 7/14/17
f 19/26/18 12/13/18 21/27/18
f 12/13/19 9/17/19 21/27/19
f 25/12/20 15/19/20 5/18/20 20/3/20
f 20/4/21 5/22/21 6/18/21 23/3/21
f 21/23/22 9/17/22 15/19/22 25/12/22
f 19/28/23 21/23/23 25/12/23 24/11/23
f 7/25/24 19/28/24 24/11/24 13/9/24
f 2/7/25 26/29/25 11/21/25 18/6/25
f 11/21/25 26/29/25 23/3/25 6/18/25
f 23/3/25 26/29/25 2/7/25 4/2/25
f 27/30/26 28/31/26 30/32/26 29/33/26
s 1
f 61/34/27 32/10/28 34/2/28 62/35/27
f 70/36/29 55/37/29 38/18/29 63/38/29
f 63/38/30 38/18/31 36/6/31 64/39/30
f 57/40/32 37/22/32 35/5/32 56/41/32
f 51/42/33 34/43/28 32/44/28 50/45/33
f 55/46/34 40/47/35 42/48/35 58/49/34
f 49/50/36 39/51/36 41/52/36 52/53/36
f 67/54/29 51/55/29 40/3/29 66/56/29
f 49/57/29 53/58/29 48/59/29 39/4/29
f 37/22/37 45/60/38 46/61/38 35/5/37
f 57/62/29 60/63/29 45/60/29 37/22/29
f 31/64/39 43/65/40 44/66/40 33/1/39
f 33/1/29 44/66/29 53/58/29 49/57/29
f 62/35/29 34/2/29 51/55/29 67/54/29
f 33/67/36 49/50/36 52/53/36 31/68/36
f 40/47/35 51/42/41 50/45/41 42/48/35
f 39/4/29 48/59/29 60/63/29 57/62/29
f 38/18/31 55/46/42 58/49/42 36/6/31
f 39/51/32 57/40/32 56/41/32 41/52/32
f 66/56/29 40/3/29 55/37/29 70/36/29
f 61/34/43 43/65/43 59/30/43 77/30/43
f 48/59/29 66/56/29 70/36/29 60/63/29
f 44/66/29 62/35/29 67/54/29 53/58/29
f 53/58/29 67/54/29 66/56/29 48/59/29
f 45/60/38 63/38/44 64/39/44 46/61/38
f 60/63/29 70/36/29 63/38/29 45/60/29
f 50/45/43 47/30/43 65/30/43 42/48/43
f 32/44/43 72/30/43 47/30/43 50/45/43
f 61/34/43 77/30/43 72/30/43 32/44/43
f 46/61/43 64/39/43 78/30/43 54/30/43
f 31/64/43 73/30/43 59/30/43 43/65/43
f 52/53/43 74/30/43 73/30/43 31/64/43
f 41/52/43 68/30/43 74/30/43 52/53/43
f 56/41/43 75/30/43 68/30/43 41/52/43
f 35/5/43 71/30/43 75/30/43 56/41/43
f 46/61/43 54/30/43 71/30/43 35/5/43
f 77/30/45 59/30/46 81/30/47 91/30/48
f 36/6/43 69/30/43 78/30/43 64/39/43
f 58/49/43 76/30/43 69/30/43 36/6/43
f 42/48/43 65/30/43 76/30/43 58/49/43
f 73/30/49 74/30/50 88/30/51 87/30/52
f 75/30/53 71/30/54 85/30/55 89/30/56
f 69/30/57 76/30/58 90/30/59 84/30/60
f 59/30/46 73/30/49 87/30/52 81/30/47
f 68/30/61 75/30/53 89/30/56 83/30/62
f 72/30/63 77/30/45 91/30/48 86/30/64
f 65/30/65 47/30/66 79/30/67 82/30/68
f 54/30/69 78/30/70 92/30/71 80/30/72
f 87/30/43 88/30/43 94/30/43 81/30/43
f 71/30/54 54/30/69 80/30/72 85/30/55
f 76/30/58 65/30/65 82/30/68 90/30/59
f 78/30/70 69/30/57 84/30/60 92/30/71
f 47/30/66 72/30/63 86/30/64 79/30/67
f 74/30/50 68/30/61 83/30/62 88/30/51
f 81/30/43 94/30/43 96/30/43 91/30/43
f 85/30/43 80/30/43 95/30/43 89/30/43
f 94/30/43 88/30/43 83/30/43 93/30/43
f 79/30/43 96/30/43 97/30/43 82/30/43
f 43/65/40 61/34/73 62/35/73 44/66/40
f 93/30/43 95/30/43 98/30/43 97/30/43
f 89/30/43 95/30/43 93/30/43 83/30/43
f 90/30/43 98/30/43 92/30/43 84/30/43
f 97/30/43 98/30/43 90/30/43 82/30/43
f 97/30/43 96/30/43 94/30/43 93/30/43
f 92/30/43 98/30/43 95/30/43 80/30/43
f 91/30/43 96/30/43 79/30/43 86/30/43
s 0
f 103/69/74 104/70/74 102/32/74 101/33/74
f 99/30/74 100/31/74 104/70/74 103/69/74
f 109/69/75 107/33/75 108/32/75 110/70/75
f 105/30/75 109/69/75 110/70/75 106/31/75
