# Blender 4.3.2
# www.blender.org
mtllib Floor 1_1.mtl
o Cube.002
v -26.056683 -1.971240 2.589560
v -26.056683 4.389531 2.589560
v -26.056683 -1.971240 -6.275502
v -26.056683 4.389531 -6.275502
v 29.742626 -1.971240 2.589560
v 29.742626 4.389531 2.589560
v 29.742626 -1.971240 -6.275502
v 29.742626 4.389531 -6.275502
v -6.279046 -1.971240 -6.275502
v -6.279046 4.389531 -6.275502
v -6.279046 -1.971240 2.589560
v -6.279046 4.389531 2.589560
v 9.893949 4.389531 -6.275502
v 9.893949 -1.971240 2.589560
v 9.893950 -1.971240 -6.275502
v 9.893950 4.389531 2.589560
v 9.893950 4.389531 7.236980
v -6.279046 4.389531 7.236980
v -6.279046 -1.971240 7.236980
v 9.893949 -1.971240 7.236980
v 9.893950 -1.971240 -10.385569
v -6.279046 -1.971240 -10.385569
v -6.279046 4.389531 -10.385569
v 9.893949 4.389531 -10.385569
v -26.056683 -19.127855 -6.275502
v -26.056683 -19.127855 2.589560
v -6.279046 -19.127855 -6.275502
v 29.742626 -19.127855 2.589560
v 29.742626 -19.127855 -6.275502
v 9.893949 -19.127855 2.589560
v 9.893950 -19.127855 -6.275502
v -6.279046 -19.127855 2.589560
v -6.279046 -19.127855 7.236980
v 9.893949 -19.127855 7.236980
v 9.893950 -19.127855 -10.385569
v -6.279046 -19.127855 -10.385569
vn -1.0000 -0.0000 -0.0000
vn -0.0000 -0.0000 -1.0000
vn 1.0000 -0.0000 -0.0000
vn -0.0000 -0.0000 1.0000
vn -0.0000 1.0000 -0.0000
vn -0.0000 -1.0000 -0.0000
vt 0.375000 0.000000
vt 0.625000 0.000000
vt 0.625000 0.250000
vt 0.375000 0.250000
vt 0.375000 0.411071
vt 0.625000 0.411071
vt 0.625000 0.500000
vt 0.375000 0.500000
vt 0.625000 0.750000
vt 0.375000 0.750000
vt 0.375000 0.911389
vt 0.625000 0.911389
vt 0.625000 1.000000
vt 0.375000 1.000000
vt 0.786389 0.500000
vt 0.875000 0.500000
vt 0.875000 0.750000
vt 0.786389 0.750000
vt 0.713929 0.500000
vt 0.713929 0.750000
vt 0.375000 0.838929
vt 0.625000 0.338611
vt 0.375000 0.338611
vt 0.625000 0.838929
vt 0.286071 0.500000
vt 0.286071 0.750000
vt 0.125000 0.500000
vt 0.213611 0.500000
vt 0.213611 0.750000
vt 0.125000 0.750000
s 0
f 1/1/1 2/2/1 4/3/1 3/4/1
f 15/5/2 13/6/2 8/7/2 7/8/2
f 7/8/3 8/7/3 6/9/3 5/10/3
f 11/11/4 12/12/4 2/13/4 1/14/4
f 1/1/1 3/4/1 25/4/1 26/1/1
f 10/15/5 4/16/5 2/17/5 12/18/5
f 13/19/5 10/15/5 12/18/5 16/20/5
f 14/21/3 20/21/3 34/21/3 30/21/3
f 16/20/5 12/18/5 18/18/5 17/20/5
f 3/4/2 4/3/2 10/22/2 9/23/2
f 5/10/4 6/9/4 16/24/4 14/21/4
f 8/7/5 13/19/5 16/20/5 6/9/5
f 5/10/4 14/21/4 30/21/4 28/10/4
f 10/15/5 13/19/5 24/19/5 23/15/5
f 20/21/4 17/24/4 18/12/4 19/11/4
f 14/21/3 16/24/3 17/24/3 20/21/3
f 12/12/1 11/11/1 19/11/1 18/12/1
f 20/21/4 19/11/4 33/11/4 34/21/4
f 22/23/2 23/22/2 24/6/2 21/5/2
f 13/6/3 15/5/3 21/5/3 24/6/3
f 9/23/1 22/23/1 36/23/1 27/23/1
f 9/23/1 10/22/1 23/22/1 22/23/1
f 31/25/6 29/8/6 28/10/6 30/26/6
f 25/27/6 27/28/6 32/29/6 26/30/6
f 27/28/6 31/25/6 30/26/6 32/29/6
f 32/29/6 30/26/6 34/26/6 33/29/6
f 31/25/6 27/28/6 36/28/6 35/25/6
f 7/8/3 5/10/3 28/10/3 29/8/3
f 11/11/4 1/14/4 26/14/4 32/11/4
f 3/4/2 9/23/2 27/23/2 25/4/2
f 19/11/1 11/11/1 32/11/1 33/11/1
f 21/5/3 15/5/3 31/5/3 35/5/3
f 15/5/2 7/8/2 29/8/2 31/5/2
f 22/23/2 21/5/2 35/5/2 36/23/2
