# Blender 4.3.2
# www.blender.org
mtllib TreeTop.mtl
o Cone
v 0.000000 -1.060225 -1.418272
v 0.276691 -1.060225 -1.391020
v 0.542749 -1.060225 -1.310312
v 0.787950 -1.060225 -1.179250
v 1.002870 -1.060225 -1.002870
v 1.179250 -1.060225 -0.787950
v 1.310312 -1.060225 -0.542749
v 1.391020 -1.060225 -0.276691
v 1.418272 -1.060225 0.000000
v 1.391020 -1.060225 0.276691
v 1.310312 -1.060225 0.542749
v 1.179250 -1.060225 0.787950
v 1.002870 -1.060225 1.002870
v 0.787950 -1.060225 1.179250
v 0.542749 -1.060225 1.310312
v 0.276691 -1.060225 1.391020
v 0.000000 -1.060225 1.418272
v -0.276691 -1.060225 1.391020
v -0.542749 -1.060225 1.310312
v -0.787950 -1.060225 1.179250
v -1.002870 -1.060225 1.002870
v -1.179250 -1.060225 0.787950
v -1.310312 -1.060225 0.542749
v -1.391020 -1.060225 0.276691
v -1.418272 -1.060225 0.000000
v -1.391020 -1.060225 -0.276691
v -1.310312 -1.060225 -0.542749
v -1.179250 -1.060225 -0.787950
v -1.002870 -1.060225 -1.002870
v -0.787950 -1.060225 -1.179250
v -0.542749 -1.060225 -1.310312
v -0.276691 -1.060225 -1.391020
v 0.000000 0.939775 0.000000
vn 0.0801 0.5766 -0.8131
vn 0.2372 0.5766 -0.7818
vn 0.3851 0.5766 -0.7206
vn 0.5183 0.5766 -0.6316
vn 0.6316 0.5766 -0.5183
vn 0.7206 0.5766 -0.3851
vn 0.7818 0.5766 -0.2372
vn 0.8131 0.5766 -0.0801
vn 0.8131 0.5766 0.0801
vn 0.7818 0.5766 0.2372
vn 0.7206 0.5766 0.3851
vn 0.6316 0.5766 0.5183
vn 0.5183 0.5766 0.6316
vn 0.3851 0.5766 0.7206
vn 0.2372 0.5766 0.7818
vn 0.0801 0.5766 0.8131
vn -0.0801 0.5766 0.8131
vn -0.2372 0.5766 0.7818
vn -0.3851 0.5766 0.7206
vn -0.5183 0.5766 0.6316
vn -0.6316 0.5766 0.5183
vn -0.7206 0.5766 0.3851
vn -0.7818 0.5766 0.2372
vn -0.8131 0.5766 0.0801
vn -0.8131 0.5766 -0.0801
vn -0.7818 0.5766 -0.2372
vn -0.7206 0.5766 -0.3851
vn -0.6316 0.5766 -0.5183
vn -0.5183 0.5766 -0.6316
vn -0.3851 0.5766 -0.7206
vn -0.0000 -1.0000 -0.0000
vn -0.2372 0.5766 -0.7818
vn -0.0801 0.5766 -0.8131
vt 0.250000 0.490000
vt 0.250000 0.250000
vt 0.296822 0.485388
vt 0.341844 0.471731
vt 0.383337 0.449553
vt 0.419706 0.419706
vt 0.449553 0.383337
vt 0.471731 0.341844
vt 0.485388 0.296822
vt 0.490000 0.250000
vt 0.485388 0.203178
vt 0.471731 0.158156
vt 0.449553 0.116663
vt 0.419706 0.080294
vt 0.383337 0.050447
vt 0.341844 0.028269
vt 0.296822 0.014612
vt 0.250000 0.010000
vt 0.203178 0.014612
vt 0.158156 0.028269
vt 0.116663 0.050447
vt 0.080294 0.080294
vt 0.050447 0.116663
vt 0.028269 0.158156
vt 0.014612 0.203178
vt 0.010000 0.250000
vt 0.014612 0.296822
vt 0.028269 0.341844
vt 0.050447 0.383337
vt 0.080294 0.419706
vt 0.116663 0.449553
vt 0.158156 0.471731
vt 0.750000 0.490000
vt 0.796822 0.485388
vt 0.841844 0.471731
vt 0.883337 0.449553
vt 0.919706 0.419706
vt 0.949553 0.383337
vt 0.971731 0.341844
vt 0.985388 0.296822
vt 0.990000 0.250000
vt 0.985388 0.203178
vt 0.971731 0.158156
vt 0.949553 0.116663
vt 0.919706 0.080294
vt 0.883337 0.050447
vt 0.841844 0.028269
vt 0.796822 0.014612
vt 0.750000 0.010000
vt 0.703178 0.014612
vt 0.658156 0.028269
vt 0.616663 0.050447
vt 0.580294 0.080294
vt 0.550447 0.116663
vt 0.528269 0.158156
vt 0.514612 0.203178
vt 0.510000 0.250000
vt 0.514612 0.296822
vt 0.528269 0.341844
vt 0.550447 0.383337
vt 0.580294 0.419706
vt 0.616663 0.449553
vt 0.658156 0.471731
vt 0.703178 0.485388
vt 0.203178 0.485388
s 0
f 1/1/1 33/2/1 2/3/1
f 2/3/2 33/2/2 3/4/2
f 3/4/3 33/2/3 4/5/3
f 4/5/4 33/2/4 5/6/4
f 5/6/5 33/2/5 6/7/5
f 6/7/6 33/2/6 7/8/6
f 7/8/7 33/2/7 8/9/7
f 8/9/8 33/2/8 9/10/8
f 9/10/9 33/2/9 10/11/9
f 10/11/10 33/2/10 11/12/10
f 11/12/11 33/2/11 12/13/11
f 12/13/12 33/2/12 13/14/12
f 13/14/13 33/2/13 14/15/13
f 14/15/14 33/2/14 15/16/14
f 15/16/15 33/2/15 16/17/15
f 16/17/16 33/2/16 17/18/16
f 17/18/17 33/2/17 18/19/17
f 18/19/18 33/2/18 19/20/18
f 19/20/19 33/2/19 20/21/19
f 20/21/20 33/2/20 21/22/20
f 21/22/21 33/2/21 22/23/21
f 22/23/22 33/2/22 23/24/22
f 23/24/23 33/2/23 24/25/23
f 24/25/24 33/2/24 25/26/24
f 25/26/25 33/2/25 26/27/25
f 26/27/26 33/2/26 27/28/26
f 27/28/27 33/2/27 28/29/27
f 28/29/28 33/2/28 29/30/28
f 29/30/29 33/2/29 30/31/29
f 30/31/30 33/2/30 31/32/30
f 1/33/31 2/34/31 3/35/31 4/36/31 5/37/31 6/38/31 7/39/31 8/40/31 9/41/31 10/42/31 11/43/31 12/44/31 13/45/31 14/46/31 15/47/31 16/48/31 17/49/31 18/50/31 19/51/31 20/52/31 21/53/31 22/54/31 23/55/31 24/56/31 25/57/31 26/58/31 27/59/31 28/60/31 29/61/31 30/62/31 31/63/31 32/64/31
f 31/32/32 33/2/32 32/65/32
f 32/65/33 33/2/33 1/1/33
o Cone.001
v 0.000000 -0.154876 -1.154257
v 0.225184 -0.154876 -1.132078
v 0.441715 -0.154876 -1.066394
v 0.641271 -0.154876 -0.959729
v 0.816183 -0.154876 -0.816183
v 0.959729 -0.154876 -0.641271
v 1.066394 -0.154876 -0.441715
v 1.132078 -0.154876 -0.225184
v 1.154257 -0.154876 0.000000
v 1.132078 -0.154876 0.225184
v 1.066394 -0.154876 0.441715
v 0.959729 -0.154876 0.641271
v 0.816183 -0.154876 0.816183
v 0.641271 -0.154876 0.959729
v 0.441715 -0.154876 1.066394
v 0.225184 -0.154876 1.132078
v 0.000000 -0.154876 1.154257
v -0.225184 -0.154876 1.132078
v -0.441715 -0.154876 1.066394
v -0.641271 -0.154876 0.959729
v -0.816183 -0.154876 0.816183
v -0.959729 -0.154876 0.641271
v -1.066394 -0.154876 0.441715
v -1.132078 -0.154876 0.225184
v -1.154257 -0.154876 0.000000
v -1.132078 -0.154876 -0.225184
v -1.066394 -0.154876 -0.441715
v -0.959729 -0.154876 -0.641271
v -0.816183 -0.154876 -0.816183
v -0.641271 -0.154876 -0.959729
v -0.441715 -0.154876 -1.066394
v -0.225184 -0.154876 -1.132078
v 0.000000 1.845124 0.000000
vn 0.0850 0.4980 -0.8630
vn 0.2517 0.4980 -0.8298
vn 0.4088 0.4980 -0.7648
vn 0.5501 0.4980 -0.6703
vn 0.6703 0.4980 -0.5501
vn 0.7648 0.4980 -0.4088
vn 0.8298 0.4980 -0.2517
vn 0.8630 0.4980 -0.0850
vn 0.8630 0.4980 0.0850
vn 0.8298 0.4980 0.2517
vn 0.7648 0.4980 0.4088
vn 0.6703 0.4980 0.5501
vn 0.5501 0.4980 0.6703
vn 0.4088 0.4980 0.7648
vn 0.2517 0.4980 0.8298
vn 0.0850 0.4980 0.8630
vn -0.0850 0.4980 0.8630
vn -0.2517 0.4980 0.8298
vn -0.4088 0.4980 0.7648
vn -0.5501 0.4980 0.6703
vn -0.6703 0.4980 0.5501
vn -0.7648 0.4980 0.4088
vn -0.8298 0.4980 0.2517
vn -0.8630 0.4980 0.0850
vn -0.8630 0.4980 -0.0850
vn -0.8298 0.4980 -0.2517
vn -0.7648 0.4980 -0.4088
vn -0.6703 0.4980 -0.5501
vn -0.5501 0.4980 -0.6703
vn -0.4088 0.4980 -0.7648
vn -0.0000 -1.0000 -0.0000
vn -0.2517 0.4980 -0.8298
vn -0.0850 0.4980 -0.8630
vt 0.250000 0.490000
vt 0.250000 0.250000
vt 0.296822 0.485388
vt 0.341844 0.471731
vt 0.383337 0.449553
vt 0.419706 0.419706
vt 0.449553 0.383337
vt 0.471731 0.341844
vt 0.485388 0.296822
vt 0.490000 0.250000
vt 0.485388 0.203178
vt 0.471731 0.158156
vt 0.449553 0.116663
vt 0.419706 0.080294
vt 0.383337 0.050447
vt 0.341844 0.028269
vt 0.296822 0.014612
vt 0.250000 0.010000
vt 0.203178 0.014612
vt 0.158156 0.028269
vt 0.116663 0.050447
vt 0.080294 0.080294
vt 0.050447 0.116663
vt 0.028269 0.158156
vt 0.014612 0.203178
vt 0.010000 0.250000
vt 0.014612 0.296822
vt 0.028269 0.341844
vt 0.050447 0.383337
vt 0.080294 0.419706
vt 0.116663 0.449553
vt 0.158156 0.471731
vt 0.750000 0.490000
vt 0.796822 0.485388
vt 0.841844 0.471731
vt 0.883337 0.449553
vt 0.919706 0.419706
vt 0.949553 0.383337
vt 0.971731 0.341844
vt 0.985388 0.296822
vt 0.990000 0.250000
vt 0.985388 0.203178
vt 0.971731 0.158156
vt 0.949553 0.116663
vt 0.919706 0.080294
vt 0.883337 0.050447
vt 0.841844 0.028269
vt 0.796822 0.014612
vt 0.750000 0.010000
vt 0.703178 0.014612
vt 0.658156 0.028269
vt 0.616663 0.050447
vt 0.580294 0.080294
vt 0.550447 0.116663
vt 0.528269 0.158156
vt 0.514612 0.203178
vt 0.510000 0.250000
vt 0.514612 0.296822
vt 0.528269 0.341844
vt 0.550447 0.383337
vt 0.580294 0.419706
vt 0.616663 0.449553
vt 0.658156 0.471731
vt 0.703178 0.485388
vt 0.203178 0.485388
s 0
f 34/66/34 66/67/34 35/68/34
f 35/68/35 66/67/35 36/69/35
f 36/69/36 66/67/36 37/70/36
f 37/70/37 66/67/37 38/71/37
f 38/71/38 66/67/38 39/72/38
f 39/72/39 66/67/39 40/73/39
f 40/73/40 66/67/40 41/74/40
f 41/74/41 66/67/41 42/75/41
f 42/75/42 66/67/42 43/76/42
f 43/76/43 66/67/43 44/77/43
f 44/77/44 66/67/44 45/78/44
f 45/78/45 66/67/45 46/79/45
f 46/79/46 66/67/46 47/80/46
f 47/80/47 66/67/47 48/81/47
f 48/81/48 66/67/48 49/82/48
f 49/82/49 66/67/49 50/83/49
f 50/83/50 66/67/50 51/84/50
f 51/84/51 66/67/51 52/85/51
f 52/85/52 66/67/52 53/86/52
f 53/86/53 66/67/53 54/87/53
f 54/87/54 66/67/54 55/88/54
f 55/88/55 66/67/55 56/89/55
f 56/89/56 66/67/56 57/90/56
f 57/90/57 66/67/57 58/91/57
f 58/91/58 66/67/58 59/92/58
f 59/92/59 66/67/59 60/93/59
f 60/93/60 66/67/60 61/94/60
f 61/94/61 66/67/61 62/95/61
f 62/95/62 66/67/62 63/96/62
f 63/96/63 66/67/63 64/97/63
f 34/98/64 35/99/64 36/100/64 37/101/64 38/102/64 39/103/64 40/104/64 41/105/64 42/106/64 43/107/64 44/108/64 45/109/64 46/110/64 47/111/64 48/112/64 49/113/64 50/114/64 51/115/64 52/116/64 53/117/64 54/118/64 55/119/64 56/120/64 57/121/64 58/122/64 59/123/64 60/124/64 61/125/64 62/126/64 63/127/64 64/128/64 65/129/64
f 64/97/65 66/67/65 65/130/65
f 65/130/66 66/67/66 34/66/66
o Cone.002
v 0.000000 0.820221 -1.000000
v 0.195090 0.820221 -0.980785
v 0.382683 0.820221 -0.923880
v 0.555570 0.820221 -0.831470
v 0.707107 0.820221 -0.707107
v 0.831470 0.820221 -0.555570
v 0.923880 0.820221 -0.382683
v 0.980785 0.820221 -0.195090
v 1.000000 0.820221 0.000000
v 0.980785 0.820221 0.195090
v 0.923880 0.820221 0.382683
v 0.831470 0.820221 0.555570
v 0.707107 0.820221 0.707107
v 0.555570 0.820221 0.831470
v 0.382683 0.820221 0.923880
v 0.195090 0.820221 0.980785
v 0.000000 0.820221 1.000000
v -0.195090 0.820221 0.980785
v -0.382683 0.820221 0.923880
v -0.555570 0.820221 0.831470
v -0.707107 0.820221 0.707107
v -0.831470 0.820221 0.555570
v -0.923880 0.820221 0.382683
v -0.980785 0.820221 0.195090
v -1.000000 0.820221 0.000000
v -0.980785 0.820221 -0.195090
v -0.923880 0.820221 -0.382683
v -0.831470 0.820221 -0.555570
v -0.707107 0.820221 -0.707107
v -0.555570 0.820221 -0.831470
v -0.382683 0.820221 -0.923880
v -0.195090 0.820221 -0.980785
v 0.000000 2.393829 0.000000
vn 0.0828 0.5345 -0.8411
vn 0.2453 0.5345 -0.8088
vn 0.3984 0.5345 -0.7454
vn 0.5362 0.5345 -0.6533
vn 0.6533 0.5345 -0.5362
vn 0.7454 0.5345 -0.3984
vn 0.8088 0.5345 -0.2453
vn 0.8411 0.5345 -0.0828
vn 0.8411 0.5345 0.0828
vn 0.8088 0.5345 0.2453
vn 0.7454 0.5345 0.3984
vn 0.6533 0.5345 0.5362
vn 0.5362 0.5345 0.6533
vn 0.3984 0.5345 0.7454
vn 0.2453 0.5345 0.8088
vn 0.0828 0.5345 0.8411
vn -0.0828 0.5345 0.8411
vn -0.2453 0.5345 0.8088
vn -0.3984 0.5345 0.7454
vn -0.5362 0.5345 0.6533
vn -0.6533 0.5345 0.5362
vn -0.7454 0.5345 0.3984
vn -0.8088 0.5345 0.2453
vn -0.8411 0.5345 0.0828
vn -0.8411 0.5345 -0.0828
vn -0.8088 0.5345 -0.2453
vn -0.7454 0.5345 -0.3984
vn -0.6533 0.5345 -0.5362
vn -0.5362 0.5345 -0.6533
vn -0.3984 0.5345 -0.7454
vn -0.0000 -1.0000 -0.0000
vn -0.2453 0.5345 -0.8088
vn -0.0828 0.5345 -0.8411
vt 0.250000 0.490000
vt 0.250000 0.250000
vt 0.296822 0.485388
vt 0.341844 0.471731
vt 0.383337 0.449553
vt 0.419706 0.419706
vt 0.449553 0.383337
vt 0.471731 0.341844
vt 0.485388 0.296822
vt 0.490000 0.250000
vt 0.485388 0.203178
vt 0.471731 0.158156
vt 0.449553 0.116663
vt 0.419706 0.080294
vt 0.383337 0.050447
vt 0.341844 0.028269
vt 0.296822 0.014612
vt 0.250000 0.010000
vt 0.203178 0.014612
vt 0.158156 0.028269
vt 0.116663 0.050447
vt 0.080294 0.080294
vt 0.050447 0.116663
vt 0.028269 0.158156
vt 0.014612 0.203178
vt 0.010000 0.250000
vt 0.014612 0.296822
vt 0.028269 0.341844
vt 0.050447 0.383337
vt 0.080294 0.419706
vt 0.116663 0.449553
vt 0.158156 0.471731
vt 0.750000 0.490000
vt 0.796822 0.485388
vt 0.841844 0.471731
vt 0.883337 0.449553
vt 0.919706 0.419706
vt 0.949553 0.383337
vt 0.971731 0.341844
vt 0.985388 0.296822
vt 0.990000 0.250000
vt 0.985388 0.203178
vt 0.971731 0.158156
vt 0.949553 0.116663
vt 0.919706 0.080294
vt 0.883337 0.050447
vt 0.841844 0.028269
vt 0.796822 0.014612
vt 0.750000 0.010000
vt 0.703178 0.014612
vt 0.658156 0.028269
vt 0.616663 0.050447
vt 0.580294 0.080294
vt 0.550447 0.116663
vt 0.528269 0.158156
vt 0.514612 0.203178
vt 0.510000 0.250000
vt 0.514612 0.296822
vt 0.528269 0.341844
vt 0.550447 0.383337
vt 0.580294 0.419706
vt 0.616663 0.449553
vt 0.658156 0.471731
vt 0.703178 0.485388
vt 0.203178 0.485388
s 0
f 67/131/67 99/132/67 68/133/67
f 68/133/68 99/132/68 69/134/68
f 69/134/69 99/132/69 70/135/69
f 70/135/70 99/132/70 71/136/70
f 71/136/71 99/132/71 72/137/71
f 72/137/72 99/132/72 73/138/72
f 73/138/73 99/132/73 74/139/73
f 74/139/74 99/132/74 75/140/74
f 75/140/75 99/132/75 76/141/75
f 76/141/76 99/132/76 77/142/76
f 77/142/77 99/132/77 78/143/77
f 78/143/78 99/132/78 79/144/78
f 79/144/79 99/132/79 80/145/79
f 80/145/80 99/132/80 81/146/80
f 81/146/81 99/132/81 82/147/81
f 82/147/82 99/132/82 83/148/82
f 83/148/83 99/132/83 84/149/83
f 84/149/84 99/132/84 85/150/84
f 85/150/85 99/132/85 86/151/85
f 86/151/86 99/132/86 87/152/86
f 87/152/87 99/132/87 88/153/87
f 88/153/88 99/132/88 89/154/88
f 89/154/89 99/132/89 90/155/89
f 90/155/90 99/132/90 91/156/90
f 91/156/91 99/132/91 92/157/91
f 92/157/92 99/132/92 93/158/92
f 93/158/93 99/132/93 94/159/93
f 94/159/94 99/132/94 95/160/94
f 95/160/95 99/132/95 96/161/95
f 96/161/96 99/132/96 97/162/96
f 67/163/97 68/164/97 69/165/97 70/166/97 71/167/97 72/168/97 73/169/97 74/170/97 75/171/97 76/172/97 77/173/97 78/174/97 79/175/97 80/176/97 81/177/97 82/178/97 83/179/97 84/180/97 85/181/97 86/182/97 87/183/97 88/184/97 89/185/97 90/186/97 91/187/97 92/188/97 93/189/97 94/190/97 95/191/97 96/192/97 97/193/97 98/194/97
f 97/162/98 99/132/98 98/195/98
f 98/195/99 99/132/99 67/131/99
