# Blender 4.1.1
# www.blender.org
o Cube.147
v -0.465703 1.571091 0.667726
v -0.793422 3.057219 0.898774
v -0.465703 1.571091 0.037989
v -0.790534 3.057219 -0.195343
v 0.277229 1.571091 0.667727
v 0.602061 3.057219 0.901059
v 0.277229 1.571091 0.037990
v 0.604949 3.057219 -0.193058
v -0.094237 1.571091 -0.092479
v -0.092195 3.745734 -0.352350
v -0.094237 1.571091 0.798195
v -0.096279 3.745734 1.058066
v -0.619570 1.571091 0.352858
v -1.080992 3.064921 0.351063
v 0.431096 1.571091 0.352858
v 0.892519 3.064921 0.354653
v -0.094237 3.745734 0.352858
v -0.094237 1.571091 0.352858
v -0.332498 1.571091 -0.027226
v -0.451019 3.377096 0.960832
v -0.451019 3.372614 -0.256560
v -0.332498 1.571091 0.732942
v -0.332498 1.571091 0.352858
v -0.451019 3.413871 0.352091
v 0.262546 3.377095 -0.255115
v 0.144025 1.571091 0.732942
v 0.144025 1.571091 -0.027225
v 0.262546 3.372614 0.962276
v 0.262546 3.413871 0.353625
v 0.144025 1.571091 0.352858
v -0.706405 2.344517 0.869181
v -0.704994 2.344521 -0.164737
v 0.517931 2.344517 -0.163465
v 0.516520 2.344521 0.870453
v -0.095233 2.344859 1.107362
v -0.093241 2.344859 -0.401645
v 0.770624 2.343922 0.353785
v -0.959098 2.343922 0.351931
v -0.442100 2.345397 -0.276658
v -0.442097 2.345403 0.981826
v 0.253626 2.345397 0.982374
v 0.253623 2.345403 -0.276110
v -0.779740 2.883241 0.908138
v -0.777493 2.883241 -0.204281
v 0.591266 2.883241 -0.202422
v 0.589019 2.883241 0.909998
v -0.095825 2.883241 1.115915
v -0.092649 2.883241 -0.410198
v 0.873686 2.883241 0.354281
v -1.062159 2.883241 0.351435
v -0.462586 2.883241 -0.294788
v -0.464230 2.883241 0.999463
v 0.275758 2.883241 1.000504
v 0.274111 2.883241 -0.293747
v -0.766330 2.800292 -0.198192
v 0.579975 2.800291 -0.196423
v 0.577856 2.800292 0.903909
v -0.095734 2.800344 1.114598
v -0.092740 2.800344 -0.408881
v 0.857817 2.800200 0.354205
v -1.046291 2.800200 0.351512
v -0.459432 2.800427 -0.291996
v -0.461062 2.800428 0.996747
v 0.272589 2.800427 0.997712
v 0.270957 2.800428 -0.291031
v -0.768448 2.800291 0.902140
v -0.095428 2.888221 1.005128
v -0.463833 2.888221 0.888676
v 0.276155 2.888221 0.889717
v -0.095336 2.805324 1.003811
v -0.460664 2.805408 0.885960
v 0.272987 2.805407 0.886925
vn -0.9920 -0.1265 -0.0019
vn -0.9970 -0.0770 -0.0027
vn -0.5647 0.0125 -0.8252
vn -0.6272 -0.0625 -0.7764
vn 0.2912 0.0084 -0.9566
vn 0.3025 0.0696 -0.9506
vn 0.5671 0.0126 -0.8235
vn 0.6288 -0.0623 -0.7750
vn 0.9920 -0.1265 0.0019
vn 0.9970 -0.0770 0.0027
vn 0.5652 0.0129 0.8249
vn 0.6276 -0.0624 0.7760
vn -0.2870 0.0210 0.9577
vn -0.3024 0.0700 0.9506
vn -0.5676 0.0130 0.8232
vn -0.6293 -0.0622 0.7747
vn -0.0000 -1.0000 -0.0000
vn -0.6423 0.7664 -0.0021
vn -0.5736 0.8191 -0.0021
vn -0.5658 0.8064 0.1717
vn -0.6414 0.7616 0.0925
vn 0.6423 0.7664 0.0021
vn 0.7031 0.7111 0.0023
vn 0.7032 0.7106 0.0234
vn 0.6403 0.7619 0.0975
vn 0.2847 0.0207 0.9584
vn 0.2980 0.0701 0.9520
vn -0.0033 0.0741 0.9972
vn -0.0027 0.0741 0.9972
vn -0.2883 0.0082 -0.9575
vn -0.2982 0.0697 -0.9520
vn 0.0034 0.0737 -0.9973
vn 0.0027 0.0213 -0.9998
vn 0.6414 0.7616 -0.0925
vn 0.7028 0.7112 -0.0188
vn -0.6403 0.7619 -0.0974
vn -0.5639 0.8069 -0.1760
vn -0.7032 0.7106 -0.0234
vn -0.7031 0.7111 -0.0023
vn -0.7028 0.7112 0.0188
vn 0.5658 0.8064 -0.1717
vn 0.5736 0.8191 0.0021
vn 0.5639 0.8069 0.1760
vn 0.0007 -0.3582 -0.9336
vn 0.0014 -0.1938 -0.9810
vn 0.3386 -0.1997 -0.9195
vn 0.3377 -0.3403 -0.8776
vn 0.6398 -0.3713 0.6729
vn 0.6555 -0.2484 0.7132
vn 0.3371 -0.2003 0.9199
vn 0.3367 -0.3406 0.8778
vn -0.0007 -0.3582 0.9336
vn -0.0014 -0.1941 0.9810
vn -0.3386 -0.2000 0.9194
vn -0.3377 -0.3403 0.8776
vn -0.6398 -0.3713 -0.6729
vn -0.6554 -0.2483 -0.7134
vn -0.3370 -0.2000 -0.9200
vn -0.3367 -0.3406 -0.8778
vn -0.6402 -0.3711 0.6727
vn -0.6565 -0.2482 0.7123
vn -0.9582 -0.2859 -0.0012
vn -0.9157 -0.4018 -0.0005
vn 0.6402 -0.3711 -0.6727
vn 0.6563 -0.2481 -0.7125
vn 0.9582 -0.2859 0.0012
vn 0.9157 -0.4018 0.0005
vn 0.0022 -0.0308 -0.9995
vn 0.3133 -0.0531 -0.9482
vn 0.6451 -0.1288 0.7532
vn 0.3149 -0.0622 0.9471
vn -0.0001 0.9990 0.0449
vn -0.5486 0.8353 0.0356
vn -0.4473 0.6189 0.6457
vn -0.0013 0.8081 0.5890
vn -0.6447 -0.1286 -0.7536
vn -0.3109 -0.0535 -0.9489
vn -0.6466 -0.1286 0.7519
vn -0.9839 -0.1787 -0.0017
vn 0.6461 -0.1284 -0.7523
vn 0.9839 -0.1787 0.0017
vn -0.5983 -0.8004 -0.0381
vn -0.4727 -0.6423 0.6033
vn -0.3164 -0.0617 0.9466
vn -0.0022 -0.0316 0.9995
vn -0.0014 -0.8535 0.5210
vn 0.4688 -0.6425 0.6061
vn 0.4436 0.6189 0.6483
vn 0.0001 -0.9990 -0.0449
vn 0.5990 -0.8000 -0.0338
vn 0.5488 0.8350 0.0395
vt 0.562500 0.125000
vt 0.625000 0.125000
vt 0.625000 0.250000
vt 0.562500 0.250000
vt 0.562500 0.437500
vt 0.625000 0.437500
vt 0.625000 0.500000
vt 0.562500 0.500000
vt 0.562500 0.625000
vt 0.625000 0.625000
vt 0.625000 0.750000
vt 0.562500 0.750000
vt 0.562500 0.937500
vt 0.625000 0.937500
vt 0.625000 1.000000
vt 0.562500 1.000000
vt 0.312500 0.625000
vt 0.375000 0.625000
vt 0.375000 0.750000
vt 0.312500 0.750000
vt 0.812500 0.625000
vt 0.875000 0.625000
vt 0.875000 0.750000
vt 0.812500 0.750000
vt 0.687500 0.625000
vt 0.750000 0.625000
vt 0.750000 0.750000
vt 0.687500 0.750000
vt 0.187500 0.625000
vt 0.250000 0.625000
vt 0.250000 0.750000
vt 0.187500 0.750000
vt 0.562500 0.812500
vt 0.625000 0.812500
vt 0.625000 0.875000
vt 0.562500 0.875000
vt 0.562500 0.312500
vt 0.625000 0.312500
vt 0.625000 0.375000
vt 0.562500 0.375000
vt 0.187500 0.500000
vt 0.250000 0.500000
vt 0.687500 0.500000
vt 0.750000 0.500000
vt 0.812500 0.500000
vt 0.875000 0.500000
vt 0.312500 0.500000
vt 0.375000 0.500000
vt 0.562500 0.000000
vt 0.625000 0.000000
vt 0.125000 0.500000
vt 0.125000 0.625000
vt 0.125000 0.750000
vt 0.375000 0.375000
vt 0.500000 0.375000
vt 0.500000 0.437500
vt 0.375000 0.437500
vt 0.500000 0.750000
vt 0.500000 0.812500
vt 0.375000 0.812500
vt 0.375000 0.875000
vt 0.500000 0.875000
vt 0.500000 0.937500
vt 0.375000 0.937500
vt 0.375000 0.250000
vt 0.500000 0.250000
vt 0.500000 0.312500
vt 0.375000 0.312500
vt 0.375000 0.000000
vt 0.500000 0.000000
vt 0.500000 0.125000
vt 0.375000 0.125000
vt 0.500000 0.500000
vt 0.500000 0.625000
vt 0.500000 1.000000
vt 0.375000 1.000000
vt 0.552877 0.375000
vt 0.552877 0.437500
vt 0.552877 0.750000
vt 0.552877 0.812500
vt 0.552877 0.875000
vt 0.552877 0.250000
vt 0.552877 0.312500
vt 0.552877 0.000000
vt 0.552877 0.125000
vt 0.552877 0.500000
vt 0.552877 0.625000
vt 0.552877 0.937500
vt 0.552877 1.000000
s 1
f 50/1/1 14/2/2 4/3/3 44/4/4
f 54/5/5 25/6/6 8/7/7 45/8/8
f 49/9/9 16/10/10 6/11/11 46/12/12
f 52/13/13 20/14/14 2/15/15 43/16/16
f 30/17/17 15/18/17 5/19/17 26/20/17
f 24/21/18 14/22/19 2/23/20 20/24/21
f 29/25/22 17/26/23 12/27/24 28/28/25
f 23/29/17 18/30/17 11/31/17 22/32/17
f 53/33/26 28/34/27 12/35/28 47/36/29
f 51/37/30 21/38/31 10/39/32 48/40/33
f 19/41/17 9/42/17 18/30/17 23/29/17
f 25/43/34 10/44/35 17/26/23 29/25/22
f 21/45/36 4/46/37 14/22/19 24/21/18
f 27/47/17 7/48/17 15/18/17 30/17/17
f 45/8/8 8/7/7 16/10/10 49/9/9
f 43/49/16 2/50/15 14/2/2 50/1/1
f 10/44/38 21/45/36 24/21/18 17/26/39
f 3/51/17 19/41/17 23/29/17 13/52/17
f 44/4/4 4/3/3 21/38/31 51/37/30
f 13/52/17 23/29/17 22/32/17 1/53/17
f 17/26/39 24/21/18 20/24/21 12/27/40
f 47/36/29 12/35/28 20/14/14 52/13/13
f 9/42/17 27/47/17 30/17/17 18/30/17
f 8/7/41 25/43/34 29/25/22 16/10/42
f 46/12/12 6/11/11 28/34/27 53/33/26
f 16/10/42 29/25/22 28/28/25 6/11/43
f 18/30/17 30/17/17 26/20/17 11/31/17
f 48/40/33 10/39/32 25/6/6 54/5/5
f 9/54/44 36/55/45 42/56/46 27/57/47
f 5/19/48 34/58/49 41/59/50 26/60/51
f 11/61/52 35/62/53 40/63/54 22/64/55
f 3/65/56 32/66/57 39/67/58 19/68/59
f 1/69/60 31/70/61 38/71/62 13/72/63
f 7/48/64 33/73/65 37/74/66 15/18/67
f 19/68/59 39/67/58 36/55/45 9/54/44
f 26/60/51 41/59/50 35/62/53 11/61/52
f 22/64/55 40/63/54 31/75/61 1/76/60
f 15/18/67 37/74/66 34/58/49 5/19/48
f 27/57/47 42/56/46 33/73/65 7/48/64
f 13/72/63 38/71/62 32/66/57 3/65/56
f 59/77/68 48/40/33 54/5/5 65/78/69
f 57/79/70 46/12/12 53/33/26 64/80/71
f 58/81/72 64/80/73 72/80/74 70/81/75
f 55/82/76 44/4/4 51/37/30 62/83/77
f 66/84/78 43/49/16 50/1/1 61/85/79
f 56/86/80 45/8/8 49/9/9 60/87/81
f 62/83/77 51/37/30 48/40/33 59/77/68
f 64/80/73 53/33/82 69/33/83 72/80/74
f 63/88/84 52/13/13 43/16/16 66/89/78
f 60/87/81 49/9/9 46/12/12 57/79/70
f 65/78/69 54/5/5 45/8/8 56/86/80
f 61/85/79 50/1/1 44/4/4 55/82/76
f 38/71/62 61/85/79 55/82/76 32/66/57
f 42/56/46 65/78/69 56/86/80 33/73/65
f 37/74/66 60/87/81 57/79/70 34/58/49
f 40/63/54 63/88/84 66/89/78 31/75/61
f 41/59/50 64/80/71 58/81/85 35/62/53
f 39/67/58 62/83/77 59/77/68 36/55/45
f 33/73/65 56/86/80 60/87/81 37/74/66
f 31/70/61 66/84/78 61/85/79 38/71/62
f 32/66/57 55/82/76 62/83/77 39/67/58
f 35/62/53 58/81/85 63/88/84 40/63/54
f 34/58/49 57/79/70 64/80/71 41/59/50
f 36/55/45 59/77/68 65/78/69 42/56/46
f 70/81/75 67/36/86 68/13/87 71/88/88
f 72/80/74 69/33/83 67/36/86 70/81/75
f 47/36/89 52/13/90 68/13/87 67/36/86
f 63/88/91 58/81/72 70/81/75 71/88/88
f 52/13/90 63/88/91 71/88/88 68/13/87
f 53/33/82 47/36/89 67/36/86 69/33/83
o Cube.149
v -1.068792 1.023829 0.458811
v -1.068792 2.055002 0.458811
v -1.068792 1.023829 0.094718
v -1.068792 2.055002 0.094718
v -0.704699 0.536780 0.458811
v -0.704699 1.596315 0.458811
v -0.704699 0.536780 0.094718
v -0.704699 1.596315 0.094718
v -0.687705 -0.260093 0.094718
v -0.687705 -0.260093 0.458811
v -0.627845 -0.260093 0.094718
v -0.627845 -0.260093 0.458811
v 0.880319 1.023829 0.458811
v 0.880319 2.055003 0.458811
v 0.880319 1.023829 0.094718
v 0.880319 2.055003 0.094718
v 0.516225 0.536780 0.458811
v 0.516225 1.596315 0.458811
v 0.516225 0.536780 0.094718
v 0.516225 1.596315 0.094718
v 0.499231 -0.260093 0.094718
v 0.499231 -0.260093 0.458811
v 0.439371 -0.260093 0.094718
v 0.439371 -0.260093 0.458811
vn -1.0000 -0.0000 -0.0000
vn -0.0000 -0.0000 -1.0000
vn 1.0000 -0.0000 -0.0000
vn -0.0000 -0.0000 1.0000
vn 0.7832 0.6217 -0.0000
vn -0.0000 -1.0000 -0.0000
vn -0.9587 -0.2845 -0.0000
vn 0.9954 0.0960 -0.0000
vn -0.7832 0.6217 -0.0000
vn 0.9587 -0.2845 -0.0000
vn -0.9954 0.0960 -0.0000
vt 0.375000 0.000000
vt 0.625000 0.000000
vt 0.625000 0.250000
vt 0.375000 0.250000
vt 0.625000 0.500000
vt 0.375000 0.500000
vt 0.625000 0.750000
vt 0.375000 0.750000
vt 0.625000 1.000000
vt 0.375000 1.000000
vt 0.875000 0.500000
vt 0.875000 0.750000
vt 0.125000 0.500000
vt 0.125000 0.750000
s 0
f 73/90/92 74/91/92 76/92/92 75/93/92
f 75/93/93 76/92/93 80/94/93 79/95/93
f 79/95/94 80/94/94 78/96/94 77/97/94
f 77/97/95 78/96/95 74/98/95 73/99/95
f 75/93/93 79/95/93 83/95/93 81/93/93
f 80/94/96 76/100/96 74/101/96 78/96/96
f 81/102/97 83/95/97 84/97/97 82/103/97
f 73/90/98 75/93/98 81/93/98 82/90/98
f 79/95/99 77/97/99 84/97/99 83/95/99
f 77/97/95 73/99/95 82/99/95 84/97/95
f 85/90/94 87/93/94 88/92/94 86/91/94
f 87/93/93 91/95/93 92/94/93 88/92/93
f 91/95/92 89/97/92 90/96/92 92/94/92
f 89/97/95 85/99/95 86/98/95 90/96/95
f 87/93/93 93/93/93 95/95/93 91/95/93
f 92/94/100 90/96/100 86/101/100 88/100/100
f 93/102/97 94/103/97 96/97/97 95/95/97
f 85/90/101 94/90/101 93/93/101 87/93/101
f 91/95/102 95/95/102 96/97/102 89/97/102
f 89/97/95 96/97/95 94/99/95 85/99/95
o Cube.150
v -1.785263 1.451913 0.621472
v -1.787501 2.422502 0.621472
v -1.785263 1.451913 0.084244
v -1.787501 2.422502 0.084244
v -1.446666 1.451913 0.621472
v -1.298166 2.152586 0.621472
v -1.446666 1.451913 0.084244
v -1.298166 2.152586 0.084244
v -1.608316 2.786800 0.621472
v -1.608316 2.786800 0.084244
v -1.074807 2.643227 0.084244
v -1.074807 2.643227 0.621472
v -1.863164 1.937208 0.621472
v -1.863164 1.937208 0.084244
v -1.418038 1.720528 0.084244
v -1.418038 1.720528 0.621472
v 1.596789 1.451913 0.621472
v 1.599027 2.422502 0.621472
v 1.596789 1.451913 0.084244
v 1.599027 2.422502 0.084244
v 1.258192 1.451913 0.621472
v 1.109692 2.152586 0.621472
v 1.258192 1.451913 0.084244
v 1.109692 2.152586 0.084244
v 1.419842 2.786800 0.621472
v 1.419842 2.786800 0.084244
v 0.886333 2.643226 0.084244
v 0.886333 2.643226 0.621472
v 1.674691 1.937208 0.621472
v 1.674691 1.937208 0.084244
v 1.229564 1.720528 0.084244
v 1.229564 1.720528 0.621472
vn -0.9881 0.1541 -0.0000
vn -0.0000 -0.0000 -1.0000
vn 0.9636 -0.2673 -0.0000
vn -0.0000 -0.0000 1.0000
vn -0.0000 -1.0000 -0.0000
vn 0.9101 -0.4143 -0.0000
vn 0.2599 0.9656 -0.0000
vn -0.8973 0.4414 -0.0000
vn 0.9944 -0.1060 -0.0000
vn -0.9874 -0.1585 -0.0000
vn 0.9881 0.1541 -0.0000
vn -0.9636 -0.2673 -0.0000
vn -0.9101 -0.4143 -0.0000
vn -0.2599 0.9656 -0.0000
vn 0.8973 0.4414 -0.0000
vn -0.9944 -0.1060 -0.0000
vn 0.9874 -0.1585 -0.0000
vt 0.500000 0.000000
vt 0.625000 0.000000
vt 0.625000 0.250000
vt 0.500000 0.250000
vt 0.625000 0.500000
vt 0.500000 0.500000
vt 0.625000 0.750000
vt 0.500000 0.750000
vt 0.625000 1.000000
vt 0.500000 1.000000
vt 0.125000 0.500000
vt 0.375000 0.500000
vt 0.375000 0.750000
vt 0.125000 0.750000
vt 0.875000 0.500000
vt 0.875000 0.750000
vt 0.625000 0.250000
vt 0.375000 1.000000
vt 0.375000 0.250000
vt 0.375000 0.000000
s 0
f 109/104/103 98/105/103 100/106/103 110/107/103
f 110/107/104 100/106/104 104/108/104 111/109/104
f 111/109/105 104/108/105 102/110/105 112/111/105
f 112/111/106 102/110/106 98/112/106 109/113/106
f 99/114/107 103/115/107 101/116/107 97/117/107
f 102/110/108 104/108/108 107/108/108 108/110/108
f 107/108/109 106/118/109 105/119/109 108/110/109
f 100/106/110 98/105/110 105/105/110 106/120/110
f 98/112/106 102/110/106 108/110/106 105/112/106
f 104/108/104 100/106/104 106/120/104 107/108/104
f 101/116/106 112/111/106 109/113/106 97/121/106
f 103/115/111 111/109/111 112/111/111 101/116/111
f 99/122/104 110/107/104 111/109/104 103/115/104
f 97/123/112 109/104/112 110/107/112 99/122/112
f 125/104/113 126/107/113 116/106/113 114/105/113
f 126/107/104 127/109/104 120/108/104 116/106/104
f 127/109/114 128/111/114 118/110/114 120/108/114
f 128/111/106 125/113/106 114/112/106 118/110/106
f 115/114/107 113/117/107 117/116/107 119/115/107
f 118/110/115 124/110/115 123/108/115 120/108/115
f 123/108/116 124/110/116 121/119/116 122/118/116
f 116/106/117 122/120/117 121/105/117 114/105/117
f 114/112/106 121/112/106 124/110/106 118/110/106
f 120/108/104 123/108/104 122/120/104 116/106/104
f 117/116/106 113/121/106 125/113/106 128/111/106
f 119/115/118 117/116/118 128/111/118 127/109/118
f 115/122/104 119/115/104 127/109/104 126/107/104
f 113/123/119 115/122/119 126/107/119 125/104/119
