# Blender 4.1.1
# www.blender.org
o Cube.082
v -1.094237 0.526703 1.352858
v -0.094237 2.194026 1.352858
v -0.142465 0.512002 -1.092419
v -0.094237 0.592414 -1.092419
v 0.905763 0.526703 1.352858
v -0.094237 1.393220 0.130219
v -0.046009 0.512002 -1.092419
v -0.618351 0.519353 0.130219
v 0.429877 0.519353 0.130219
v -0.094237 1.269292 -0.058989
v 0.356232 0.518215 -0.058989
v -0.544705 0.518215 -0.058989
vn -0.8127 0.4874 -0.3193
vn -0.0000 -0.0000 -1.0000
vn 0.8127 0.4874 -0.3193
vn -0.0000 -0.0000 1.0000
vn -0.0000 -1.0000 0.0060
vt 0.375000 0.144344
vt 0.625000 0.144344
vt 0.625000 0.250000
vt 0.375000 0.250000
vt 0.625000 0.500000
vt 0.375000 0.500000
vt 0.375000 0.625000
vt 0.625000 0.625000
vt 0.625000 0.750000
vt 0.375000 0.750000
vt 0.625000 1.000000
vt 0.375000 1.000000
vt 0.125000 0.625000
vt 0.125000 0.750000
vt 0.375000 0.605656
vt 0.125000 0.605656
vt 0.375000 0.000000
vt 0.625000 0.000000
vt 0.625000 0.125000
vt 0.375000 0.125000
vt 0.625000 0.605656
vt 0.125000 0.500000
s 0
f 12/1/1 10/2/1 4/3/1 3/4/1
f 3/4/2 4/5/2 7/6/2
f 9/7/3 6/8/3 2/9/3 5/10/3
f 5/10/4 2/11/4 1/12/4
f 8/13/5 9/7/5 5/10/5 1/14/5
f 11/15/4 10/2/4 12/16/4
f 1/17/1 2/18/1 6/19/1 8/20/1
f 7/6/3 4/5/3 10/21/3 11/15/3
f 3/22/5 7/6/5 11/15/5 12/16/5
f 9/7/2 8/13/2 6/19/2
o Cube.111
v -0.008968 1.611971 1.308015
v -0.008968 1.441434 1.308015
v -0.065897 1.869160 2.275530
v -0.065897 1.812480 2.275530
v -0.179505 1.611971 1.308015
v -0.179505 1.441434 1.308015
v -0.122577 1.869160 2.275530
v -0.122577 1.812480 2.275530
vn 0.9983 -0.0000 0.0587
vn -0.0000 -0.0000 1.0000
vn -0.9983 -0.0000 0.0587
vn -0.0000 -0.0000 -1.0000
vn -0.0000 0.9664 -0.2569
vn -0.0000 -0.9337 0.3581
vt 0.375000 0.000000
vt 0.625000 0.000000
vt 0.625000 0.250000
vt 0.375000 0.250000
vt 0.625000 0.500000
vt 0.375000 0.500000
vt 0.625000 0.750000
vt 0.375000 0.750000
vt 0.625000 1.000000
vt 0.375000 1.000000
vt 0.125000 0.500000
vt 0.125000 0.750000
vt 0.875000 0.500000
vt 0.875000 0.750000
s 0
f 13/23/6 15/26/6 16/25/6 14/24/6
f 15/26/7 19/28/7 20/27/7 16/25/7
f 19/28/8 17/30/8 18/29/8 20/27/8
f 17/30/9 13/32/9 14/31/9 18/29/9
f 15/33/10 13/34/10 17/30/10 19/28/10
f 20/27/11 18/29/11 14/36/11 16/35/11
o Cube.123
v -0.467181 0.966988 1.308015
v -0.467181 0.796451 1.308015
v -0.735235 0.771765 2.275530
v -0.735235 0.715085 2.275530
v -0.637718 0.966988 1.308015
v -0.637718 0.796451 1.308015
v -0.791915 0.771765 2.275530
v -0.791915 0.715085 2.275530
v 0.278707 0.966988 1.308015
v 0.278707 0.796451 1.308015
v 0.546761 0.771765 2.275530
v 0.546761 0.715085 2.275530
v 0.449244 0.966988 1.308015
v 0.449244 0.796451 1.308015
v 0.603441 0.771765 2.275530
v 0.603441 0.715085 2.275530
vn 0.9637 -0.0000 0.2670
vn -0.0000 -0.0000 1.0000
vn -0.9875 -0.0000 -0.1574
vn -0.0000 -0.0000 -1.0000
vn -0.0000 0.9802 0.1978
vn -0.0000 -0.9965 -0.0838
vn -0.9637 -0.0000 0.2670
vn 0.9875 -0.0000 -0.1574
vt 0.375000 0.000000
vt 0.625000 0.000000
vt 0.625000 0.250000
vt 0.375000 0.250000
vt 0.625000 0.500000
vt 0.375000 0.500000
vt 0.625000 0.750000
vt 0.375000 0.750000
vt 0.625000 1.000000
vt 0.375000 1.000000
vt 0.125000 0.500000
vt 0.125000 0.750000
vt 0.875000 0.500000
vt 0.875000 0.750000
s 0
f 21/37/12 23/40/12 24/39/12 22/38/12
f 23/40/13 27/42/13 28/41/13 24/39/13
f 27/42/14 25/44/14 26/43/14 28/41/14
f 25/44/15 21/46/15 22/45/15 26/43/15
f 23/47/16 21/48/16 25/44/16 27/42/16
f 28/41/17 26/43/17 22/50/17 24/49/17
f 29/37/18 30/38/18 32/39/18 31/40/18
f 31/40/13 32/39/13 36/41/13 35/42/13
f 35/42/19 36/41/19 34/43/19 33/44/19
f 33/44/15 34/43/15 30/45/15 29/46/15
f 31/47/16 35/42/16 33/44/16 29/48/16
f 36/41/17 32/49/17 30/50/17 34/43/17
o Cube.129
v -0.962426 0.037419 0.949131
v -0.900203 0.402114 1.027486
v -0.950039 0.037419 0.901629
v -0.874004 0.402114 0.927018
v -0.914925 0.037419 0.961518
v -0.799735 0.402114 1.053685
v -0.902537 0.037419 0.914017
v -0.773536 0.402114 0.953217
v -0.776865 0.056045 0.280244
v -0.714642 0.420741 0.358599
v -0.764478 0.056045 0.232742
v -0.688442 0.420741 0.258131
v -0.729363 0.056045 0.292632
v -0.614174 0.420741 0.384798
v -0.716976 0.056045 0.245130
v -0.587974 0.420741 0.284330
v -0.571596 0.071235 -0.417455
v -0.509372 0.435930 -0.339101
v -0.559209 0.071235 -0.464957
v -0.483173 0.435930 -0.439569
v -0.524094 0.071235 -0.405068
v -0.408904 0.435930 -0.312902
v -0.511707 0.071235 -0.452570
v -0.382705 0.435930 -0.413370
v 0.773953 0.037419 0.949131
v 0.711729 0.402114 1.027486
v 0.761566 0.037419 0.901629
v 0.685530 0.402114 0.927018
v 0.726451 0.037419 0.961518
v 0.611261 0.402114 1.053685
v 0.714064 0.037419 0.914017
v 0.585062 0.402114 0.953217
v 0.588392 0.056045 0.280244
v 0.526168 0.420741 0.358599
v 0.576005 0.056045 0.232742
v 0.499969 0.420741 0.258131
v 0.540890 0.056045 0.292632
v 0.425700 0.420741 0.384798
v 0.528503 0.056045 0.245130
v 0.399501 0.420741 0.284330
v 0.383122 0.071235 -0.417455
v 0.320898 0.435930 -0.339101
v 0.370735 0.071235 -0.464957
v 0.294699 0.435930 -0.439569
v 0.335620 0.071235 -0.405068
v 0.220430 0.435930 -0.312902
v 0.323233 0.071235 -0.452570
v 0.194231 0.435930 -0.413370
vn -0.9452 0.2142 -0.2465
vn 0.2523 0.0148 -0.9675
vn 0.9077 -0.3465 0.2367
vn -0.2490 -0.1626 0.9548
vn -0.0000 -1.0000 -0.0000
vn -0.0000 1.0000 -0.0000
vn 0.9452 0.2142 -0.2465
vn -0.2523 0.0148 -0.9675
vn -0.9077 -0.3465 0.2367
vn 0.2490 -0.1626 0.9548
vt 0.375000 0.000000
vt 0.625000 0.000000
vt 0.625000 0.250000
vt 0.375000 0.250000
vt 0.625000 0.500000
vt 0.375000 0.500000
vt 0.625000 0.750000
vt 0.375000 0.750000
vt 0.625000 1.000000
vt 0.375000 1.000000
vt 0.125000 0.500000
vt 0.125000 0.750000
vt 0.875000 0.500000
vt 0.875000 0.750000
s 0
f 37/51/20 38/52/20 40/53/20 39/54/20
f 39/54/21 40/53/21 44/55/21 43/56/21
f 43/56/22 44/55/22 42/57/22 41/58/22
f 41/58/23 42/57/23 38/59/23 37/60/23
f 39/61/24 43/56/24 41/58/24 37/62/24
f 44/55/25 40/63/25 38/64/25 42/57/25
f 45/51/20 46/52/20 48/53/20 47/54/20
f 47/54/21 48/53/21 52/55/21 51/56/21
f 51/56/22 52/55/22 50/57/22 49/58/22
f 49/58/23 50/57/23 46/59/23 45/60/23
f 47/61/24 51/56/24 49/58/24 45/62/24
f 52/55/25 48/63/25 46/64/25 50/57/25
f 53/51/20 54/52/20 56/53/20 55/54/20
f 55/54/21 56/53/21 60/55/21 59/56/21
f 59/56/22 60/55/22 58/57/22 57/58/22
f 57/58/23 58/57/23 54/59/23 53/60/23
f 55/61/24 59/56/24 57/58/24 53/62/24
f 60/55/25 56/63/25 54/64/25 58/57/25
f 61/51/26 63/54/26 64/53/26 62/52/26
f 63/54/27 67/56/27 68/55/27 64/53/27
f 67/56/28 65/58/28 66/57/28 68/55/28
f 65/58/29 61/60/29 62/59/29 66/57/29
f 63/61/24 61/62/24 65/58/24 67/56/24
f 68/55/25 66/57/25 62/64/25 64/63/25
f 69/51/26 71/54/26 72/53/26 70/52/26
f 71/54/27 75/56/27 76/55/27 72/53/27
f 75/56/28 73/58/28 74/57/28 76/55/28
f 73/58/29 69/60/29 70/59/29 74/57/29
f 71/61/24 69/62/24 73/58/24 75/56/24
f 76/55/25 74/57/25 70/64/25 72/63/25
f 77/51/26 79/54/26 80/53/26 78/52/26
f 79/54/27 83/56/27 84/55/27 80/53/27
f 83/56/28 81/58/28 82/57/28 84/55/28
f 81/58/29 77/60/29 78/59/29 82/57/29
f 79/61/24 77/62/24 81/58/24 83/56/24
f 84/55/25 82/57/25 78/64/25 80/63/25
