# Blender 4.1.1
# www.blender.org
o Cube.013
v 1.427543 1.289114 -0.509354
v 0.940049 0.230515 -0.122265
v 1.427543 1.289114 0.773137
v 0.940049 0.230515 0.478862
v -0.000000 0.230515 -0.261156
v -0.000000 0.230515 0.617753
v -0.000000 1.289114 -0.805674
v 1.118881 1.406613 -0.279556
v 1.118881 1.406613 0.543339
v -0.000000 1.683306 -0.469686
v -0.000000 1.645952 1.004801
v 0.428947 0.251161 0.653248
v 0.604697 1.289114 -0.657514
v 0.398198 0.230515 -0.191710
v 0.689753 1.313453 1.045003
v 0.469471 1.619890 -0.374621
v 0.392701 1.564459 0.989114
v 0.400546 1.265508 1.462138
v -0.000000 1.265508 1.568398
v -0.000000 0.216217 0.992648
v -0.000000 1.365404 1.535062
v 0.273872 1.365404 1.449405
v 0.257474 0.216217 0.942843
v 0.320766 1.489917 1.233575
v 0.347254 0.233689 0.708836
v 0.550219 1.289480 1.148409
v -0.000000 1.526750 1.296713
v -0.000000 0.223366 0.715992
v 1.131383 0.759789 -0.259041
v 1.131383 0.759789 0.585550
v -0.000000 0.759789 -0.473239
v 0.499821 0.782453 0.807844
v 0.458390 0.759789 -0.366140
v 0.058756 1.371169 2.059529
v 0.286100 0.740950 1.161009
v 0.396192 0.761702 0.886499
v -1.427543 1.289114 -0.509354
v -0.940049 0.230515 -0.122265
v -1.427543 1.289114 0.773137
v -0.940049 0.230515 0.478862
v -1.118881 1.406613 -0.279556
v -1.118881 1.406613 0.543339
v -0.428947 0.251161 0.653248
v -0.604697 1.289114 -0.657514
v -0.398198 0.230515 -0.191710
v -0.689753 1.313453 1.045003
v -0.469471 1.619890 -0.374621
v -0.392701 1.564459 0.989114
v -0.400546 1.265508 1.462138
v -0.273872 1.365404 1.449405
v -0.257474 0.216217 0.942843
v -0.320766 1.489917 1.233575
v -0.347254 0.233689 0.708836
v -0.550219 1.289480 1.148409
v -1.131383 0.759789 -0.259041
v -1.131383 0.759789 0.585550
v -0.499821 0.782453 0.807844
v -0.458390 0.759789 -0.366140
v -0.286100 0.740950 1.161009
v -0.396192 0.761702 0.886499
v 0.240471 1.193527 1.712324
v -0.000000 1.193527 1.712324
v -0.000000 0.963437 1.712324
v 0.154577 0.963437 1.712324
v 0.171762 1.078501 1.712324
v -0.240471 1.193527 1.712324
v -0.154577 0.963437 1.712324
v -0.171762 1.078501 1.712324
v -0.000000 1.371169 2.059529
v -0.000000 1.314999 2.059529
v -0.000000 1.258809 2.059529
v 0.037769 1.258809 2.059529
v 0.041968 1.314999 2.059529
v -0.058756 1.371169 2.059529
v -0.037769 1.258809 2.059529
v -0.041968 1.314999 2.059529
v -0.073679 1.168003 1.952788
v -0.000000 1.168003 1.952788
v -0.114621 1.316557 1.952788
v -0.081871 1.242292 1.952788
v 0.073679 1.168003 1.952788
v -0.000000 1.316557 1.952788
v 0.114621 1.316557 1.952788
v 0.081871 1.242292 1.952788
v -0.113538 0.121906 0.835559
v -0.113538 0.348983 0.835559
v -0.113538 0.121906 0.608482
v -0.113538 0.348983 0.608482
v 0.113538 0.121906 0.835559
v 0.113538 0.348983 0.835559
v 0.113538 0.121906 0.608482
v 0.113538 0.348983 0.608482
v 0.000000 0.321671 0.732204
v -0.000000 0.290048 0.921173
v 0.043909 0.310849 0.732204
v 0.029213 0.282847 0.921173
v 0.077759 0.280860 0.732204
v 0.051734 0.262896 0.921173
v 0.093796 0.238576 0.732204
v 0.062403 0.234764 0.921173
v 0.088345 0.193682 0.732204
v 0.058776 0.204896 0.921173
v 0.062655 0.156464 0.732204
v 0.041685 0.180135 0.921173
v 0.022612 0.135448 0.732204
v 0.015044 0.166153 0.921173
v -0.022612 0.135448 0.732204
v -0.015044 0.166153 0.921173
v -0.062655 0.156464 0.732204
v -0.041685 0.180135 0.921173
v -0.088345 0.193682 0.732204
v -0.058776 0.204896 0.921173
v -0.093796 0.238576 0.732204
v -0.062403 0.234764 0.921173
v -0.077759 0.280860 0.732204
v -0.051734 0.262896 0.921173
v -0.043909 0.310849 0.732204
v -0.029213 0.282847 0.921173
v 0.043909 0.310849 0.921173
v 0.000000 0.321671 0.921173
v 0.077759 0.280860 0.921173
v 0.093796 0.238576 0.921173
v 0.088345 0.193682 0.921173
v 0.062655 0.156464 0.921173
v 0.022612 0.135448 0.921173
v -0.022612 0.135448 0.921173
v -0.062655 0.156464 0.921173
v -0.088345 0.193682 0.921173
v -0.093796 0.238576 0.921173
v -0.077759 0.280860 0.921173
v -0.043909 0.310849 0.921173
v 0.013424 0.252764 0.843900
v 0.000000 0.256073 0.843900
v 0.023772 0.243596 0.843900
v 0.028675 0.230669 0.843900
v 0.027009 0.216944 0.843900
v 0.019155 0.205566 0.843900
v 0.006913 0.199141 0.843900
v -0.006913 0.199141 0.843900
v -0.019155 0.205566 0.843900
v -0.027009 0.216944 0.843900
v -0.028675 0.230669 0.843900
v -0.023772 0.243596 0.843900
v -0.013424 0.252764 0.843900
v -1.016824 0.274108 0.017558
v -0.852742 0.230257 0.017558
v -1.016824 0.274108 -0.235700
v -0.852742 0.230258 -0.235700
v -1.080788 0.024551 0.017558
v -0.916706 -0.019299 0.017558
v -1.080788 0.024551 -0.235700
v -0.916706 -0.019299 -0.235700
v 1.016824 0.274108 0.017558
v 0.852742 0.230257 0.017558
v 1.016824 0.274108 -0.235700
v 0.852742 0.230258 -0.235700
v 1.080788 0.024551 0.017558
v 0.916706 -0.019299 0.017558
v 1.080788 0.024551 -0.235700
v 0.916706 -0.019299 -0.235700
v -1.065450 0.285680 0.423438
v -0.899478 0.241324 0.423438
v -1.065450 0.285680 0.170180
v -0.899478 0.241324 0.170180
v -1.129385 0.036114 0.423438
v -0.963413 -0.008242 0.423438
v -1.129385 0.036114 0.170180
v -0.963413 -0.008242 0.170180
v 1.065450 0.285680 0.423438
v 0.899477 0.241324 0.423438
v 1.065450 0.285680 0.170180
v 0.899477 0.241324 0.170180
v 1.129385 0.036114 0.423438
v 0.963413 -0.008242 0.423438
v 1.129385 0.036114 0.170180
v 0.963413 -0.008242 0.170180
vn 0.0049 -0.9999 0.0129
vn -0.0181 -0.9997 0.0147
vn 0.0112 -0.9998 -0.0140
vn 0.9048 -0.4259 -0.0000
vn 0.8727 -0.4883 -0.0000
vn 0.9057 -0.4239 -0.0000
vn 0.1699 -0.4227 -0.8902
vn 0.1711 -0.5076 -0.8444
vn 0.1458 -0.4983 -0.8547
vn 0.1429 -0.4234 -0.8946
vn 0.3738 0.8033 0.4636
vn -0.0000 0.8919 0.4523
vn -0.0000 0.6525 0.7578
vn 0.3836 0.6621 0.6438
vn 0.2070 0.7564 -0.6205
vn -0.0000 0.6714 -0.7411
vn -0.0000 0.9476 -0.3195
vn 0.2246 0.9389 -0.2608
vn -0.0000 0.9827 0.1854
vn 0.2870 0.9253 0.2478
vn 0.3459 0.9183 0.1926
vn 0.3083 0.9245 -0.2241
vn 0.2887 0.9387 -0.1884
vn 0.3191 0.9363 0.1468
vn 0.4068 0.7854 0.4665
vn 0.5960 0.6400 0.4850
vn 0.4217 0.7210 0.5499
vn 0.2946 -0.3950 0.8702
vn 0.2860 -0.4664 0.8370
vn 0.4245 -0.4862 0.7638
vn 0.4569 -0.4080 0.7904
vn -0.0000 -0.4483 -0.8939
vn -0.0000 -0.5284 -0.8490
vn -0.0000 -0.9999 0.0116
vn -0.0000 -0.9983 -0.0580
vn -0.0000 0.7876 0.6162
vn -0.0000 0.9993 -0.0377
vn 0.0434 0.9945 0.0955
vn -0.0000 -0.9960 -0.0895
vn 0.0346 -0.9936 -0.1074
vn 0.0385 -0.9776 0.2069
vn -0.0000 -0.9465 0.3228
vn 0.7657 -0.3535 0.5373
vn 0.7238 -0.4595 0.5147
vn 0.8278 -0.4134 0.3793
vn 0.9061 -0.2622 0.3321
vn 0.4708 -0.3037 0.8284
vn 0.7998 -0.2529 0.5443
vn 0.9215 -0.1927 0.3371
vn -0.8278 -0.4134 0.3793
vn -0.9061 -0.2622 0.3321
vn -0.8591 -0.2815 0.4275
vn -0.7710 -0.4109 0.4865
vn -0.0000 -0.3526 -0.9358
vn 0.1641 -0.3286 -0.9301
vn 0.3030 -0.2979 0.9052
vn 0.1368 -0.3092 -0.9411
vn 0.9404 -0.3400 -0.0000
vn -0.0049 -0.9999 0.0129
vn -0.0112 -0.9998 -0.0140
vn 0.0181 -0.9997 0.0147
vn -0.9048 -0.4259 -0.0000
vn -0.9057 -0.4239 -0.0000
vn -0.8727 -0.4883 -0.0000
vn -0.1699 -0.4227 -0.8902
vn -0.1429 -0.4234 -0.8946
vn -0.1458 -0.4983 -0.8547
vn -0.1711 -0.5076 -0.8444
vn -0.3738 0.8033 0.4636
vn -0.3836 0.6621 0.6438
vn -0.2070 0.7564 -0.6205
vn -0.2246 0.9389 -0.2608
vn -0.2870 0.9253 0.2478
vn -0.3459 0.9183 0.1926
vn -0.3191 0.9363 0.1468
vn -0.2887 0.9387 -0.1884
vn -0.3083 0.9245 -0.2241
vn -0.4068 0.7854 0.4665
vn -0.5960 0.6400 0.4850
vn -0.4217 0.7210 0.5499
vn -0.2946 -0.3950 0.8702
vn -0.4569 -0.4080 0.7904
vn -0.4245 -0.4862 0.7638
vn -0.2860 -0.4664 0.8370
vn 0.0460 -0.7301 0.6818
vn -0.0000 -0.7337 0.6795
vn -0.0385 -0.9776 0.2069
vn -0.0346 -0.9936 -0.1074
vn -0.7657 -0.3535 0.5373
vn -0.7238 -0.4595 0.5147
vn -0.4708 -0.3037 0.8284
vn -0.7998 -0.2529 0.5443
vn -0.9215 -0.1927 0.3371
vn 0.8591 -0.2815 0.4275
vn 0.9352 -0.1580 0.3169
vn -0.1641 -0.3286 -0.9301
vn -0.3030 -0.2979 0.9052
vn -0.1368 -0.3092 -0.9411
vn -0.9404 -0.3400 -0.0000
vn -0.0000 0.8902 -0.4555
vn -0.0000 -0.7617 0.6480
vn -0.7707 -0.3321 0.5438
vn -0.8430 -0.2355 0.4837
vn -0.8277 -0.2497 0.5026
vn -0.7906 -0.3003 0.5337
vn -0.9352 -0.1580 0.3169
vn -0.0460 -0.7301 0.6818
vn -0.0434 0.9945 0.0955
vn 0.7710 -0.4109 0.4865
vn -0.0000 -0.0000 1.0000
vn -0.9055 -0.1139 0.4088
vn -0.9159 -0.0870 0.3919
vn 0.8430 -0.2355 0.4837
vn 0.7707 -0.3321 0.5438
vn 0.7906 -0.3003 0.5337
vn 0.8277 -0.2497 0.5026
vn 0.9055 -0.1139 0.4088
vn 0.9159 -0.0870 0.3919
vn -1.0000 -0.0000 -0.0000
vn -0.0000 -0.0000 -1.0000
vn 1.0000 -0.0000 -0.0000
vn -0.0000 -1.0000 -0.0000
vn -0.0000 1.0000 -0.0000
vn 0.4430 0.8965 -0.0000
vn 0.8118 0.5840 -0.0000
vn 0.9922 0.1246 -0.0000
vn 0.9306 -0.3660 -0.0000
vn 0.6446 -0.7645 -0.0000
vn 0.2238 -0.9746 -0.0000
vn -0.2238 -0.9746 -0.0000
vn -0.6446 -0.7645 -0.0000
vn -0.9306 -0.3660 -0.0000
vn -0.9922 0.1246 -0.0000
vn -0.8118 0.5840 -0.0000
vn 0.5700 0.7166 0.4020
vn 0.1928 0.8950 0.4023
vn 0.2226 0.8880 0.4025
vn 0.6156 0.6775 0.4025
vn -0.4430 0.8965 -0.0000
vn -0.3859 -0.8303 0.4021
vn -0.0000 -0.9154 0.4025
vn -0.4325 -0.8068 0.4025
vn 0.8455 0.3510 0.4023
vn 0.8591 0.3162 0.4025
vn -0.7287 -0.5543 0.4021
vn -0.7601 -0.5101 0.4025
vn 0.9075 -0.1202 0.4025
vn 0.9091 -0.1071 0.4025
vn -0.9075 -0.1202 0.4025
vn -0.9091 -0.1071 0.4025
vn 0.7287 -0.5543 0.4021
vn 0.7601 -0.5101 0.4025
vn -0.8455 0.3510 0.4023
vn -0.8591 0.3162 0.4025
vn 0.3859 -0.8303 0.4021
vn 0.4325 -0.8068 0.4025
vn -0.5700 0.7166 0.4020
vn -0.6156 0.6775 0.4025
vn -0.1928 0.8950 0.4023
vn -0.2226 0.8880 0.4025
vn 0.2582 0.9661 -0.0000
vn -0.2582 -0.9661 -0.0000
vn -0.9687 0.2483 -0.0000
vn 0.9687 -0.2483 -0.0000
vn -0.2582 0.9661 -0.0000
vn 0.2582 -0.9661 -0.0000
vn 0.9687 0.2483 -0.0000
vn -0.9687 -0.2483 -0.0000
vn -0.9687 0.2482 -0.0000
vn 0.9687 -0.2482 -0.0000
vn 0.9687 0.2482 -0.0000
vn -0.9687 -0.2482 -0.0000
vt 0.312500 0.500000
vt 0.375000 0.500000
vt 0.375000 0.750000
vt 0.312500 0.750000
vt 0.500000 0.500000
vt 0.625000 0.500000
vt 0.625000 0.750000
vt 0.500000 0.750000
vt 0.500000 0.437500
vt 0.625000 0.437500
vt 0.685763 0.750000
vt 0.746498 0.750000
vt 0.744837 0.750000
vt 0.684938 0.750000
vt 0.625000 0.375000
vt 0.687500 0.500000
vt 0.750000 0.500000
vt 0.750000 0.750000
vt 0.687500 0.750000
vt 0.625000 0.812500
vt 0.500000 0.812500
vt 0.500000 0.375000
vt 0.250000 0.500000
vt 0.250000 0.750000
vt 0.625000 0.875000
vt 0.375000 0.812500
vt 0.375000 0.375000
vt 0.375000 0.437500
vt 0.250000 0.750000
vt 0.312500 0.750000
vt 0.500000 0.875000
vt 0.375000 0.875000
vt 0.500000 0.812500
vt 0.375000 0.812500
vt 0.375000 0.000000
vt 0.625000 0.000000
vt 0.625000 0.250000
vt 0.375000 0.250000
vt 0.625000 1.000000
vt 0.375000 1.000000
vt 0.125000 0.500000
vt 0.125000 0.750000
vt 0.875000 0.500000
vt 0.875000 0.750000
vt 1.000000 0.500000
vt 1.000000 1.000000
vt 0.923077 1.000000
vt 0.923077 0.500000
vt 0.846154 1.000000
vt 0.846154 0.500000
vt 0.769231 1.000000
vt 0.769231 0.500000
vt 0.692308 1.000000
vt 0.692308 0.500000
vt 0.615385 1.000000
vt 0.615385 0.500000
vt 0.538462 1.000000
vt 0.538462 0.500000
vt 0.461538 1.000000
vt 0.461538 0.500000
vt 0.384615 1.000000
vt 0.384615 0.500000
vt 0.307692 1.000000
vt 0.307692 0.500000
vt 0.230769 1.000000
vt 0.230769 0.500000
vt 0.153846 1.000000
vt 0.153846 0.500000
vt 0.116689 0.099523
vt 0.201889 0.054806
vt 0.076923 1.000000
vt 0.076923 0.500000
vt 0.000000 1.000000
vt 0.000000 0.500000
vt 0.750000 0.490000
vt 0.861534 0.462509
vt 0.947516 0.386336
vt 0.988250 0.278929
vt 0.974404 0.164895
vt 0.909149 0.070357
vt 0.807436 0.016974
vt 0.692564 0.016974
vt 0.590851 0.070357
vt 0.525596 0.164895
vt 0.511750 0.278929
vt 0.552484 0.386336
vt 0.638466 0.462509
vt 0.250000 0.451036
vt 0.343426 0.428008
vt 0.361534 0.462509
vt 0.250000 0.490000
vt 0.415449 0.364201
vt 0.447516 0.386336
vt 0.449570 0.274232
vt 0.488250 0.278929
vt 0.437972 0.178712
vt 0.474404 0.164895
vt 0.383311 0.099523
vt 0.409149 0.070357
vt 0.298111 0.054806
vt 0.307436 0.016974
vt 0.192564 0.016974
vt 0.090851 0.070357
vt 0.062028 0.178712
vt 0.025596 0.164895
vt 0.050430 0.274232
vt 0.011750 0.278929
vt 0.084551 0.364201
vt 0.052484 0.386336
vt 0.156574 0.428008
vt 0.138466 0.462509
s 1
f 14/1/1 2/2/2 4/3/2 12/4/3
f 29/5/4 1/6/5 3/7/5 30/8/6
f 33/9/7 13/10/8 1/6/9 29/5/10
f 24/11/11 27/12/12 21/13/13 22/14/14
f 13/10/15 7/15/16 10/15/17 16/10/18
f 16/16/18 10/17/17 11/18/19 17/19/20
f 3/7/21 1/6/22 8/6/23 9/7/24
f 15/20/25 3/7/21 9/7/24 17/20/20
f 26/20/26 24/20/11 22/20/14 18/20/27
f 8/6/23 16/16/18 17/19/20 9/7/24
f 1/6/22 13/10/15 16/10/18 8/6/23
f 30/8/28 3/7/29 15/20/30 32/21/31
f 31/22/32 7/15/33 13/10/8 33/9/7
f 5/23/34 14/1/1 12/4/3 6/24/35
f 18/20/27 19/25/36 62/25/37 61/20/38
f 19/25/36 18/20/27 22/20/14 21/25/13
f 28/24/39 25/4/40 23/4/41 20/24/42
f 36/21/43 26/20/44 18/20/45 35/21/46
f 32/21/31 15/20/30 26/20/44 36/21/43
f 6/24/35 12/4/3 25/4/40 28/24/39
f 15/20/25 17/20/20 24/20/11 26/20/26
f 17/19/20 11/18/19 27/12/12 24/11/11
f 12/26/47 32/21/31 36/21/43 25/26/48
f 25/26/48 36/21/43 35/21/46 23/26/49
f 49/20/50 59/21/51 68/21/52 66/20/53
f 5/27/54 31/22/32 33/9/7 14/28/55
f 4/3/56 30/8/28 32/21/31 12/26/47
f 14/28/55 33/9/7 29/5/10 2/2/57
f 2/2/58 29/5/4 30/8/6 4/3/58
f 45/1/59 43/4/60 40/3/61 38/2/61
f 55/5/62 56/8/63 39/7/64 37/6/64
f 58/9/65 55/5/66 37/6/67 44/10/68
f 52/11/69 50/14/70 21/13/13 27/12/12
f 44/10/71 47/10/72 10/15/17 7/15/16
f 47/16/72 48/19/73 11/18/19 10/17/17
f 39/7/74 42/7/75 41/6/76 37/6/77
f 46/20/78 48/20/73 42/7/75 39/7/74
f 54/20/79 49/20/80 50/20/70 52/20/69
f 41/6/76 42/7/75 48/19/73 47/16/72
f 37/6/77 41/6/76 47/10/72 44/10/71
f 56/8/81 57/21/82 46/20/83 39/7/84
f 31/22/32 58/9/65 44/10/68 7/15/33
f 5/23/34 6/24/35 43/4/60 45/1/59
f 20/24/42 23/4/41 64/4/85 63/24/86
f 19/25/36 21/25/13 50/20/70 49/20/80
f 28/24/39 20/24/42 51/4/87 53/4/88
f 60/21/89 59/21/51 49/20/50 54/20/90
f 57/21/82 60/21/89 54/20/90 46/20/83
f 6/24/35 28/24/39 53/4/88 43/4/60
f 46/20/78 54/20/79 52/20/69 48/20/73
f 48/19/73 52/11/69 27/12/12 11/18/19
f 43/26/91 53/26/92 60/21/89 57/21/82
f 53/26/92 51/26/93 59/21/51 60/21/89
f 23/26/49 35/21/46 65/21/94 64/26/95
f 5/27/54 45/28/96 58/9/65 31/22/32
f 40/3/97 43/26/91 57/21/82 56/8/81
f 45/28/96 38/2/98 55/5/66 58/9/65
f 38/2/99 40/3/99 56/8/63 55/5/62
f 83/20/100 82/25/100 69/25/100 34/20/100
f 78/29/101 81/4/101 72/4/101 71/24/101
f 77/30/101 78/29/101 71/24/101 75/4/101
f 79/20/102 80/21/103 76/21/104 74/20/105
f 59/21/51 51/26/93 67/26/106 68/21/52
f 51/4/87 20/24/42 63/24/86 67/4/107
f 19/25/36 49/20/80 66/20/108 62/25/37
f 35/21/46 18/20/45 61/20/109 65/21/94
f 73/21/110 34/20/110 69/25/110 70/31/110
f 72/26/110 73/21/110 70/31/110 71/32/110
f 76/21/110 70/31/110 69/25/110 74/20/110
f 75/26/110 71/32/110 70/31/110 76/21/110
f 80/21/103 77/26/111 75/26/112 76/21/104
f 82/25/100 79/20/100 74/20/100 69/25/100
f 84/33/113 83/20/114 34/20/115 73/21/116
f 81/34/117 84/33/113 73/21/116 72/26/118
f 64/26/95 65/21/94 84/33/113 81/34/117
f 65/21/94 61/20/109 83/20/114 84/33/113
f 62/25/37 66/20/108 79/20/100 82/25/100
f 68/21/52 67/26/106 77/26/111 80/21/103
f 66/20/53 68/21/52 80/21/103 79/20/102
f 67/4/107 63/24/86 78/29/101 77/30/101
f 63/24/86 64/4/85 81/4/101 78/29/101
f 61/20/38 62/25/37 82/25/100 83/20/100
s 0
f 85/35/119 86/36/119 88/37/119 87/38/119
f 87/38/120 88/37/120 92/6/120 91/2/120
f 91/2/121 92/6/121 90/7/121 89/3/121
f 89/3/110 90/7/110 86/39/110 85/40/110
f 87/41/122 91/2/122 89/3/122 85/42/122
f 92/6/123 88/43/123 86/44/123 90/7/123
s 1
f 93/45/123 120/46/123 119/47/124 95/48/124
f 95/48/124 119/47/124 121/49/125 97/50/125
f 97/50/125 121/49/125 122/51/126 99/52/126
f 99/52/126 122/51/126 123/53/127 101/54/127
f 101/54/127 123/53/127 124/55/128 103/56/128
f 103/56/128 124/55/128 125/57/129 105/58/129
f 105/58/129 125/57/129 126/59/130 107/60/130
f 107/60/130 126/59/130 127/61/131 109/62/131
f 109/62/131 127/61/131 128/63/132 111/64/132
f 111/64/132 128/63/132 129/65/133 113/66/133
f 113/66/133 129/65/133 130/67/134 115/68/134
f 110/69/135 108/70/136 139/70/137 140/69/138
f 115/68/134 130/67/134 131/71/139 117/72/139
f 117/72/139 131/71/139 120/73/123 93/74/123
f 93/75/120 95/76/120 97/77/120 99/78/120 101/79/120 103/80/120 105/81/120 107/82/120 109/83/120 111/84/120 113/85/120 115/86/120 117/87/120
f 94/88/110 96/89/110 119/90/110 120/91/110
f 96/89/110 98/92/110 121/93/110 119/90/110
f 98/92/110 100/94/110 122/95/110 121/93/110
f 100/94/110 102/96/110 123/97/110 122/95/110
f 102/96/110 104/98/110 124/99/110 123/97/110
f 104/98/110 106/100/110 125/101/110 124/99/110
f 106/100/110 108/70/110 126/102/110 125/101/110
f 108/70/110 110/69/110 127/103/110 126/102/110
f 110/69/110 112/104/110 128/105/110 127/103/110
f 112/104/110 114/106/110 129/107/110 128/105/110
f 114/106/110 116/108/110 130/109/110 129/107/110
f 116/108/110 118/110/110 131/111/110 130/109/110
f 118/110/110 94/88/110 120/91/110 131/111/110
f 132/89/110 133/88/110 144/110/110 143/108/110 142/106/110 141/104/110 140/69/110 139/70/110 138/100/110 137/98/110 136/96/110 135/94/110 134/92/110
f 96/89/140 94/88/141 133/88/141 132/89/142
f 112/104/143 110/69/135 140/69/138 141/104/144
f 98/92/145 96/89/140 132/89/142 134/92/146
f 114/106/147 112/104/143 141/104/144 142/106/148
f 100/94/149 98/92/145 134/92/146 135/94/150
f 116/108/151 114/106/147 142/106/148 143/108/152
f 102/96/153 100/94/149 135/94/150 136/96/154
f 118/110/155 116/108/151 143/108/152 144/110/156
f 104/98/157 102/96/153 136/96/154 137/98/158
f 94/88/141 118/110/155 144/110/156 133/88/141
f 106/100/159 104/98/157 137/98/158 138/100/160
f 108/70/136 106/100/159 138/100/160 139/70/137
s 0
f 145/35/161 146/36/161 148/37/161 147/38/161
f 147/38/120 148/37/120 152/6/120 151/2/120
f 151/2/162 152/6/162 150/7/162 149/3/162
f 149/3/110 150/7/110 146/39/110 145/40/110
f 147/41/163 151/2/163 149/3/163 145/42/163
f 152/6/164 148/43/164 146/44/164 150/7/164
f 153/35/165 155/38/165 156/37/165 154/36/165
f 155/38/120 159/2/120 160/6/120 156/37/120
f 159/2/166 157/3/166 158/7/166 160/6/166
f 157/3/110 153/40/110 154/39/110 158/7/110
f 155/41/167 153/42/167 157/3/167 159/2/167
f 160/6/168 158/7/168 154/44/168 156/43/168
f 161/35/161 162/36/161 164/37/161 163/38/161
f 163/38/120 164/37/120 168/6/120 167/2/120
f 167/2/162 168/6/162 166/7/162 165/3/162
f 165/3/110 166/7/110 162/39/110 161/40/110
f 163/41/169 167/2/169 165/3/169 161/42/169
f 168/6/170 164/43/170 162/44/170 166/7/170
f 169/35/165 171/38/165 172/37/165 170/36/165
f 171/38/120 175/2/120 176/6/120 172/37/120
f 175/2/166 173/3/166 174/7/166 176/6/166
f 173/3/110 169/40/110 170/39/110 174/7/110
f 171/41/171 169/42/171 173/3/171 175/2/171
f 176/6/172 174/7/172 170/44/172 172/43/172
